<?xml version="1.0" encoding="utf-8" ?>
<svg baseProfile="full" height="500" version="1.1" width="1000" xmlns="http://www.w3.org/2000/svg" xmlns:ev="http://www.w3.org/2001/xml-events" xmlns:xlink="http://www.w3.org/1999/xlink"><defs /><rect fill="#000000" height="500" width="1000" x="0" y="0" /><line stroke="#808080" x1="80" x2="920" y1="40.0" y2="40.0" /><line stroke="#808080" x1="80" x2="920" y1="92.5" y2="92.5" /><line stroke="#808080" x1="80" x2="920" y1="145.0" y2="145.0" /><line stroke="#808080" x1="80" x2="920" y1="197.5" y2="197.5" /><line stroke="#808080" x1="80" x2="920" y1="250.0" y2="250.0" /><line stroke="#808080" x1="80" x2="920" y1="302.5" y2="302.5" /><line stroke="#808080" x1="80" x2="920" y1="355.0" y2="355.0" /><line stroke="#808080" x1="80" x2="920" y1="407.5" y2="407.5" /><line stroke="#808080" x1="80" x2="920" y1="460.0" y2="460.0" /><line stroke="#808080" x1="80.0" x2="80.0" y1="40" y2="460" /><line stroke="#808080" x1="113.6" x2="113.6" y1="40" y2="460" /><line stroke="#808080" x1="147.2" x2="147.2" y1="40" y2="460" /><line stroke="#808080" x1="180.79999999999998" x2="180.79999999999998" y1="40" y2="460" /><line stroke="#808080" x1="214.39999999999998" x2="214.39999999999998" y1="40" y2="460" /><line stroke="#808080" x1="247.99999999999997" x2="247.99999999999997" y1="40" y2="460" /><line stroke="#808080" x1="281.59999999999997" x2="281.59999999999997" y1="40" y2="460" /><line stroke="#808080" x1="315.19999999999993" x2="315.19999999999993" y1="40" y2="460" /><line stroke="#808080" x1="348.79999999999995" x2="348.79999999999995" y1="40" y2="460" /><line stroke="#808080" x1="382.4" x2="382.4" y1="40" y2="460" /><line stroke="#808080" x1="415.99999999999994" x2="415.99999999999994" y1="40" y2="460" /><line stroke="#808080" x1="449.5999999999999" x2="449.5999999999999" y1="40" y2="460" /><line stroke="#808080" x1="483.19999999999993" x2="483.19999999999993" y1="40" y2="460" /><line stroke="#808080" x1="516.8" x2="516.8" y1="40" y2="460" /><line stroke="#808080" x1="550.3999999999999" x2="550.3999999999999" y1="40" y2="460" /><line stroke="#808080" x1="583.9999999999999" x2="583.9999999999999" y1="40" y2="460" /><line stroke="#808080" x1="617.5999999999999" x2="617.5999999999999" y1="40" y2="460" /><line stroke="#808080" x1="651.1999999999999" x2="651.1999999999999" y1="40" y2="460" /><line stroke="#808080" x1="684.8" x2="684.8" y1="40" y2="460" /><line stroke="#808080" x1="718.3999999999999" x2="718.3999999999999" y1="40" y2="460" /><line stroke="#808080" x1="751.9999999999999" x2="751.9999999999999" y1="40" y2="460" /><line stroke="#808080" x1="785.5999999999999" x2="785.5999999999999" y1="40" y2="460" /><line stroke="#808080" x1="819.1999999999998" x2="819.1999999999998" y1="40" y2="460" /><line stroke="#808080" x1="852.7999999999998" x2="852.7999999999998" y1="40" y2="460" /><line stroke="#808080" x1="886.3999999999999" x2="886.3999999999999" y1="40" y2="460" /><line stroke="#808080" x1="919.9999999999999" x2="919.9999999999999" y1="40" y2="460" /><text fill="#A9A9A9" font-size="20px" style="font-family:Arial" text-anchor="middle" x="40.0" y="50.0"> N</text><text fill="#A9A9A9" font-size="20px" style="font-family:Arial" text-anchor="middle" x="40.0" y="102.5">NW</text><text fill="#A9A9A9" font-size="20px" style="font-family:Arial" text-anchor="middle" x="40.0" y="155.0"> W</text><text fill="#A9A9A9" font-size="20px" style="font-family:Arial" text-anchor="middle" x="40.0" y="207.5">SW</text><text fill="#A9A9A9" font-size="20px" style="font-family:Arial" text-anchor="middle" x="40.0" y="260.0"> S</text><text fill="#A9A9A9" font-size="20px" style="font-family:Arial" text-anchor="middle" x="40.0" y="312.5">SO</text><text fill="#A9A9A9" font-size="20px" style="font-family:Arial" text-anchor="middle" x="40.0" y="365.0"> O</text><text fill="#A9A9A9" font-size="20px" style="font-family:Arial" text-anchor="middle" x="40.0" y="417.5">NO</text><text fill="#A9A9A9" font-size="20px" style="font-family:Arial" text-anchor="middle" x="40.0" y="470.0"> N</text><text fill="#A9A9A9" font-size="20px" style="font-family:Arial" text-anchor="middle" x="960.0" y="50.0"> N</text><text fill="#A9A9A9" font-size="20px" style="font-family:Arial" text-anchor="middle" x="960.0" y="102.5">NW</text><text fill="#A9A9A9" font-size="20px" style="font-family:Arial" text-anchor="middle" x="960.0" y="155.0"> W</text><text fill="#A9A9A9" font-size="20px" style="font-family:Arial" text-anchor="middle" x="960.0" y="207.5">SW</text><text fill="#A9A9A9" font-size="20px" style="font-family:Arial" text-anchor="middle" x="960.0" y="260.0"> S</text><text fill="#A9A9A9" font-size="20px" style="font-family:Arial" text-anchor="middle" x="960.0" y="312.5">SO</text><text fill="#A9A9A9" font-size="20px" style="font-family:Arial" text-anchor="middle" x="960.0" y="365.0"> O</text><text fill="#A9A9A9" font-size="20px" style="font-family:Arial" text-anchor="middle" x="960.0" y="417.5">NO</text><text fill="#A9A9A9" font-size="20px" style="font-family:Arial" text-anchor="middle" x="960.0" y="470.0"> N</text><text fill="#A9A9A9" font-size="17px" style="font-family:Arial" text-anchor="start" x="75" y="487">9</text><text fill="#A9A9A9" font-size="17px" style="font-family:Arial" text-anchor="start" x="104" y="487">10</text><text fill="#A9A9A9" font-size="17px" style="font-family:Arial" text-anchor="start" x="139" y="487">11</text><text fill="#A9A9A9" font-size="17px" style="font-family:Arial" text-anchor="start" x="171" y="487">12</text><text fill="#A9A9A9" font-size="17px" style="font-family:Arial" text-anchor="start" x="205" y="487">13</text><text fill="#A9A9A9" font-size="17px" style="font-family:Arial" text-anchor="start" x="238" y="487">14</text><text fill="#A9A9A9" font-size="17px" style="font-family:Arial" text-anchor="start" x="272" y="487">15</text><text fill="#A9A9A9" font-size="17px" style="font-family:Arial" text-anchor="start" x="306" y="487">16</text><text fill="#A9A9A9" font-size="17px" style="font-family:Arial" text-anchor="start" x="339" y="487">17</text><text fill="#A9A9A9" font-size="17px" style="font-family:Arial" text-anchor="start" x="373" y="487">18</text><text fill="#A9A9A9" font-size="17px" style="font-family:Arial" text-anchor="start" x="406" y="487">19</text><text fill="#A9A9A9" font-size="17px" style="font-family:Arial" text-anchor="start" x="440" y="487">20</text><text fill="#A9A9A9" font-size="17px" style="font-family:Arial" text-anchor="start" x="475" y="487">21</text><text fill="#A9A9A9" font-size="17px" style="font-family:Arial" text-anchor="start" x="507" y="487">22</text><text fill="#A9A9A9" font-size="17px" style="font-family:Arial" text-anchor="start" x="541" y="487">23</text><text fill="#A9A9A9" font-size="17px" style="font-family:Arial" text-anchor="start" x="579" y="487">0</text><text fill="#A9A9A9" font-size="17px" style="font-family:Arial" text-anchor="start" x="614" y="487">1</text><text fill="#A9A9A9" font-size="17px" style="font-family:Arial" text-anchor="start" x="646" y="487">2</text><text fill="#A9A9A9" font-size="17px" style="font-family:Arial" text-anchor="start" x="680" y="487">3</text><text fill="#A9A9A9" font-size="17px" style="font-family:Arial" text-anchor="start" x="713" y="487">4</text><text fill="#A9A9A9" font-size="17px" style="font-family:Arial" text-anchor="start" x="747" y="487">5</text><text fill="#A9A9A9" font-size="17px" style="font-family:Arial" text-anchor="start" x="781" y="487">6</text><text fill="#A9A9A9" font-size="17px" style="font-family:Arial" text-anchor="start" x="814" y="487">7</text><text fill="#A9A9A9" font-size="17px" style="font-family:Arial" text-anchor="start" x="848" y="487">8</text><text fill="#A9A9A9" font-size="17px" style="font-family:Arial" text-anchor="start" x="881" y="487">9</text><text fill="#A9A9A9" font-size="17px" style="font-family:Arial" text-anchor="start" x="910" y="487">10</text><line stroke="#FFA500" x1="80" x2="920" y1="302.5" y2="302.5" /><line stroke="#FFA500" x1="80" x2="920" y1="197.5" y2="197.5" /><circle cx="84.37733333333334" cy="159" fill="#56a64b" r="2" /><circle cx="90.15466666666667" cy="156" fill="#56a64b" r="2" /><circle cx="95.92266666666667" cy="162" fill="#56a64b" r="2" /><circle cx="101.69066666666667" cy="161" fill="#56a64b" r="2" /><circle cx="107.468" cy="159" fill="#56a64b" r="2" /><circle cx="113.236" cy="159" fill="#56a64b" r="2" /><circle cx="119.01333333333334" cy="159" fill="#56a64b" r="2" /><circle cx="124.78133333333334" cy="159" fill="#56a64b" r="2" /><circle cx="130.55866666666668" cy="162" fill="#56a64b" r="2" /><circle cx="136.32666666666665" cy="157" fill="#56a64b" r="2" /><circle cx="142.09466666666668" cy="164" fill="#56a64b" r="2" /><circle cx="147.872" cy="162" fill="#56a64b" r="2" /><circle cx="153.64" cy="166" fill="#56a64b" r="2" /><circle cx="159.41733333333335" cy="161" fill="#56a64b" r="2" /><circle cx="165.18533333333335" cy="164" fill="#56a64b" r="2" /><circle cx="170.95333333333335" cy="167" fill="#56a64b" r="2" /><circle cx="176.73066666666668" cy="166" fill="#56a64b" r="2" /><circle cx="182.49866666666668" cy="162" fill="#56a64b" r="2" /><circle cx="188.276" cy="162" fill="#56a64b" r="2" /><circle cx="194.044" cy="159" fill="#56a64b" r="2" /><circle cx="199.82133333333334" cy="157" fill="#56a64b" r="2" /><circle cx="199.99866666666668" cy="157" fill="#56a64b" r="2" /><circle cx="205.58933333333334" cy="157" fill="#56a64b" r="2" /><circle cx="211.35733333333334" cy="162" fill="#56a64b" r="2" /><circle cx="217.13466666666667" cy="159" fill="#56a64b" r="2" /><circle cx="222.90266666666668" cy="154" fill="#56a64b" r="2" /><circle cx="228.68" cy="162" fill="#56a64b" r="2" /><circle cx="234.448" cy="157" fill="#56a64b" r="2" /><circle cx="240.216" cy="159" fill="#56a64b" r="2" /><circle cx="245.99333333333334" cy="157" fill="#56a64b" r="2" /><circle cx="251.76133333333334" cy="161" fill="#56a64b" r="2" /><circle cx="257.5386666666667" cy="162" fill="#56a64b" r="2" /><circle cx="263.3066666666667" cy="159" fill="#56a64b" r="2" /><circle cx="269.196" cy="159" fill="#56a64b" r="2" /><circle cx="274.852" cy="159" fill="#56a64b" r="2" /><circle cx="280.62" cy="154" fill="#56a64b" r="2" /><circle cx="286.39733333333334" cy="157" fill="#56a64b" r="2" /><circle cx="292.16533333333336" cy="156" fill="#56a64b" r="2" /><circle cx="297.9426666666667" cy="156" fill="#56a64b" r="2" /><circle cx="303.7106666666667" cy="156" fill="#56a64b" r="2" /><circle cx="309.4786666666667" cy="157" fill="#56a64b" r="2" /><circle cx="315.25600000000003" cy="159" fill="#56a64b" r="2" /><circle cx="321.024" cy="159" fill="#56a64b" r="2" /><circle cx="326.80133333333333" cy="162" fill="#56a64b" r="2" /><circle cx="332.56933333333336" cy="164" fill="#56a64b" r="2" /><circle cx="338.3466666666667" cy="169" fill="#56a64b" r="2" /><circle cx="344.11466666666666" cy="171" fill="#56a64b" r="2" /><circle cx="349.8826666666667" cy="159" fill="#56a64b" r="2" /><circle cx="355.66" cy="171" fill="#56a64b" r="2" /><circle cx="361.428" cy="166" fill="#56a64b" r="2" /><circle cx="367.2053333333334" cy="164" fill="#56a64b" r="2" /><circle cx="372.97333333333336" cy="167" fill="#56a64b" r="2" /><circle cx="378.74133333333333" cy="159" fill="#56a64b" r="2" /><circle cx="384.5186666666667" cy="162" fill="#56a64b" r="2" /><circle cx="390.2866666666667" cy="162" fill="#56a64b" r="2" /><circle cx="396.064" cy="162" fill="#56a64b" r="2" /><circle cx="401.83200000000005" cy="164" fill="#56a64b" r="2" /><circle cx="407.6" cy="162" fill="#56a64b" r="2" /><circle cx="413.37733333333335" cy="162" fill="#56a64b" r="2" /><circle cx="419.1453333333334" cy="164" fill="#56a64b" r="2" /><circle cx="424.9226666666667" cy="164" fill="#56a64b" r="2" /><circle cx="430.6906666666667" cy="166" fill="#56a64b" r="2" /><circle cx="436.4586666666667" cy="169" fill="#56a64b" r="2" /><circle cx="442.23600000000005" cy="169" fill="#56a64b" r="2" /><circle cx="448.06933333333336" cy="172" fill="#56a64b" r="2" /><circle cx="453.78133333333335" cy="171" fill="#56a64b" r="2" /><circle cx="459.5493333333334" cy="169" fill="#56a64b" r="2" /><circle cx="465.3266666666667" cy="172" fill="#56a64b" r="2" /><circle cx="471.0946666666667" cy="166" fill="#56a64b" r="2" /><circle cx="476.8626666666667" cy="171" fill="#56a64b" r="2" /><circle cx="482.64000000000004" cy="169" fill="#56a64b" r="2" /><circle cx="488.408" cy="167" fill="#56a64b" r="2" /><circle cx="494.2413333333334" cy="169" fill="#56a64b" r="2" /><circle cx="499.9533333333334" cy="172" fill="#56a64b" r="2" /><circle cx="505.72133333333335" cy="174" fill="#56a64b" r="2" /><circle cx="511.4986666666667" cy="172" fill="#56a64b" r="2" /><circle cx="517.2666666666667" cy="174" fill="#56a64b" r="2" /><circle cx="523.0440000000001" cy="171" fill="#56a64b" r="2" /><circle cx="528.812" cy="176" fill="#56a64b" r="2" /><circle cx="534.58" cy="174" fill="#56a64b" r="2" /><circle cx="540.3573333333334" cy="176" fill="#56a64b" r="2" /><circle cx="546.1253333333334" cy="174" fill="#56a64b" r="2" /><circle cx="551.9026666666667" cy="174" fill="#56a64b" r="2" /><circle cx="557.6706666666666" cy="174" fill="#56a64b" r="2" /><circle cx="563.4386666666667" cy="182" fill="#56a64b" r="2" /><circle cx="569.2160000000001" cy="176" fill="#56a64b" r="2" /><circle cx="574.984" cy="177" fill="#56a64b" r="2" /><circle cx="580.7613333333334" cy="176" fill="#56a64b" r="2" /><circle cx="586.5293333333334" cy="177" fill="#56a64b" r="2" /><circle cx="592.2973333333334" cy="180" fill="#56a64b" r="2" /><circle cx="598.0746666666668" cy="180" fill="#56a64b" r="2" /><circle cx="603.8426666666667" cy="179" fill="#56a64b" r="2" /><circle cx="609.62" cy="179" fill="#56a64b" r="2" /><circle cx="615.388" cy="180" fill="#56a64b" r="2" /><circle cx="621.1560000000001" cy="182" fill="#56a64b" r="2" /><circle cx="626.9986666666667" cy="177" fill="#56a64b" r="2" /><circle cx="632.7013333333334" cy="180" fill="#56a64b" r="2" /><circle cx="638.4786666666668" cy="179" fill="#56a64b" r="2" /><circle cx="644.2466666666667" cy="180" fill="#56a64b" r="2" /><circle cx="650.0146666666667" cy="177" fill="#56a64b" r="2" /><circle cx="655.792" cy="179" fill="#56a64b" r="2" /><circle cx="661.5600000000001" cy="179" fill="#56a64b" r="2" /><circle cx="667.3373333333334" cy="177" fill="#56a64b" r="2" /><circle cx="673.1053333333334" cy="179" fill="#56a64b" r="2" /><circle cx="678.8826666666668" cy="179" fill="#56a64b" r="2" /><circle cx="684.6506666666667" cy="174" fill="#56a64b" r="2" /><circle cx="690.4186666666667" cy="179" fill="#56a64b" r="2" /><circle cx="696.2520000000001" cy="176" fill="#56a64b" r="2" /><circle cx="701.964" cy="179" fill="#56a64b" r="2" /><circle cx="707.7413333333334" cy="177" fill="#56a64b" r="2" /><circle cx="713.5093333333334" cy="177" fill="#56a64b" r="2" /><circle cx="719.2773333333333" cy="174" fill="#56a64b" r="2" /><circle cx="725.0546666666668" cy="177" fill="#56a64b" r="2" /><circle cx="730.8226666666667" cy="172" fill="#56a64b" r="2" /><circle cx="736.6" cy="171" fill="#56a64b" r="2" /><circle cx="742.368" cy="169" fill="#56a64b" r="2" /><circle cx="748.1360000000001" cy="171" fill="#56a64b" r="2" /><circle cx="753.9133333333334" cy="167" fill="#56a64b" r="2" /><circle cx="759.6813333333334" cy="167" fill="#56a64b" r="2" /><circle cx="765.4493333333334" cy="166" fill="#56a64b" r="2" /><circle cx="771.2266666666667" cy="166" fill="#56a64b" r="2" /><circle cx="776.9946666666667" cy="164" fill="#56a64b" r="2" /><circle cx="782.772" cy="162" fill="#56a64b" r="2" /><circle cx="788.5400000000001" cy="162" fill="#56a64b" r="2" /><circle cx="794.3080000000001" cy="161" fill="#56a64b" r="2" /><circle cx="800.0853333333334" cy="159" fill="#56a64b" r="2" /><circle cx="805.8533333333334" cy="159" fill="#56a64b" r="2" /><circle cx="811.6306666666667" cy="164" fill="#56a64b" r="2" /><circle cx="817.3986666666667" cy="162" fill="#56a64b" r="2" /><circle cx="823.1666666666667" cy="161" fill="#56a64b" r="2" /><circle cx="828.9440000000001" cy="159" fill="#56a64b" r="2" /><circle cx="834.7120000000001" cy="159" fill="#56a64b" r="2" /><circle cx="840.4893333333334" cy="157" fill="#56a64b" r="2" /><circle cx="846.2573333333333" cy="157" fill="#56a64b" r="2" /><circle cx="852.0253333333334" cy="156" fill="#56a64b" r="2" /><circle cx="857.8026666666667" cy="156" fill="#56a64b" r="2" /><circle cx="863.5706666666667" cy="157" fill="#56a64b" r="2" /><circle cx="869.3480000000001" cy="149" fill="#56a64b" r="2" /><circle cx="875.1160000000001" cy="149" fill="#56a64b" r="2" /><circle cx="880.884" cy="152" fill="#56a64b" r="2" /><circle cx="886.6613333333333" cy="152" fill="#56a64b" r="2" /><line stroke="#56a64b" stroke-width="4" x1="84.37733333333334" x2="90.15466666666667" y1="159" y2="156" /><line stroke="#56a64b" stroke-width="4" x1="90.15466666666667" x2="95.92266666666667" y1="156" y2="162" /><line stroke="#56a64b" stroke-width="4" x1="95.92266666666667" x2="101.69066666666667" y1="162" y2="161" /><line stroke="#56a64b" stroke-width="4" x1="101.69066666666667" x2="107.468" y1="161" y2="159" /><line stroke="#56a64b" stroke-width="4" x1="107.468" x2="113.236" y1="159" y2="159" /><line stroke="#56a64b" stroke-width="4" x1="113.236" x2="119.01333333333334" y1="159" y2="159" /><line stroke="#56a64b" stroke-width="4" x1="119.01333333333334" x2="124.78133333333334" y1="159" y2="159" /><line stroke="#56a64b" stroke-width="4" x1="124.78133333333334" x2="130.55866666666668" y1="159" y2="162" /><line stroke="#56a64b" stroke-width="4" x1="130.55866666666668" x2="136.32666666666665" y1="162" y2="157" /><line stroke="#56a64b" stroke-width="4" x1="136.32666666666665" x2="142.09466666666668" y1="157" y2="164" /><line stroke="#56a64b" stroke-width="4" x1="142.09466666666668" x2="147.872" y1="164" y2="162" /><line stroke="#56a64b" stroke-width="4" x1="147.872" x2="153.64" y1="162" y2="166" /><line stroke="#56a64b" stroke-width="4" x1="153.64" x2="159.41733333333335" y1="166" y2="161" /><line stroke="#56a64b" stroke-width="4" x1="159.41733333333335" x2="165.18533333333335" y1="161" y2="164" /><line stroke="#56a64b" stroke-width="4" x1="165.18533333333335" x2="170.95333333333335" y1="164" y2="167" /><line stroke="#56a64b" stroke-width="4" x1="170.95333333333335" x2="176.73066666666668" y1="167" y2="166" /><line stroke="#56a64b" stroke-width="4" x1="176.73066666666668" x2="182.49866666666668" y1="166" y2="162" /><line stroke="#56a64b" stroke-width="4" x1="182.49866666666668" x2="188.276" y1="162" y2="162" /><line stroke="#56a64b" stroke-width="4" x1="188.276" x2="194.044" y1="162" y2="159" /><line stroke="#56a64b" stroke-width="4" x1="194.044" x2="199.82133333333334" y1="159" y2="157" /><line stroke="#56a64b" stroke-width="4" x1="199.82133333333334" x2="199.99866666666668" y1="157" y2="157" /><line stroke="#56a64b" stroke-width="4" x1="199.99866666666668" x2="205.58933333333334" y1="157" y2="157" /><line stroke="#56a64b" stroke-width="4" x1="205.58933333333334" x2="211.35733333333334" y1="157" y2="162" /><line stroke="#56a64b" stroke-width="4" x1="211.35733333333334" x2="217.13466666666667" y1="162" y2="159" /><line stroke="#56a64b" stroke-width="4" x1="217.13466666666667" x2="222.90266666666668" y1="159" y2="154" /><line stroke="#56a64b" stroke-width="4" x1="222.90266666666668" x2="228.68" y1="154" y2="162" /><line stroke="#56a64b" stroke-width="4" x1="228.68" x2="234.448" y1="162" y2="157" /><line stroke="#56a64b" stroke-width="4" x1="234.448" x2="240.216" y1="157" y2="159" /><line stroke="#56a64b" stroke-width="4" x1="240.216" x2="245.99333333333334" y1="159" y2="157" /><line stroke="#56a64b" stroke-width="4" x1="245.99333333333334" x2="251.76133333333334" y1="157" y2="161" /><line stroke="#56a64b" stroke-width="4" x1="251.76133333333334" x2="257.5386666666667" y1="161" y2="162" /><line stroke="#56a64b" stroke-width="4" x1="257.5386666666667" x2="263.3066666666667" y1="162" y2="159" /><line stroke="#56a64b" stroke-width="4" x1="263.3066666666667" x2="269.196" y1="159" y2="159" /><line stroke="#56a64b" stroke-width="4" x1="269.196" x2="274.852" y1="159" y2="159" /><line stroke="#56a64b" stroke-width="4" x1="274.852" x2="280.62" y1="159" y2="154" /><line stroke="#56a64b" stroke-width="4" x1="280.62" x2="286.39733333333334" y1="154" y2="157" /><line stroke="#56a64b" stroke-width="4" x1="286.39733333333334" x2="292.16533333333336" y1="157" y2="156" /><line stroke="#56a64b" stroke-width="4" x1="292.16533333333336" x2="297.9426666666667" y1="156" y2="156" /><line stroke="#56a64b" stroke-width="4" x1="297.9426666666667" x2="303.7106666666667" y1="156" y2="156" /><line stroke="#56a64b" stroke-width="4" x1="303.7106666666667" x2="309.4786666666667" y1="156" y2="157" /><line stroke="#56a64b" stroke-width="4" x1="309.4786666666667" x2="315.25600000000003" y1="157" y2="159" /><line stroke="#56a64b" stroke-width="4" x1="315.25600000000003" x2="321.024" y1="159" y2="159" /><line stroke="#56a64b" stroke-width="4" x1="321.024" x2="326.80133333333333" y1="159" y2="162" /><line stroke="#56a64b" stroke-width="4" x1="326.80133333333333" x2="332.56933333333336" y1="162" y2="164" /><line stroke="#56a64b" stroke-width="4" x1="332.56933333333336" x2="338.3466666666667" y1="164" y2="169" /><line stroke="#56a64b" stroke-width="4" x1="338.3466666666667" x2="344.11466666666666" y1="169" y2="171" /><line stroke="#56a64b" stroke-width="4" x1="344.11466666666666" x2="349.8826666666667" y1="171" y2="159" /><line stroke="#56a64b" stroke-width="4" x1="349.8826666666667" x2="355.66" y1="159" y2="171" /><line stroke="#56a64b" stroke-width="4" x1="355.66" x2="361.428" y1="171" y2="166" /><line stroke="#56a64b" stroke-width="4" x1="361.428" x2="367.2053333333334" y1="166" y2="164" /><line stroke="#56a64b" stroke-width="4" x1="367.2053333333334" x2="372.97333333333336" y1="164" y2="167" /><line stroke="#56a64b" stroke-width="4" x1="372.97333333333336" x2="378.74133333333333" y1="167" y2="159" /><line stroke="#56a64b" stroke-width="4" x1="378.74133333333333" x2="384.5186666666667" y1="159" y2="162" /><line stroke="#56a64b" stroke-width="4" x1="384.5186666666667" x2="390.2866666666667" y1="162" y2="162" /><line stroke="#56a64b" stroke-width="4" x1="390.2866666666667" x2="396.064" y1="162" y2="162" /><line stroke="#56a64b" stroke-width="4" x1="396.064" x2="401.83200000000005" y1="162" y2="164" /><line stroke="#56a64b" stroke-width="4" x1="401.83200000000005" x2="407.6" y1="164" y2="162" /><line stroke="#56a64b" stroke-width="4" x1="407.6" x2="413.37733333333335" y1="162" y2="162" /><line stroke="#56a64b" stroke-width="4" x1="413.37733333333335" x2="419.1453333333334" y1="162" y2="164" /><line stroke="#56a64b" stroke-width="4" x1="419.1453333333334" x2="424.9226666666667" y1="164" y2="164" /><line stroke="#56a64b" stroke-width="4" x1="424.9226666666667" x2="430.6906666666667" y1="164" y2="166" /><line stroke="#56a64b" stroke-width="4" x1="430.6906666666667" x2="436.4586666666667" y1="166" y2="169" /><line stroke="#56a64b" stroke-width="4" x1="436.4586666666667" x2="442.23600000000005" y1="169" y2="169" /><line stroke="#56a64b" stroke-width="4" x1="442.23600000000005" x2="448.06933333333336" y1="169" y2="172" /><line stroke="#56a64b" stroke-width="4" x1="448.06933333333336" x2="453.78133333333335" y1="172" y2="171" /><line stroke="#56a64b" stroke-width="4" x1="453.78133333333335" x2="459.5493333333334" y1="171" y2="169" /><line stroke="#56a64b" stroke-width="4" x1="459.5493333333334" x2="465.3266666666667" y1="169" y2="172" /><line stroke="#56a64b" stroke-width="4" x1="465.3266666666667" x2="471.0946666666667" y1="172" y2="166" /><line stroke="#56a64b" stroke-width="4" x1="471.0946666666667" x2="476.8626666666667" y1="166" y2="171" /><line stroke="#56a64b" stroke-width="4" x1="476.8626666666667" x2="482.64000000000004" y1="171" y2="169" /><line stroke="#56a64b" stroke-width="4" x1="482.64000000000004" x2="488.408" y1="169" y2="167" /><line stroke="#56a64b" stroke-width="4" x1="488.408" x2="494.2413333333334" y1="167" y2="169" /><line stroke="#56a64b" stroke-width="4" x1="494.2413333333334" x2="499.9533333333334" y1="169" y2="172" /><line stroke="#56a64b" stroke-width="4" x1="499.9533333333334" x2="505.72133333333335" y1="172" y2="174" /><line stroke="#56a64b" stroke-width="4" x1="505.72133333333335" x2="511.4986666666667" y1="174" y2="172" /><line stroke="#56a64b" stroke-width="4" x1="511.4986666666667" x2="517.2666666666667" y1="172" y2="174" /><line stroke="#56a64b" stroke-width="4" x1="517.2666666666667" x2="523.0440000000001" y1="174" y2="171" /><line stroke="#56a64b" stroke-width="4" x1="523.0440000000001" x2="528.812" y1="171" y2="176" /><line stroke="#56a64b" stroke-width="4" x1="528.812" x2="534.58" y1="176" y2="174" /><line stroke="#56a64b" stroke-width="4" x1="534.58" x2="540.3573333333334" y1="174" y2="176" /><line stroke="#56a64b" stroke-width="4" x1="540.3573333333334" x2="546.1253333333334" y1="176" y2="174" /><line stroke="#56a64b" stroke-width="4" x1="546.1253333333334" x2="551.9026666666667" y1="174" y2="174" /><line stroke="#56a64b" stroke-width="4" x1="551.9026666666667" x2="557.6706666666666" y1="174" y2="174" /><line stroke="#56a64b" stroke-width="4" x1="557.6706666666666" x2="563.4386666666667" y1="174" y2="182" /><line stroke="#56a64b" stroke-width="4" x1="563.4386666666667" x2="569.2160000000001" y1="182" y2="176" /><line stroke="#56a64b" stroke-width="4" x1="569.2160000000001" x2="574.984" y1="176" y2="177" /><line stroke="#56a64b" stroke-width="4" x1="574.984" x2="580.7613333333334" y1="177" y2="176" /><line stroke="#56a64b" stroke-width="4" x1="580.7613333333334" x2="586.5293333333334" y1="176" y2="177" /><line stroke="#56a64b" stroke-width="4" x1="586.5293333333334" x2="592.2973333333334" y1="177" y2="180" /><line stroke="#56a64b" stroke-width="4" x1="592.2973333333334" x2="598.0746666666668" y1="180" y2="180" /><line stroke="#56a64b" stroke-width="4" x1="598.0746666666668" x2="603.8426666666667" y1="180" y2="179" /><line stroke="#56a64b" stroke-width="4" x1="603.8426666666667" x2="609.62" y1="179" y2="179" /><line stroke="#56a64b" stroke-width="4" x1="609.62" x2="615.388" y1="179" y2="180" /><line stroke="#56a64b" stroke-width="4" x1="615.388" x2="621.1560000000001" y1="180" y2="182" /><line stroke="#56a64b" stroke-width="4" x1="621.1560000000001" x2="626.9986666666667" y1="182" y2="177" /><line stroke="#56a64b" stroke-width="4" x1="626.9986666666667" x2="632.7013333333334" y1="177" y2="180" /><line stroke="#56a64b" stroke-width="4" x1="632.7013333333334" x2="638.4786666666668" y1="180" y2="179" /><line stroke="#56a64b" stroke-width="4" x1="638.4786666666668" x2="644.2466666666667" y1="179" y2="180" /><line stroke="#56a64b" stroke-width="4" x1="644.2466666666667" x2="650.0146666666667" y1="180" y2="177" /><line stroke="#56a64b" stroke-width="4" x1="650.0146666666667" x2="655.792" y1="177" y2="179" /><line stroke="#56a64b" stroke-width="4" x1="655.792" x2="661.5600000000001" y1="179" y2="179" /><line stroke="#56a64b" stroke-width="4" x1="661.5600000000001" x2="667.3373333333334" y1="179" y2="177" /><line stroke="#56a64b" stroke-width="4" x1="667.3373333333334" x2="673.1053333333334" y1="177" y2="179" /><line stroke="#56a64b" stroke-width="4" x1="673.1053333333334" x2="678.8826666666668" y1="179" y2="179" /><line stroke="#56a64b" stroke-width="4" x1="678.8826666666668" x2="684.6506666666667" y1="179" y2="174" /><line stroke="#56a64b" stroke-width="4" x1="684.6506666666667" x2="690.4186666666667" y1="174" y2="179" /><line stroke="#56a64b" stroke-width="4" x1="690.4186666666667" x2="696.2520000000001" y1="179" y2="176" /><line stroke="#56a64b" stroke-width="4" x1="696.2520000000001" x2="701.964" y1="176" y2="179" /><line stroke="#56a64b" stroke-width="4" x1="701.964" x2="707.7413333333334" y1="179" y2="177" /><line stroke="#56a64b" stroke-width="4" x1="707.7413333333334" x2="713.5093333333334" y1="177" y2="177" /><line stroke="#56a64b" stroke-width="4" x1="713.5093333333334" x2="719.2773333333333" y1="177" y2="174" /><line stroke="#56a64b" stroke-width="4" x1="719.2773333333333" x2="725.0546666666668" y1="174" y2="177" /><line stroke="#56a64b" stroke-width="4" x1="725.0546666666668" x2="730.8226666666667" y1="177" y2="172" /><line stroke="#56a64b" stroke-width="4" x1="730.8226666666667" x2="736.6" y1="172" y2="171" /><line stroke="#56a64b" stroke-width="4" x1="736.6" x2="742.368" y1="171" y2="169" /><line stroke="#56a64b" stroke-width="4" x1="742.368" x2="748.1360000000001" y1="169" y2="171" /><line stroke="#56a64b" stroke-width="4" x1="748.1360000000001" x2="753.9133333333334" y1="171" y2="167" /><line stroke="#56a64b" stroke-width="4" x1="753.9133333333334" x2="759.6813333333334" y1="167" y2="167" /><line stroke="#56a64b" stroke-width="4" x1="759.6813333333334" x2="765.4493333333334" y1="167" y2="166" /><line stroke="#56a64b" stroke-width="4" x1="765.4493333333334" x2="771.2266666666667" y1="166" y2="166" /><line stroke="#56a64b" stroke-width="4" x1="771.2266666666667" x2="776.9946666666667" y1="166" y2="164" /><line stroke="#56a64b" stroke-width="4" x1="776.9946666666667" x2="782.772" y1="164" y2="162" /><line stroke="#56a64b" stroke-width="4" x1="782.772" x2="788.5400000000001" y1="162" y2="162" /><line stroke="#56a64b" stroke-width="4" x1="788.5400000000001" x2="794.3080000000001" y1="162" y2="161" /><line stroke="#56a64b" stroke-width="4" x1="794.3080000000001" x2="800.0853333333334" y1="161" y2="159" /><line stroke="#56a64b" stroke-width="4" x1="800.0853333333334" x2="805.8533333333334" y1="159" y2="159" /><line stroke="#56a64b" stroke-width="4" x1="805.8533333333334" x2="811.6306666666667" y1="159" y2="164" /><line stroke="#56a64b" stroke-width="4" x1="811.6306666666667" x2="817.3986666666667" y1="164" y2="162" /><line stroke="#56a64b" stroke-width="4" x1="817.3986666666667" x2="823.1666666666667" y1="162" y2="161" /><line stroke="#56a64b" stroke-width="4" x1="823.1666666666667" x2="828.9440000000001" y1="161" y2="159" /><line stroke="#56a64b" stroke-width="4" x1="828.9440000000001" x2="834.7120000000001" y1="159" y2="159" /><line stroke="#56a64b" stroke-width="4" x1="834.7120000000001" x2="840.4893333333334" y1="159" y2="157" /><line stroke="#56a64b" stroke-width="4" x1="840.4893333333334" x2="846.2573333333333" y1="157" y2="157" /><line stroke="#56a64b" stroke-width="4" x1="846.2573333333333" x2="852.0253333333334" y1="157" y2="156" /><line stroke="#56a64b" stroke-width="4" x1="852.0253333333334" x2="857.8026666666667" y1="156" y2="156" /><line stroke="#56a64b" stroke-width="4" x1="857.8026666666667" x2="863.5706666666667" y1="156" y2="157" /><line stroke="#56a64b" stroke-width="4" x1="863.5706666666667" x2="869.3480000000001" y1="157" y2="149" /><line stroke="#56a64b" stroke-width="4" x1="869.3480000000001" x2="875.1160000000001" y1="149" y2="149" /><line stroke="#56a64b" stroke-width="4" x1="875.1160000000001" x2="880.884" y1="149" y2="152" /><line stroke="#56a64b" stroke-width="4" x1="880.884" x2="886.6613333333333" y1="152" y2="152" /><text fill="#A9A9A9" font-size="20px" style="font-family:Arial" text-anchor="end" x="920" y="30.0">2023-12-26 09:02:19</text><text fill="#A9A9A9" font-size="24px" style="font-family:Arial" text-anchor="middle" x="500.0" y="28.0">Windrichtung</text><text fill="#A9A9A9" font-size="24px" style="font-family:Arial" text-anchor="start" x="80" y="28.0">Südhang</text></svg>