<?xml version="1.0" encoding="utf-8" ?>
<svg baseProfile="full" height="500" version="1.1" width="1000" xmlns="http://www.w3.org/2000/svg" xmlns:ev="http://www.w3.org/2001/xml-events" xmlns:xlink="http://www.w3.org/1999/xlink"><defs /><rect fill="#000000" height="500" width="1000" x="0" y="0" /><line stroke="#808080" x1="80" x2="920" y1="40.0" y2="40.0" /><line stroke="#808080" x1="80" x2="920" y1="92.5" y2="92.5" /><line stroke="#808080" x1="80" x2="920" y1="145.0" y2="145.0" /><line stroke="#808080" x1="80" x2="920" y1="197.5" y2="197.5" /><line stroke="#808080" x1="80" x2="920" y1="250.0" y2="250.0" /><line stroke="#808080" x1="80" x2="920" y1="302.5" y2="302.5" /><line stroke="#808080" x1="80" x2="920" y1="355.0" y2="355.0" /><line stroke="#808080" x1="80" x2="920" y1="407.5" y2="407.5" /><line stroke="#808080" x1="80" x2="920" y1="460.0" y2="460.0" /><line stroke="#808080" x1="80.0" x2="80.0" y1="40" y2="460" /><line stroke="#808080" x1="113.6" x2="113.6" y1="40" y2="460" /><line stroke="#808080" x1="147.2" x2="147.2" y1="40" y2="460" /><line stroke="#808080" x1="180.79999999999998" x2="180.79999999999998" y1="40" y2="460" /><line stroke="#808080" x1="214.39999999999998" x2="214.39999999999998" y1="40" y2="460" /><line stroke="#808080" x1="247.99999999999997" x2="247.99999999999997" y1="40" y2="460" /><line stroke="#808080" x1="281.59999999999997" x2="281.59999999999997" y1="40" y2="460" /><line stroke="#808080" x1="315.19999999999993" x2="315.19999999999993" y1="40" y2="460" /><line stroke="#808080" x1="348.79999999999995" x2="348.79999999999995" y1="40" y2="460" /><line stroke="#808080" x1="382.4" x2="382.4" y1="40" y2="460" /><line stroke="#808080" x1="415.99999999999994" x2="415.99999999999994" y1="40" y2="460" /><line stroke="#808080" x1="449.5999999999999" x2="449.5999999999999" y1="40" y2="460" /><line stroke="#808080" x1="483.19999999999993" x2="483.19999999999993" y1="40" y2="460" /><line stroke="#808080" x1="516.8" x2="516.8" y1="40" y2="460" /><line stroke="#808080" x1="550.3999999999999" x2="550.3999999999999" y1="40" y2="460" /><line stroke="#808080" x1="583.9999999999999" x2="583.9999999999999" y1="40" y2="460" /><line stroke="#808080" x1="617.5999999999999" x2="617.5999999999999" y1="40" y2="460" /><line stroke="#808080" x1="651.1999999999999" x2="651.1999999999999" y1="40" y2="460" /><line stroke="#808080" x1="684.8" x2="684.8" y1="40" y2="460" /><line stroke="#808080" x1="718.3999999999999" x2="718.3999999999999" y1="40" y2="460" /><line stroke="#808080" x1="751.9999999999999" x2="751.9999999999999" y1="40" y2="460" /><line stroke="#808080" x1="785.5999999999999" x2="785.5999999999999" y1="40" y2="460" /><line stroke="#808080" x1="819.1999999999998" x2="819.1999999999998" y1="40" y2="460" /><line stroke="#808080" x1="852.7999999999998" x2="852.7999999999998" y1="40" y2="460" /><line stroke="#808080" x1="886.3999999999999" x2="886.3999999999999" y1="40" y2="460" /><line stroke="#808080" x1="919.9999999999999" x2="919.9999999999999" y1="40" y2="460" /><text fill="#A9A9A9" font-size="20px" style="font-family:Arial" text-anchor="middle" x="40.0" y="50.0"> N</text><text fill="#A9A9A9" font-size="20px" style="font-family:Arial" text-anchor="middle" x="40.0" y="102.5">NW</text><text fill="#A9A9A9" font-size="20px" style="font-family:Arial" text-anchor="middle" x="40.0" y="155.0"> W</text><text fill="#A9A9A9" font-size="20px" style="font-family:Arial" text-anchor="middle" x="40.0" y="207.5">SW</text><text fill="#A9A9A9" font-size="20px" style="font-family:Arial" text-anchor="middle" x="40.0" y="260.0"> S</text><text fill="#A9A9A9" font-size="20px" style="font-family:Arial" text-anchor="middle" x="40.0" y="312.5">SO</text><text fill="#A9A9A9" font-size="20px" style="font-family:Arial" text-anchor="middle" x="40.0" y="365.0"> O</text><text fill="#A9A9A9" font-size="20px" style="font-family:Arial" text-anchor="middle" x="40.0" y="417.5">NO</text><text fill="#A9A9A9" font-size="20px" style="font-family:Arial" text-anchor="middle" x="40.0" y="470.0"> N</text><text fill="#A9A9A9" font-size="20px" style="font-family:Arial" text-anchor="middle" x="960.0" y="50.0"> N</text><text fill="#A9A9A9" font-size="20px" style="font-family:Arial" text-anchor="middle" x="960.0" y="102.5">NW</text><text fill="#A9A9A9" font-size="20px" style="font-family:Arial" text-anchor="middle" x="960.0" y="155.0"> W</text><text fill="#A9A9A9" font-size="20px" style="font-family:Arial" text-anchor="middle" x="960.0" y="207.5">SW</text><text fill="#A9A9A9" font-size="20px" style="font-family:Arial" text-anchor="middle" x="960.0" y="260.0"> S</text><text fill="#A9A9A9" font-size="20px" style="font-family:Arial" text-anchor="middle" x="960.0" y="312.5">SO</text><text fill="#A9A9A9" font-size="20px" style="font-family:Arial" text-anchor="middle" x="960.0" y="365.0"> O</text><text fill="#A9A9A9" font-size="20px" style="font-family:Arial" text-anchor="middle" x="960.0" y="417.5">NO</text><text fill="#A9A9A9" font-size="20px" style="font-family:Arial" text-anchor="middle" x="960.0" y="470.0"> N</text><text fill="#A9A9A9" font-size="17px" style="font-family:Arial" text-anchor="start" x="71" y="487">15</text><text fill="#A9A9A9" font-size="17px" style="font-family:Arial" text-anchor="start" x="104" y="487">16</text><text fill="#A9A9A9" font-size="17px" style="font-family:Arial" text-anchor="start" x="138" y="487">17</text><text fill="#A9A9A9" font-size="17px" style="font-family:Arial" text-anchor="start" x="171" y="487">18</text><text fill="#A9A9A9" font-size="17px" style="font-family:Arial" text-anchor="start" x="205" y="487">19</text><text fill="#A9A9A9" font-size="17px" style="font-family:Arial" text-anchor="start" x="238" y="487">20</text><text fill="#A9A9A9" font-size="17px" style="font-family:Arial" text-anchor="start" x="273" y="487">21</text><text fill="#A9A9A9" font-size="17px" style="font-family:Arial" text-anchor="start" x="306" y="487">22</text><text fill="#A9A9A9" font-size="17px" style="font-family:Arial" text-anchor="start" x="339" y="487">23</text><text fill="#A9A9A9" font-size="17px" style="font-family:Arial" text-anchor="start" x="377" y="487">0</text><text fill="#A9A9A9" font-size="17px" style="font-family:Arial" text-anchor="start" x="412" y="487">1</text><text fill="#A9A9A9" font-size="17px" style="font-family:Arial" text-anchor="start" x="445" y="487">2</text><text fill="#A9A9A9" font-size="17px" style="font-family:Arial" text-anchor="start" x="478" y="487">3</text><text fill="#A9A9A9" font-size="17px" style="font-family:Arial" text-anchor="start" x="512" y="487">4</text><text fill="#A9A9A9" font-size="17px" style="font-family:Arial" text-anchor="start" x="545" y="487">5</text><text fill="#A9A9A9" font-size="17px" style="font-family:Arial" text-anchor="start" x="579" y="487">6</text><text fill="#A9A9A9" font-size="17px" style="font-family:Arial" text-anchor="start" x="613" y="487">7</text><text fill="#A9A9A9" font-size="17px" style="font-family:Arial" text-anchor="start" x="646" y="487">8</text><text fill="#A9A9A9" font-size="17px" style="font-family:Arial" text-anchor="start" x="680" y="487">9</text><text fill="#A9A9A9" font-size="17px" style="font-family:Arial" text-anchor="start" x="709" y="487">10</text><text fill="#A9A9A9" font-size="17px" style="font-family:Arial" text-anchor="start" x="744" y="487">11</text><text fill="#A9A9A9" font-size="17px" style="font-family:Arial" text-anchor="start" x="776" y="487">12</text><text fill="#A9A9A9" font-size="17px" style="font-family:Arial" text-anchor="start" x="810" y="487">13</text><text fill="#A9A9A9" font-size="17px" style="font-family:Arial" text-anchor="start" x="843" y="487">14</text><text fill="#A9A9A9" font-size="17px" style="font-family:Arial" text-anchor="start" x="877" y="487">15</text><text fill="#A9A9A9" font-size="17px" style="font-family:Arial" text-anchor="start" x="910" y="487">16</text><line stroke="#FFA500" x1="80" x2="920" y1="302.5" y2="302.5" /><line stroke="#FFA500" x1="80" x2="920" y1="197.5" y2="197.5" /><circle cx="96.34266666666667" cy="156" fill="#56a64b" r="2" /><circle cx="102.11066666666667" cy="156" fill="#56a64b" r="2" /><circle cx="107.87866666666667" cy="157" fill="#56a64b" r="2" /><circle cx="113.656" cy="159" fill="#56a64b" r="2" /><circle cx="119.424" cy="159" fill="#56a64b" r="2" /><circle cx="125.20133333333334" cy="162" fill="#56a64b" r="2" /><circle cx="130.96933333333334" cy="164" fill="#56a64b" r="2" /><circle cx="136.74666666666667" cy="169" fill="#56a64b" r="2" /><circle cx="142.51466666666667" cy="171" fill="#56a64b" r="2" /><circle cx="148.28266666666667" cy="159" fill="#56a64b" r="2" /><circle cx="154.06" cy="171" fill="#56a64b" r="2" /><circle cx="159.828" cy="166" fill="#56a64b" r="2" /><circle cx="165.60533333333333" cy="164" fill="#56a64b" r="2" /><circle cx="171.37333333333333" cy="167" fill="#56a64b" r="2" /><circle cx="177.14133333333334" cy="159" fill="#56a64b" r="2" /><circle cx="182.9186666666667" cy="162" fill="#56a64b" r="2" /><circle cx="188.68666666666667" cy="162" fill="#56a64b" r="2" /><circle cx="194.464" cy="162" fill="#56a64b" r="2" /><circle cx="200.23200000000003" cy="164" fill="#56a64b" r="2" /><circle cx="206.0" cy="162" fill="#56a64b" r="2" /><circle cx="211.77733333333333" cy="162" fill="#56a64b" r="2" /><circle cx="217.54533333333333" cy="164" fill="#56a64b" r="2" /><circle cx="223.3226666666667" cy="164" fill="#56a64b" r="2" /><circle cx="229.0906666666667" cy="166" fill="#56a64b" r="2" /><circle cx="234.8586666666667" cy="169" fill="#56a64b" r="2" /><circle cx="240.63600000000002" cy="169" fill="#56a64b" r="2" /><circle cx="246.46933333333334" cy="172" fill="#56a64b" r="2" /><circle cx="252.18133333333336" cy="171" fill="#56a64b" r="2" /><circle cx="257.94933333333336" cy="169" fill="#56a64b" r="2" /><circle cx="263.7266666666667" cy="172" fill="#56a64b" r="2" /><circle cx="269.4946666666667" cy="166" fill="#56a64b" r="2" /><circle cx="275.2626666666667" cy="171" fill="#56a64b" r="2" /><circle cx="281.04" cy="169" fill="#56a64b" r="2" /><circle cx="286.808" cy="167" fill="#56a64b" r="2" /><circle cx="292.64133333333336" cy="169" fill="#56a64b" r="2" /><circle cx="298.35333333333335" cy="172" fill="#56a64b" r="2" /><circle cx="304.1213333333334" cy="174" fill="#56a64b" r="2" /><circle cx="309.8986666666667" cy="172" fill="#56a64b" r="2" /><circle cx="315.6666666666667" cy="174" fill="#56a64b" r="2" /><circle cx="321.444" cy="171" fill="#56a64b" r="2" /><circle cx="327.212" cy="176" fill="#56a64b" r="2" /><circle cx="332.98" cy="174" fill="#56a64b" r="2" /><circle cx="338.75733333333335" cy="176" fill="#56a64b" r="2" /><circle cx="344.5253333333334" cy="174" fill="#56a64b" r="2" /><circle cx="350.3026666666667" cy="174" fill="#56a64b" r="2" /><circle cx="356.0706666666667" cy="174" fill="#56a64b" r="2" /><circle cx="361.8386666666667" cy="182" fill="#56a64b" r="2" /><circle cx="367.61600000000004" cy="176" fill="#56a64b" r="2" /><circle cx="373.384" cy="177" fill="#56a64b" r="2" /><circle cx="379.16133333333335" cy="176" fill="#56a64b" r="2" /><circle cx="384.9293333333334" cy="177" fill="#56a64b" r="2" /><circle cx="390.69733333333335" cy="180" fill="#56a64b" r="2" /><circle cx="396.4746666666667" cy="180" fill="#56a64b" r="2" /><circle cx="402.2426666666667" cy="179" fill="#56a64b" r="2" /><circle cx="408.02000000000004" cy="179" fill="#56a64b" r="2" /><circle cx="413.788" cy="180" fill="#56a64b" r="2" /><circle cx="419.55600000000004" cy="182" fill="#56a64b" r="2" /><circle cx="425.3986666666667" cy="177" fill="#56a64b" r="2" /><circle cx="431.10133333333334" cy="180" fill="#56a64b" r="2" /><circle cx="436.8786666666667" cy="179" fill="#56a64b" r="2" /><circle cx="442.6466666666667" cy="180" fill="#56a64b" r="2" /><circle cx="448.4146666666667" cy="177" fill="#56a64b" r="2" /><circle cx="454.192" cy="179" fill="#56a64b" r="2" /><circle cx="459.96000000000004" cy="179" fill="#56a64b" r="2" /><circle cx="465.73733333333337" cy="177" fill="#56a64b" r="2" /><circle cx="471.50533333333334" cy="179" fill="#56a64b" r="2" /><circle cx="477.2826666666667" cy="179" fill="#56a64b" r="2" /><circle cx="483.0506666666667" cy="174" fill="#56a64b" r="2" /><circle cx="488.8186666666667" cy="179" fill="#56a64b" r="2" /><circle cx="494.65200000000004" cy="176" fill="#56a64b" r="2" /><circle cx="500.36400000000003" cy="179" fill="#56a64b" r="2" /><circle cx="506.14133333333336" cy="177" fill="#56a64b" r="2" /><circle cx="511.9093333333334" cy="177" fill="#56a64b" r="2" /><circle cx="517.6773333333333" cy="174" fill="#56a64b" r="2" /><circle cx="523.4546666666668" cy="177" fill="#56a64b" r="2" /><circle cx="529.2226666666668" cy="172" fill="#56a64b" r="2" /><circle cx="535.0" cy="171" fill="#56a64b" r="2" /><circle cx="540.768" cy="169" fill="#56a64b" r="2" /><circle cx="546.5360000000001" cy="171" fill="#56a64b" r="2" /><circle cx="552.3133333333334" cy="167" fill="#56a64b" r="2" /><circle cx="558.0813333333333" cy="167" fill="#56a64b" r="2" /><circle cx="563.8493333333333" cy="166" fill="#56a64b" r="2" /><circle cx="569.6266666666668" cy="166" fill="#56a64b" r="2" /><circle cx="575.3946666666667" cy="164" fill="#56a64b" r="2" /><circle cx="581.172" cy="162" fill="#56a64b" r="2" /><circle cx="586.94" cy="162" fill="#56a64b" r="2" /><circle cx="592.7080000000001" cy="161" fill="#56a64b" r="2" /><circle cx="598.4853333333334" cy="159" fill="#56a64b" r="2" /><circle cx="604.2533333333333" cy="159" fill="#56a64b" r="2" /><circle cx="610.0306666666667" cy="164" fill="#56a64b" r="2" /><circle cx="615.7986666666667" cy="162" fill="#56a64b" r="2" /><circle cx="621.5666666666667" cy="161" fill="#56a64b" r="2" /><circle cx="627.344" cy="159" fill="#56a64b" r="2" /><circle cx="633.1120000000001" cy="159" fill="#56a64b" r="2" /><circle cx="638.8893333333334" cy="157" fill="#56a64b" r="2" /><circle cx="644.6573333333333" cy="157" fill="#56a64b" r="2" /><circle cx="650.4253333333334" cy="156" fill="#56a64b" r="2" /><circle cx="656.2026666666667" cy="156" fill="#56a64b" r="2" /><circle cx="661.9706666666667" cy="157" fill="#56a64b" r="2" /><circle cx="667.748" cy="149" fill="#56a64b" r="2" /><circle cx="673.5160000000001" cy="149" fill="#56a64b" r="2" /><circle cx="679.2840000000001" cy="152" fill="#56a64b" r="2" /><circle cx="685.0613333333334" cy="152" fill="#56a64b" r="2" /><circle cx="690.8293333333334" cy="146" fill="#56a64b" r="2" /><circle cx="696.6066666666667" cy="144" fill="#56a64b" r="2" /><circle cx="702.3746666666667" cy="144" fill="#56a64b" r="2" /><circle cx="708.1426666666667" cy="136" fill="#56a64b" r="2" /><circle cx="713.9200000000001" cy="141" fill="#56a64b" r="2" /><circle cx="719.6880000000001" cy="146" fill="#56a64b" r="2" /><circle cx="725.4653333333334" cy="146" fill="#56a64b" r="2" /><circle cx="731.2333333333333" cy="141" fill="#56a64b" r="2" /><circle cx="737.0106666666667" cy="138" fill="#56a64b" r="2" /><circle cx="742.7786666666667" cy="141" fill="#56a64b" r="2" /><circle cx="748.5466666666667" cy="138" fill="#56a64b" r="2" /><circle cx="754.3240000000001" cy="134" fill="#56a64b" r="2" /><circle cx="760.0920000000001" cy="141" fill="#56a64b" r="2" /><circle cx="765.8693333333334" cy="138" fill="#56a64b" r="2" /><circle cx="771.6373333333333" cy="133" fill="#56a64b" r="2" /><circle cx="777.4053333333334" cy="138" fill="#56a64b" r="2" /><circle cx="783.1826666666667" cy="141" fill="#56a64b" r="2" /><circle cx="788.9506666666667" cy="149" fill="#56a64b" r="2" /><circle cx="794.7280000000001" cy="148" fill="#56a64b" r="2" /><circle cx="800.4960000000001" cy="154" fill="#56a64b" r="2" /><circle cx="806.264" cy="146" fill="#56a64b" r="2" /><circle cx="812.0413333333333" cy="138" fill="#56a64b" r="2" /><circle cx="817.8093333333334" cy="139" fill="#56a64b" r="2" /><circle cx="823.5866666666667" cy="138" fill="#56a64b" r="2" /><circle cx="829.3546666666667" cy="151" fill="#56a64b" r="2" /><circle cx="835.1226666666668" cy="159" fill="#56a64b" r="2" /><circle cx="840.9000000000001" cy="152" fill="#56a64b" r="2" /><circle cx="846.6680000000001" cy="164" fill="#56a64b" r="2" /><circle cx="852.4453333333335" cy="164" fill="#56a64b" r="2" /><circle cx="858.2133333333334" cy="159" fill="#56a64b" r="2" /><circle cx="863.9813333333334" cy="156" fill="#56a64b" r="2" /><circle cx="869.7586666666667" cy="157" fill="#56a64b" r="2" /><circle cx="875.5266666666668" cy="161" fill="#56a64b" r="2" /><circle cx="881.2946666666668" cy="161" fill="#56a64b" r="2" /><circle cx="887.0720000000001" cy="148" fill="#56a64b" r="2" /><circle cx="892.84" cy="144" fill="#56a64b" r="2" /><circle cx="898.6173333333334" cy="139" fill="#56a64b" r="2" /><line stroke="#56a64b" stroke-width="4" x1="96.34266666666667" x2="102.11066666666667" y1="156" y2="156" /><line stroke="#56a64b" stroke-width="4" x1="102.11066666666667" x2="107.87866666666667" y1="156" y2="157" /><line stroke="#56a64b" stroke-width="4" x1="107.87866666666667" x2="113.656" y1="157" y2="159" /><line stroke="#56a64b" stroke-width="4" x1="113.656" x2="119.424" y1="159" y2="159" /><line stroke="#56a64b" stroke-width="4" x1="119.424" x2="125.20133333333334" y1="159" y2="162" /><line stroke="#56a64b" stroke-width="4" x1="125.20133333333334" x2="130.96933333333334" y1="162" y2="164" /><line stroke="#56a64b" stroke-width="4" x1="130.96933333333334" x2="136.74666666666667" y1="164" y2="169" /><line stroke="#56a64b" stroke-width="4" x1="136.74666666666667" x2="142.51466666666667" y1="169" y2="171" /><line stroke="#56a64b" stroke-width="4" x1="142.51466666666667" x2="148.28266666666667" y1="171" y2="159" /><line stroke="#56a64b" stroke-width="4" x1="148.28266666666667" x2="154.06" y1="159" y2="171" /><line stroke="#56a64b" stroke-width="4" x1="154.06" x2="159.828" y1="171" y2="166" /><line stroke="#56a64b" stroke-width="4" x1="159.828" x2="165.60533333333333" y1="166" y2="164" /><line stroke="#56a64b" stroke-width="4" x1="165.60533333333333" x2="171.37333333333333" y1="164" y2="167" /><line stroke="#56a64b" stroke-width="4" x1="171.37333333333333" x2="177.14133333333334" y1="167" y2="159" /><line stroke="#56a64b" stroke-width="4" x1="177.14133333333334" x2="182.9186666666667" y1="159" y2="162" /><line stroke="#56a64b" stroke-width="4" x1="182.9186666666667" x2="188.68666666666667" y1="162" y2="162" /><line stroke="#56a64b" stroke-width="4" x1="188.68666666666667" x2="194.464" y1="162" y2="162" /><line stroke="#56a64b" stroke-width="4" x1="194.464" x2="200.23200000000003" y1="162" y2="164" /><line stroke="#56a64b" stroke-width="4" x1="200.23200000000003" x2="206.0" y1="164" y2="162" /><line stroke="#56a64b" stroke-width="4" x1="206.0" x2="211.77733333333333" y1="162" y2="162" /><line stroke="#56a64b" stroke-width="4" x1="211.77733333333333" x2="217.54533333333333" y1="162" y2="164" /><line stroke="#56a64b" stroke-width="4" x1="217.54533333333333" x2="223.3226666666667" y1="164" y2="164" /><line stroke="#56a64b" stroke-width="4" x1="223.3226666666667" x2="229.0906666666667" y1="164" y2="166" /><line stroke="#56a64b" stroke-width="4" x1="229.0906666666667" x2="234.8586666666667" y1="166" y2="169" /><line stroke="#56a64b" stroke-width="4" x1="234.8586666666667" x2="240.63600000000002" y1="169" y2="169" /><line stroke="#56a64b" stroke-width="4" x1="240.63600000000002" x2="246.46933333333334" y1="169" y2="172" /><line stroke="#56a64b" stroke-width="4" x1="246.46933333333334" x2="252.18133333333336" y1="172" y2="171" /><line stroke="#56a64b" stroke-width="4" x1="252.18133333333336" x2="257.94933333333336" y1="171" y2="169" /><line stroke="#56a64b" stroke-width="4" x1="257.94933333333336" x2="263.7266666666667" y1="169" y2="172" /><line stroke="#56a64b" stroke-width="4" x1="263.7266666666667" x2="269.4946666666667" y1="172" y2="166" /><line stroke="#56a64b" stroke-width="4" x1="269.4946666666667" x2="275.2626666666667" y1="166" y2="171" /><line stroke="#56a64b" stroke-width="4" x1="275.2626666666667" x2="281.04" y1="171" y2="169" /><line stroke="#56a64b" stroke-width="4" x1="281.04" x2="286.808" y1="169" y2="167" /><line stroke="#56a64b" stroke-width="4" x1="286.808" x2="292.64133333333336" y1="167" y2="169" /><line stroke="#56a64b" stroke-width="4" x1="292.64133333333336" x2="298.35333333333335" y1="169" y2="172" /><line stroke="#56a64b" stroke-width="4" x1="298.35333333333335" x2="304.1213333333334" y1="172" y2="174" /><line stroke="#56a64b" stroke-width="4" x1="304.1213333333334" x2="309.8986666666667" y1="174" y2="172" /><line stroke="#56a64b" stroke-width="4" x1="309.8986666666667" x2="315.6666666666667" y1="172" y2="174" /><line stroke="#56a64b" stroke-width="4" x1="315.6666666666667" x2="321.444" y1="174" y2="171" /><line stroke="#56a64b" stroke-width="4" x1="321.444" x2="327.212" y1="171" y2="176" /><line stroke="#56a64b" stroke-width="4" x1="327.212" x2="332.98" y1="176" y2="174" /><line stroke="#56a64b" stroke-width="4" x1="332.98" x2="338.75733333333335" y1="174" y2="176" /><line stroke="#56a64b" stroke-width="4" x1="338.75733333333335" x2="344.5253333333334" y1="176" y2="174" /><line stroke="#56a64b" stroke-width="4" x1="344.5253333333334" x2="350.3026666666667" y1="174" y2="174" /><line stroke="#56a64b" stroke-width="4" x1="350.3026666666667" x2="356.0706666666667" y1="174" y2="174" /><line stroke="#56a64b" stroke-width="4" x1="356.0706666666667" x2="361.8386666666667" y1="174" y2="182" /><line stroke="#56a64b" stroke-width="4" x1="361.8386666666667" x2="367.61600000000004" y1="182" y2="176" /><line stroke="#56a64b" stroke-width="4" x1="367.61600000000004" x2="373.384" y1="176" y2="177" /><line stroke="#56a64b" stroke-width="4" x1="373.384" x2="379.16133333333335" y1="177" y2="176" /><line stroke="#56a64b" stroke-width="4" x1="379.16133333333335" x2="384.9293333333334" y1="176" y2="177" /><line stroke="#56a64b" stroke-width="4" x1="384.9293333333334" x2="390.69733333333335" y1="177" y2="180" /><line stroke="#56a64b" stroke-width="4" x1="390.69733333333335" x2="396.4746666666667" y1="180" y2="180" /><line stroke="#56a64b" stroke-width="4" x1="396.4746666666667" x2="402.2426666666667" y1="180" y2="179" /><line stroke="#56a64b" stroke-width="4" x1="402.2426666666667" x2="408.02000000000004" y1="179" y2="179" /><line stroke="#56a64b" stroke-width="4" x1="408.02000000000004" x2="413.788" y1="179" y2="180" /><line stroke="#56a64b" stroke-width="4" x1="413.788" x2="419.55600000000004" y1="180" y2="182" /><line stroke="#56a64b" stroke-width="4" x1="419.55600000000004" x2="425.3986666666667" y1="182" y2="177" /><line stroke="#56a64b" stroke-width="4" x1="425.3986666666667" x2="431.10133333333334" y1="177" y2="180" /><line stroke="#56a64b" stroke-width="4" x1="431.10133333333334" x2="436.8786666666667" y1="180" y2="179" /><line stroke="#56a64b" stroke-width="4" x1="436.8786666666667" x2="442.6466666666667" y1="179" y2="180" /><line stroke="#56a64b" stroke-width="4" x1="442.6466666666667" x2="448.4146666666667" y1="180" y2="177" /><line stroke="#56a64b" stroke-width="4" x1="448.4146666666667" x2="454.192" y1="177" y2="179" /><line stroke="#56a64b" stroke-width="4" x1="454.192" x2="459.96000000000004" y1="179" y2="179" /><line stroke="#56a64b" stroke-width="4" x1="459.96000000000004" x2="465.73733333333337" y1="179" y2="177" /><line stroke="#56a64b" stroke-width="4" x1="465.73733333333337" x2="471.50533333333334" y1="177" y2="179" /><line stroke="#56a64b" stroke-width="4" x1="471.50533333333334" x2="477.2826666666667" y1="179" y2="179" /><line stroke="#56a64b" stroke-width="4" x1="477.2826666666667" x2="483.0506666666667" y1="179" y2="174" /><line stroke="#56a64b" stroke-width="4" x1="483.0506666666667" x2="488.8186666666667" y1="174" y2="179" /><line stroke="#56a64b" stroke-width="4" x1="488.8186666666667" x2="494.65200000000004" y1="179" y2="176" /><line stroke="#56a64b" stroke-width="4" x1="494.65200000000004" x2="500.36400000000003" y1="176" y2="179" /><line stroke="#56a64b" stroke-width="4" x1="500.36400000000003" x2="506.14133333333336" y1="179" y2="177" /><line stroke="#56a64b" stroke-width="4" x1="506.14133333333336" x2="511.9093333333334" y1="177" y2="177" /><line stroke="#56a64b" stroke-width="4" x1="511.9093333333334" x2="517.6773333333333" y1="177" y2="174" /><line stroke="#56a64b" stroke-width="4" x1="517.6773333333333" x2="523.4546666666668" y1="174" y2="177" /><line stroke="#56a64b" stroke-width="4" x1="523.4546666666668" x2="529.2226666666668" y1="177" y2="172" /><line stroke="#56a64b" stroke-width="4" x1="529.2226666666668" x2="535.0" y1="172" y2="171" /><line stroke="#56a64b" stroke-width="4" x1="535.0" x2="540.768" y1="171" y2="169" /><line stroke="#56a64b" stroke-width="4" x1="540.768" x2="546.5360000000001" y1="169" y2="171" /><line stroke="#56a64b" stroke-width="4" x1="546.5360000000001" x2="552.3133333333334" y1="171" y2="167" /><line stroke="#56a64b" stroke-width="4" x1="552.3133333333334" x2="558.0813333333333" y1="167" y2="167" /><line stroke="#56a64b" stroke-width="4" x1="558.0813333333333" x2="563.8493333333333" y1="167" y2="166" /><line stroke="#56a64b" stroke-width="4" x1="563.8493333333333" x2="569.6266666666668" y1="166" y2="166" /><line stroke="#56a64b" stroke-width="4" x1="569.6266666666668" x2="575.3946666666667" y1="166" y2="164" /><line stroke="#56a64b" stroke-width="4" x1="575.3946666666667" x2="581.172" y1="164" y2="162" /><line stroke="#56a64b" stroke-width="4" x1="581.172" x2="586.94" y1="162" y2="162" /><line stroke="#56a64b" stroke-width="4" x1="586.94" x2="592.7080000000001" y1="162" y2="161" /><line stroke="#56a64b" stroke-width="4" x1="592.7080000000001" x2="598.4853333333334" y1="161" y2="159" /><line stroke="#56a64b" stroke-width="4" x1="598.4853333333334" x2="604.2533333333333" y1="159" y2="159" /><line stroke="#56a64b" stroke-width="4" x1="604.2533333333333" x2="610.0306666666667" y1="159" y2="164" /><line stroke="#56a64b" stroke-width="4" x1="610.0306666666667" x2="615.7986666666667" y1="164" y2="162" /><line stroke="#56a64b" stroke-width="4" x1="615.7986666666667" x2="621.5666666666667" y1="162" y2="161" /><line stroke="#56a64b" stroke-width="4" x1="621.5666666666667" x2="627.344" y1="161" y2="159" /><line stroke="#56a64b" stroke-width="4" x1="627.344" x2="633.1120000000001" y1="159" y2="159" /><line stroke="#56a64b" stroke-width="4" x1="633.1120000000001" x2="638.8893333333334" y1="159" y2="157" /><line stroke="#56a64b" stroke-width="4" x1="638.8893333333334" x2="644.6573333333333" y1="157" y2="157" /><line stroke="#56a64b" stroke-width="4" x1="644.6573333333333" x2="650.4253333333334" y1="157" y2="156" /><line stroke="#56a64b" stroke-width="4" x1="650.4253333333334" x2="656.2026666666667" y1="156" y2="156" /><line stroke="#56a64b" stroke-width="4" x1="656.2026666666667" x2="661.9706666666667" y1="156" y2="157" /><line stroke="#56a64b" stroke-width="4" x1="661.9706666666667" x2="667.748" y1="157" y2="149" /><line stroke="#56a64b" stroke-width="4" x1="667.748" x2="673.5160000000001" y1="149" y2="149" /><line stroke="#56a64b" stroke-width="4" x1="673.5160000000001" x2="679.2840000000001" y1="149" y2="152" /><line stroke="#56a64b" stroke-width="4" x1="679.2840000000001" x2="685.0613333333334" y1="152" y2="152" /><line stroke="#56a64b" stroke-width="4" x1="685.0613333333334" x2="690.8293333333334" y1="152" y2="146" /><line stroke="#56a64b" stroke-width="4" x1="690.8293333333334" x2="696.6066666666667" y1="146" y2="144" /><line stroke="#56a64b" stroke-width="4" x1="696.6066666666667" x2="702.3746666666667" y1="144" y2="144" /><line stroke="#56a64b" stroke-width="4" x1="702.3746666666667" x2="708.1426666666667" y1="144" y2="136" /><line stroke="#56a64b" stroke-width="4" x1="708.1426666666667" x2="713.9200000000001" y1="136" y2="141" /><line stroke="#56a64b" stroke-width="4" x1="713.9200000000001" x2="719.6880000000001" y1="141" y2="146" /><line stroke="#56a64b" stroke-width="4" x1="719.6880000000001" x2="725.4653333333334" y1="146" y2="146" /><line stroke="#56a64b" stroke-width="4" x1="725.4653333333334" x2="731.2333333333333" y1="146" y2="141" /><line stroke="#56a64b" stroke-width="4" x1="731.2333333333333" x2="737.0106666666667" y1="141" y2="138" /><line stroke="#56a64b" stroke-width="4" x1="737.0106666666667" x2="742.7786666666667" y1="138" y2="141" /><line stroke="#56a64b" stroke-width="4" x1="742.7786666666667" x2="748.5466666666667" y1="141" y2="138" /><line stroke="#56a64b" stroke-width="4" x1="748.5466666666667" x2="754.3240000000001" y1="138" y2="134" /><line stroke="#56a64b" stroke-width="4" x1="754.3240000000001" x2="760.0920000000001" y1="134" y2="141" /><line stroke="#56a64b" stroke-width="4" x1="760.0920000000001" x2="765.8693333333334" y1="141" y2="138" /><line stroke="#56a64b" stroke-width="4" x1="765.8693333333334" x2="771.6373333333333" y1="138" y2="133" /><line stroke="#56a64b" stroke-width="4" x1="771.6373333333333" x2="777.4053333333334" y1="133" y2="138" /><line stroke="#56a64b" stroke-width="4" x1="777.4053333333334" x2="783.1826666666667" y1="138" y2="141" /><line stroke="#56a64b" stroke-width="4" x1="783.1826666666667" x2="788.9506666666667" y1="141" y2="149" /><line stroke="#56a64b" stroke-width="4" x1="788.9506666666667" x2="794.7280000000001" y1="149" y2="148" /><line stroke="#56a64b" stroke-width="4" x1="794.7280000000001" x2="800.4960000000001" y1="148" y2="154" /><line stroke="#56a64b" stroke-width="4" x1="800.4960000000001" x2="806.264" y1="154" y2="146" /><line stroke="#56a64b" stroke-width="4" x1="806.264" x2="812.0413333333333" y1="146" y2="138" /><line stroke="#56a64b" stroke-width="4" x1="812.0413333333333" x2="817.8093333333334" y1="138" y2="139" /><line stroke="#56a64b" stroke-width="4" x1="817.8093333333334" x2="823.5866666666667" y1="139" y2="138" /><line stroke="#56a64b" stroke-width="4" x1="823.5866666666667" x2="829.3546666666667" y1="138" y2="151" /><line stroke="#56a64b" stroke-width="4" x1="829.3546666666667" x2="835.1226666666668" y1="151" y2="159" /><line stroke="#56a64b" stroke-width="4" x1="835.1226666666668" x2="840.9000000000001" y1="159" y2="152" /><line stroke="#56a64b" stroke-width="4" x1="840.9000000000001" x2="846.6680000000001" y1="152" y2="164" /><line stroke="#56a64b" stroke-width="4" x1="846.6680000000001" x2="852.4453333333335" y1="164" y2="164" /><line stroke="#56a64b" stroke-width="4" x1="852.4453333333335" x2="858.2133333333334" y1="164" y2="159" /><line stroke="#56a64b" stroke-width="4" x1="858.2133333333334" x2="863.9813333333334" y1="159" y2="156" /><line stroke="#56a64b" stroke-width="4" x1="863.9813333333334" x2="869.7586666666667" y1="156" y2="157" /><line stroke="#56a64b" stroke-width="4" x1="869.7586666666667" x2="875.5266666666668" y1="157" y2="161" /><line stroke="#56a64b" stroke-width="4" x1="875.5266666666668" x2="881.2946666666668" y1="161" y2="161" /><line stroke="#56a64b" stroke-width="4" x1="881.2946666666668" x2="887.0720000000001" y1="161" y2="148" /><line stroke="#56a64b" stroke-width="4" x1="887.0720000000001" x2="892.84" y1="148" y2="144" /><line stroke="#56a64b" stroke-width="4" x1="892.84" x2="898.6173333333334" y1="144" y2="139" /><text fill="#A9A9A9" font-size="20px" style="font-family:Arial" text-anchor="end" x="920" y="30.0">2023-12-26 15:21:55</text><text fill="#A9A9A9" font-size="24px" style="font-family:Arial" text-anchor="middle" x="500.0" y="28.0">Windrichtung</text><text fill="#A9A9A9" font-size="24px" style="font-family:Arial" text-anchor="start" x="80" y="28.0">Südhang</text></svg>