<?xml version="1.0" encoding="utf-8" ?>
<svg baseProfile="full" height="500" version="1.1" width="1000" xmlns="http://www.w3.org/2000/svg" xmlns:ev="http://www.w3.org/2001/xml-events" xmlns:xlink="http://www.w3.org/1999/xlink"><defs /><rect fill="#000000" height="500" width="1000" x="0" y="0" /><line stroke="#808080" x1="80" x2="920" y1="40.0" y2="40.0" /><line stroke="#808080" x1="80" x2="920" y1="92.5" y2="92.5" /><line stroke="#808080" x1="80" x2="920" y1="145.0" y2="145.0" /><line stroke="#808080" x1="80" x2="920" y1="197.5" y2="197.5" /><line stroke="#808080" x1="80" x2="920" y1="250.0" y2="250.0" /><line stroke="#808080" x1="80" x2="920" y1="302.5" y2="302.5" /><line stroke="#808080" x1="80" x2="920" y1="355.0" y2="355.0" /><line stroke="#808080" x1="80" x2="920" y1="407.5" y2="407.5" /><line stroke="#808080" x1="80" x2="920" y1="460.0" y2="460.0" /><line stroke="#808080" x1="80.0" x2="80.0" y1="40" y2="460" /><line stroke="#808080" x1="113.6" x2="113.6" y1="40" y2="460" /><line stroke="#808080" x1="147.2" x2="147.2" y1="40" y2="460" /><line stroke="#808080" x1="180.79999999999998" x2="180.79999999999998" y1="40" y2="460" /><line stroke="#808080" x1="214.39999999999998" x2="214.39999999999998" y1="40" y2="460" /><line stroke="#808080" x1="247.99999999999997" x2="247.99999999999997" y1="40" y2="460" /><line stroke="#808080" x1="281.59999999999997" x2="281.59999999999997" y1="40" y2="460" /><line stroke="#808080" x1="315.19999999999993" x2="315.19999999999993" y1="40" y2="460" /><line stroke="#808080" x1="348.79999999999995" x2="348.79999999999995" y1="40" y2="460" /><line stroke="#808080" x1="382.4" x2="382.4" y1="40" y2="460" /><line stroke="#808080" x1="415.99999999999994" x2="415.99999999999994" y1="40" y2="460" /><line stroke="#808080" x1="449.5999999999999" x2="449.5999999999999" y1="40" y2="460" /><line stroke="#808080" x1="483.19999999999993" x2="483.19999999999993" y1="40" y2="460" /><line stroke="#808080" x1="516.8" x2="516.8" y1="40" y2="460" /><line stroke="#808080" x1="550.3999999999999" x2="550.3999999999999" y1="40" y2="460" /><line stroke="#808080" x1="583.9999999999999" x2="583.9999999999999" y1="40" y2="460" /><line stroke="#808080" x1="617.5999999999999" x2="617.5999999999999" y1="40" y2="460" /><line stroke="#808080" x1="651.1999999999999" x2="651.1999999999999" y1="40" y2="460" /><line stroke="#808080" x1="684.8" x2="684.8" y1="40" y2="460" /><line stroke="#808080" x1="718.3999999999999" x2="718.3999999999999" y1="40" y2="460" /><line stroke="#808080" x1="751.9999999999999" x2="751.9999999999999" y1="40" y2="460" /><line stroke="#808080" x1="785.5999999999999" x2="785.5999999999999" y1="40" y2="460" /><line stroke="#808080" x1="819.1999999999998" x2="819.1999999999998" y1="40" y2="460" /><line stroke="#808080" x1="852.7999999999998" x2="852.7999999999998" y1="40" y2="460" /><line stroke="#808080" x1="886.3999999999999" x2="886.3999999999999" y1="40" y2="460" /><line stroke="#808080" x1="919.9999999999999" x2="919.9999999999999" y1="40" y2="460" /><text fill="#A9A9A9" font-size="20px" style="font-family:Arial" text-anchor="middle" x="40.0" y="50.0"> N</text><text fill="#A9A9A9" font-size="20px" style="font-family:Arial" text-anchor="middle" x="40.0" y="102.5">NW</text><text fill="#A9A9A9" font-size="20px" style="font-family:Arial" text-anchor="middle" x="40.0" y="155.0"> W</text><text fill="#A9A9A9" font-size="20px" style="font-family:Arial" text-anchor="middle" x="40.0" y="207.5">SW</text><text fill="#A9A9A9" font-size="20px" style="font-family:Arial" text-anchor="middle" x="40.0" y="260.0"> S</text><text fill="#A9A9A9" font-size="20px" style="font-family:Arial" text-anchor="middle" x="40.0" y="312.5">SO</text><text fill="#A9A9A9" font-size="20px" style="font-family:Arial" text-anchor="middle" x="40.0" y="365.0"> O</text><text fill="#A9A9A9" font-size="20px" style="font-family:Arial" text-anchor="middle" x="40.0" y="417.5">NO</text><text fill="#A9A9A9" font-size="20px" style="font-family:Arial" text-anchor="middle" x="40.0" y="470.0"> N</text><text fill="#A9A9A9" font-size="20px" style="font-family:Arial" text-anchor="middle" x="960.0" y="50.0"> N</text><text fill="#A9A9A9" font-size="20px" style="font-family:Arial" text-anchor="middle" x="960.0" y="102.5">NW</text><text fill="#A9A9A9" font-size="20px" style="font-family:Arial" text-anchor="middle" x="960.0" y="155.0"> W</text><text fill="#A9A9A9" font-size="20px" style="font-family:Arial" text-anchor="middle" x="960.0" y="207.5">SW</text><text fill="#A9A9A9" font-size="20px" style="font-family:Arial" text-anchor="middle" x="960.0" y="260.0"> S</text><text fill="#A9A9A9" font-size="20px" style="font-family:Arial" text-anchor="middle" x="960.0" y="312.5">SO</text><text fill="#A9A9A9" font-size="20px" style="font-family:Arial" text-anchor="middle" x="960.0" y="365.0"> O</text><text fill="#A9A9A9" font-size="20px" style="font-family:Arial" text-anchor="middle" x="960.0" y="417.5">NO</text><text fill="#A9A9A9" font-size="20px" style="font-family:Arial" text-anchor="middle" x="960.0" y="470.0"> N</text><text fill="#A9A9A9" font-size="17px" style="font-family:Arial" text-anchor="start" x="71" y="487">12</text><text fill="#A9A9A9" font-size="17px" style="font-family:Arial" text-anchor="start" x="104" y="487">13</text><text fill="#A9A9A9" font-size="17px" style="font-family:Arial" text-anchor="start" x="138" y="487">14</text><text fill="#A9A9A9" font-size="17px" style="font-family:Arial" text-anchor="start" x="171" y="487">15</text><text fill="#A9A9A9" font-size="17px" style="font-family:Arial" text-anchor="start" x="205" y="487">16</text><text fill="#A9A9A9" font-size="17px" style="font-family:Arial" text-anchor="start" x="238" y="487">17</text><text fill="#A9A9A9" font-size="17px" style="font-family:Arial" text-anchor="start" x="272" y="487">18</text><text fill="#A9A9A9" font-size="17px" style="font-family:Arial" text-anchor="start" x="306" y="487">19</text><text fill="#A9A9A9" font-size="17px" style="font-family:Arial" text-anchor="start" x="339" y="487">20</text><text fill="#A9A9A9" font-size="17px" style="font-family:Arial" text-anchor="start" x="374" y="487">21</text><text fill="#A9A9A9" font-size="17px" style="font-family:Arial" text-anchor="start" x="406" y="487">22</text><text fill="#A9A9A9" font-size="17px" style="font-family:Arial" text-anchor="start" x="440" y="487">23</text><text fill="#A9A9A9" font-size="17px" style="font-family:Arial" text-anchor="start" x="478" y="487">0</text><text fill="#A9A9A9" font-size="17px" style="font-family:Arial" text-anchor="start" x="513" y="487">1</text><text fill="#A9A9A9" font-size="17px" style="font-family:Arial" text-anchor="start" x="545" y="487">2</text><text fill="#A9A9A9" font-size="17px" style="font-family:Arial" text-anchor="start" x="579" y="487">3</text><text fill="#A9A9A9" font-size="17px" style="font-family:Arial" text-anchor="start" x="613" y="487">4</text><text fill="#A9A9A9" font-size="17px" style="font-family:Arial" text-anchor="start" x="646" y="487">5</text><text fill="#A9A9A9" font-size="17px" style="font-family:Arial" text-anchor="start" x="680" y="487">6</text><text fill="#A9A9A9" font-size="17px" style="font-family:Arial" text-anchor="start" x="713" y="487">7</text><text fill="#A9A9A9" font-size="17px" style="font-family:Arial" text-anchor="start" x="747" y="487">8</text><text fill="#A9A9A9" font-size="17px" style="font-family:Arial" text-anchor="start" x="781" y="487">9</text><text fill="#A9A9A9" font-size="17px" style="font-family:Arial" text-anchor="start" x="810" y="487">10</text><text fill="#A9A9A9" font-size="17px" style="font-family:Arial" text-anchor="start" x="845" y="487">11</text><text fill="#A9A9A9" font-size="17px" style="font-family:Arial" text-anchor="start" x="877" y="487">12</text><text fill="#A9A9A9" font-size="17px" style="font-family:Arial" text-anchor="start" x="910" y="487">13</text><line stroke="#FFA500" x1="80" x2="920" y1="302.5" y2="302.5" /><line stroke="#FFA500" x1="80" x2="920" y1="197.5" y2="197.5" /><circle cx="87.476" cy="162" fill="#56a64b" r="2" /><circle cx="93.244" cy="159" fill="#56a64b" r="2" /><circle cx="99.02133333333333" cy="157" fill="#56a64b" r="2" /><circle cx="99.19866666666667" cy="157" fill="#56a64b" r="2" /><circle cx="104.78933333333333" cy="157" fill="#56a64b" r="2" /><circle cx="110.55733333333333" cy="162" fill="#56a64b" r="2" /><circle cx="116.33466666666666" cy="159" fill="#56a64b" r="2" /><circle cx="122.10266666666666" cy="154" fill="#56a64b" r="2" /><circle cx="127.88" cy="162" fill="#56a64b" r="2" /><circle cx="133.648" cy="157" fill="#56a64b" r="2" /><circle cx="139.416" cy="159" fill="#56a64b" r="2" /><circle cx="145.19333333333333" cy="157" fill="#56a64b" r="2" /><circle cx="150.96133333333336" cy="161" fill="#56a64b" r="2" /><circle cx="156.7386666666667" cy="162" fill="#56a64b" r="2" /><circle cx="162.50666666666666" cy="159" fill="#56a64b" r="2" /><circle cx="168.39600000000002" cy="159" fill="#56a64b" r="2" /><circle cx="174.05200000000002" cy="159" fill="#56a64b" r="2" /><circle cx="179.82" cy="154" fill="#56a64b" r="2" /><circle cx="185.59733333333332" cy="157" fill="#56a64b" r="2" /><circle cx="191.36533333333335" cy="156" fill="#56a64b" r="2" /><circle cx="197.14266666666668" cy="156" fill="#56a64b" r="2" /><circle cx="202.91066666666666" cy="156" fill="#56a64b" r="2" /><circle cx="208.6786666666667" cy="157" fill="#56a64b" r="2" /><circle cx="214.45600000000002" cy="159" fill="#56a64b" r="2" /><circle cx="220.22400000000002" cy="159" fill="#56a64b" r="2" /><circle cx="226.00133333333335" cy="162" fill="#56a64b" r="2" /><circle cx="231.76933333333335" cy="164" fill="#56a64b" r="2" /><circle cx="237.54666666666668" cy="169" fill="#56a64b" r="2" /><circle cx="243.31466666666668" cy="171" fill="#56a64b" r="2" /><circle cx="249.08266666666668" cy="159" fill="#56a64b" r="2" /><circle cx="254.86" cy="171" fill="#56a64b" r="2" /><circle cx="260.62800000000004" cy="166" fill="#56a64b" r="2" /><circle cx="266.4053333333334" cy="164" fill="#56a64b" r="2" /><circle cx="272.17333333333335" cy="167" fill="#56a64b" r="2" /><circle cx="277.9413333333333" cy="159" fill="#56a64b" r="2" /><circle cx="283.71866666666665" cy="162" fill="#56a64b" r="2" /><circle cx="289.4866666666667" cy="162" fill="#56a64b" r="2" /><circle cx="295.264" cy="162" fill="#56a64b" r="2" /><circle cx="301.03200000000004" cy="164" fill="#56a64b" r="2" /><circle cx="306.8" cy="162" fill="#56a64b" r="2" /><circle cx="312.57733333333334" cy="162" fill="#56a64b" r="2" /><circle cx="318.3453333333333" cy="164" fill="#56a64b" r="2" /><circle cx="324.12266666666665" cy="164" fill="#56a64b" r="2" /><circle cx="329.8906666666667" cy="166" fill="#56a64b" r="2" /><circle cx="335.6586666666667" cy="169" fill="#56a64b" r="2" /><circle cx="341.43600000000004" cy="169" fill="#56a64b" r="2" /><circle cx="347.26933333333335" cy="172" fill="#56a64b" r="2" /><circle cx="352.98133333333334" cy="171" fill="#56a64b" r="2" /><circle cx="358.74933333333337" cy="169" fill="#56a64b" r="2" /><circle cx="364.5266666666667" cy="172" fill="#56a64b" r="2" /><circle cx="370.29466666666667" cy="166" fill="#56a64b" r="2" /><circle cx="376.0626666666667" cy="171" fill="#56a64b" r="2" /><circle cx="381.84000000000003" cy="169" fill="#56a64b" r="2" /><circle cx="387.608" cy="167" fill="#56a64b" r="2" /><circle cx="393.4413333333334" cy="169" fill="#56a64b" r="2" /><circle cx="399.15333333333336" cy="172" fill="#56a64b" r="2" /><circle cx="404.92133333333334" cy="174" fill="#56a64b" r="2" /><circle cx="410.69866666666667" cy="172" fill="#56a64b" r="2" /><circle cx="416.4666666666667" cy="174" fill="#56a64b" r="2" /><circle cx="422.244" cy="171" fill="#56a64b" r="2" /><circle cx="428.012" cy="176" fill="#56a64b" r="2" /><circle cx="433.78000000000003" cy="174" fill="#56a64b" r="2" /><circle cx="439.55733333333336" cy="176" fill="#56a64b" r="2" /><circle cx="445.3253333333334" cy="174" fill="#56a64b" r="2" /><circle cx="451.1026666666667" cy="174" fill="#56a64b" r="2" /><circle cx="456.8706666666667" cy="174" fill="#56a64b" r="2" /><circle cx="462.6386666666667" cy="182" fill="#56a64b" r="2" /><circle cx="468.41600000000005" cy="176" fill="#56a64b" r="2" /><circle cx="474.184" cy="177" fill="#56a64b" r="2" /><circle cx="479.96133333333336" cy="176" fill="#56a64b" r="2" /><circle cx="485.7293333333334" cy="177" fill="#56a64b" r="2" /><circle cx="491.49733333333336" cy="180" fill="#56a64b" r="2" /><circle cx="497.2746666666667" cy="180" fill="#56a64b" r="2" /><circle cx="503.0426666666667" cy="179" fill="#56a64b" r="2" /><circle cx="508.82000000000005" cy="179" fill="#56a64b" r="2" /><circle cx="514.588" cy="180" fill="#56a64b" r="2" /><circle cx="520.356" cy="182" fill="#56a64b" r="2" /><circle cx="526.1986666666667" cy="177" fill="#56a64b" r="2" /><circle cx="531.9013333333334" cy="180" fill="#56a64b" r="2" /><circle cx="537.6786666666667" cy="179" fill="#56a64b" r="2" /><circle cx="543.4466666666667" cy="180" fill="#56a64b" r="2" /><circle cx="549.2146666666667" cy="177" fill="#56a64b" r="2" /><circle cx="554.992" cy="179" fill="#56a64b" r="2" /><circle cx="560.76" cy="179" fill="#56a64b" r="2" /><circle cx="566.5373333333334" cy="177" fill="#56a64b" r="2" /><circle cx="572.3053333333334" cy="179" fill="#56a64b" r="2" /><circle cx="578.0826666666667" cy="179" fill="#56a64b" r="2" /><circle cx="583.8506666666667" cy="174" fill="#56a64b" r="2" /><circle cx="589.6186666666667" cy="179" fill="#56a64b" r="2" /><circle cx="595.452" cy="176" fill="#56a64b" r="2" /><circle cx="601.164" cy="179" fill="#56a64b" r="2" /><circle cx="606.9413333333334" cy="177" fill="#56a64b" r="2" /><circle cx="612.7093333333333" cy="177" fill="#56a64b" r="2" /><circle cx="618.4773333333334" cy="174" fill="#56a64b" r="2" /><circle cx="624.2546666666667" cy="177" fill="#56a64b" r="2" /><circle cx="630.0226666666667" cy="172" fill="#56a64b" r="2" /><circle cx="635.8000000000001" cy="171" fill="#56a64b" r="2" /><circle cx="641.5680000000001" cy="169" fill="#56a64b" r="2" /><circle cx="647.336" cy="171" fill="#56a64b" r="2" /><circle cx="653.1133333333333" cy="167" fill="#56a64b" r="2" /><circle cx="658.8813333333334" cy="167" fill="#56a64b" r="2" /><circle cx="664.6493333333334" cy="166" fill="#56a64b" r="2" /><circle cx="670.4266666666667" cy="166" fill="#56a64b" r="2" /><circle cx="676.1946666666668" cy="164" fill="#56a64b" r="2" /><circle cx="681.9720000000001" cy="162" fill="#56a64b" r="2" /><circle cx="687.74" cy="162" fill="#56a64b" r="2" /><circle cx="693.508" cy="161" fill="#56a64b" r="2" /><circle cx="699.2853333333334" cy="159" fill="#56a64b" r="2" /><circle cx="705.0533333333334" cy="159" fill="#56a64b" r="2" /><circle cx="710.8306666666667" cy="164" fill="#56a64b" r="2" /><circle cx="716.5986666666668" cy="162" fill="#56a64b" r="2" /><circle cx="722.3666666666667" cy="161" fill="#56a64b" r="2" /><circle cx="728.144" cy="159" fill="#56a64b" r="2" /><circle cx="733.912" cy="159" fill="#56a64b" r="2" /><circle cx="739.6893333333334" cy="157" fill="#56a64b" r="2" /><circle cx="745.4573333333334" cy="157" fill="#56a64b" r="2" /><circle cx="751.2253333333334" cy="156" fill="#56a64b" r="2" /><circle cx="757.0026666666668" cy="156" fill="#56a64b" r="2" /><circle cx="762.7706666666667" cy="157" fill="#56a64b" r="2" /><circle cx="768.548" cy="149" fill="#56a64b" r="2" /><circle cx="774.316" cy="149" fill="#56a64b" r="2" /><circle cx="780.0840000000001" cy="152" fill="#56a64b" r="2" /><circle cx="785.8613333333334" cy="152" fill="#56a64b" r="2" /><circle cx="791.6293333333334" cy="146" fill="#56a64b" r="2" /><circle cx="797.4066666666668" cy="144" fill="#56a64b" r="2" /><circle cx="803.1746666666668" cy="144" fill="#56a64b" r="2" /><circle cx="808.9426666666667" cy="136" fill="#56a64b" r="2" /><circle cx="814.72" cy="141" fill="#56a64b" r="2" /><circle cx="820.488" cy="146" fill="#56a64b" r="2" /><circle cx="826.2653333333334" cy="146" fill="#56a64b" r="2" /><circle cx="832.0333333333334" cy="141" fill="#56a64b" r="2" /><circle cx="837.8106666666667" cy="138" fill="#56a64b" r="2" /><circle cx="843.5786666666668" cy="141" fill="#56a64b" r="2" /><circle cx="849.3466666666667" cy="138" fill="#56a64b" r="2" /><circle cx="855.124" cy="134" fill="#56a64b" r="2" /><circle cx="860.892" cy="141" fill="#56a64b" r="2" /><circle cx="866.6693333333334" cy="138" fill="#56a64b" r="2" /><circle cx="872.4373333333334" cy="133" fill="#56a64b" r="2" /><circle cx="878.2053333333334" cy="138" fill="#56a64b" r="2" /><circle cx="883.9826666666668" cy="141" fill="#56a64b" r="2" /><circle cx="889.7506666666667" cy="149" fill="#56a64b" r="2" /><line stroke="#56a64b" stroke-width="4" x1="87.476" x2="93.244" y1="162" y2="159" /><line stroke="#56a64b" stroke-width="4" x1="93.244" x2="99.02133333333333" y1="159" y2="157" /><line stroke="#56a64b" stroke-width="4" x1="99.02133333333333" x2="99.19866666666667" y1="157" y2="157" /><line stroke="#56a64b" stroke-width="4" x1="99.19866666666667" x2="104.78933333333333" y1="157" y2="157" /><line stroke="#56a64b" stroke-width="4" x1="104.78933333333333" x2="110.55733333333333" y1="157" y2="162" /><line stroke="#56a64b" stroke-width="4" x1="110.55733333333333" x2="116.33466666666666" y1="162" y2="159" /><line stroke="#56a64b" stroke-width="4" x1="116.33466666666666" x2="122.10266666666666" y1="159" y2="154" /><line stroke="#56a64b" stroke-width="4" x1="122.10266666666666" x2="127.88" y1="154" y2="162" /><line stroke="#56a64b" stroke-width="4" x1="127.88" x2="133.648" y1="162" y2="157" /><line stroke="#56a64b" stroke-width="4" x1="133.648" x2="139.416" y1="157" y2="159" /><line stroke="#56a64b" stroke-width="4" x1="139.416" x2="145.19333333333333" y1="159" y2="157" /><line stroke="#56a64b" stroke-width="4" x1="145.19333333333333" x2="150.96133333333336" y1="157" y2="161" /><line stroke="#56a64b" stroke-width="4" x1="150.96133333333336" x2="156.7386666666667" y1="161" y2="162" /><line stroke="#56a64b" stroke-width="4" x1="156.7386666666667" x2="162.50666666666666" y1="162" y2="159" /><line stroke="#56a64b" stroke-width="4" x1="162.50666666666666" x2="168.39600000000002" y1="159" y2="159" /><line stroke="#56a64b" stroke-width="4" x1="168.39600000000002" x2="174.05200000000002" y1="159" y2="159" /><line stroke="#56a64b" stroke-width="4" x1="174.05200000000002" x2="179.82" y1="159" y2="154" /><line stroke="#56a64b" stroke-width="4" x1="179.82" x2="185.59733333333332" y1="154" y2="157" /><line stroke="#56a64b" stroke-width="4" x1="185.59733333333332" x2="191.36533333333335" y1="157" y2="156" /><line stroke="#56a64b" stroke-width="4" x1="191.36533333333335" x2="197.14266666666668" y1="156" y2="156" /><line stroke="#56a64b" stroke-width="4" x1="197.14266666666668" x2="202.91066666666666" y1="156" y2="156" /><line stroke="#56a64b" stroke-width="4" x1="202.91066666666666" x2="208.6786666666667" y1="156" y2="157" /><line stroke="#56a64b" stroke-width="4" x1="208.6786666666667" x2="214.45600000000002" y1="157" y2="159" /><line stroke="#56a64b" stroke-width="4" x1="214.45600000000002" x2="220.22400000000002" y1="159" y2="159" /><line stroke="#56a64b" stroke-width="4" x1="220.22400000000002" x2="226.00133333333335" y1="159" y2="162" /><line stroke="#56a64b" stroke-width="4" x1="226.00133333333335" x2="231.76933333333335" y1="162" y2="164" /><line stroke="#56a64b" stroke-width="4" x1="231.76933333333335" x2="237.54666666666668" y1="164" y2="169" /><line stroke="#56a64b" stroke-width="4" x1="237.54666666666668" x2="243.31466666666668" y1="169" y2="171" /><line stroke="#56a64b" stroke-width="4" x1="243.31466666666668" x2="249.08266666666668" y1="171" y2="159" /><line stroke="#56a64b" stroke-width="4" x1="249.08266666666668" x2="254.86" y1="159" y2="171" /><line stroke="#56a64b" stroke-width="4" x1="254.86" x2="260.62800000000004" y1="171" y2="166" /><line stroke="#56a64b" stroke-width="4" x1="260.62800000000004" x2="266.4053333333334" y1="166" y2="164" /><line stroke="#56a64b" stroke-width="4" x1="266.4053333333334" x2="272.17333333333335" y1="164" y2="167" /><line stroke="#56a64b" stroke-width="4" x1="272.17333333333335" x2="277.9413333333333" y1="167" y2="159" /><line stroke="#56a64b" stroke-width="4" x1="277.9413333333333" x2="283.71866666666665" y1="159" y2="162" /><line stroke="#56a64b" stroke-width="4" x1="283.71866666666665" x2="289.4866666666667" y1="162" y2="162" /><line stroke="#56a64b" stroke-width="4" x1="289.4866666666667" x2="295.264" y1="162" y2="162" /><line stroke="#56a64b" stroke-width="4" x1="295.264" x2="301.03200000000004" y1="162" y2="164" /><line stroke="#56a64b" stroke-width="4" x1="301.03200000000004" x2="306.8" y1="164" y2="162" /><line stroke="#56a64b" stroke-width="4" x1="306.8" x2="312.57733333333334" y1="162" y2="162" /><line stroke="#56a64b" stroke-width="4" x1="312.57733333333334" x2="318.3453333333333" y1="162" y2="164" /><line stroke="#56a64b" stroke-width="4" x1="318.3453333333333" x2="324.12266666666665" y1="164" y2="164" /><line stroke="#56a64b" stroke-width="4" x1="324.12266666666665" x2="329.8906666666667" y1="164" y2="166" /><line stroke="#56a64b" stroke-width="4" x1="329.8906666666667" x2="335.6586666666667" y1="166" y2="169" /><line stroke="#56a64b" stroke-width="4" x1="335.6586666666667" x2="341.43600000000004" y1="169" y2="169" /><line stroke="#56a64b" stroke-width="4" x1="341.43600000000004" x2="347.26933333333335" y1="169" y2="172" /><line stroke="#56a64b" stroke-width="4" x1="347.26933333333335" x2="352.98133333333334" y1="172" y2="171" /><line stroke="#56a64b" stroke-width="4" x1="352.98133333333334" x2="358.74933333333337" y1="171" y2="169" /><line stroke="#56a64b" stroke-width="4" x1="358.74933333333337" x2="364.5266666666667" y1="169" y2="172" /><line stroke="#56a64b" stroke-width="4" x1="364.5266666666667" x2="370.29466666666667" y1="172" y2="166" /><line stroke="#56a64b" stroke-width="4" x1="370.29466666666667" x2="376.0626666666667" y1="166" y2="171" /><line stroke="#56a64b" stroke-width="4" x1="376.0626666666667" x2="381.84000000000003" y1="171" y2="169" /><line stroke="#56a64b" stroke-width="4" x1="381.84000000000003" x2="387.608" y1="169" y2="167" /><line stroke="#56a64b" stroke-width="4" x1="387.608" x2="393.4413333333334" y1="167" y2="169" /><line stroke="#56a64b" stroke-width="4" x1="393.4413333333334" x2="399.15333333333336" y1="169" y2="172" /><line stroke="#56a64b" stroke-width="4" x1="399.15333333333336" x2="404.92133333333334" y1="172" y2="174" /><line stroke="#56a64b" stroke-width="4" x1="404.92133333333334" x2="410.69866666666667" y1="174" y2="172" /><line stroke="#56a64b" stroke-width="4" x1="410.69866666666667" x2="416.4666666666667" y1="172" y2="174" /><line stroke="#56a64b" stroke-width="4" x1="416.4666666666667" x2="422.244" y1="174" y2="171" /><line stroke="#56a64b" stroke-width="4" x1="422.244" x2="428.012" y1="171" y2="176" /><line stroke="#56a64b" stroke-width="4" x1="428.012" x2="433.78000000000003" y1="176" y2="174" /><line stroke="#56a64b" stroke-width="4" x1="433.78000000000003" x2="439.55733333333336" y1="174" y2="176" /><line stroke="#56a64b" stroke-width="4" x1="439.55733333333336" x2="445.3253333333334" y1="176" y2="174" /><line stroke="#56a64b" stroke-width="4" x1="445.3253333333334" x2="451.1026666666667" y1="174" y2="174" /><line stroke="#56a64b" stroke-width="4" x1="451.1026666666667" x2="456.8706666666667" y1="174" y2="174" /><line stroke="#56a64b" stroke-width="4" x1="456.8706666666667" x2="462.6386666666667" y1="174" y2="182" /><line stroke="#56a64b" stroke-width="4" x1="462.6386666666667" x2="468.41600000000005" y1="182" y2="176" /><line stroke="#56a64b" stroke-width="4" x1="468.41600000000005" x2="474.184" y1="176" y2="177" /><line stroke="#56a64b" stroke-width="4" x1="474.184" x2="479.96133333333336" y1="177" y2="176" /><line stroke="#56a64b" stroke-width="4" x1="479.96133333333336" x2="485.7293333333334" y1="176" y2="177" /><line stroke="#56a64b" stroke-width="4" x1="485.7293333333334" x2="491.49733333333336" y1="177" y2="180" /><line stroke="#56a64b" stroke-width="4" x1="491.49733333333336" x2="497.2746666666667" y1="180" y2="180" /><line stroke="#56a64b" stroke-width="4" x1="497.2746666666667" x2="503.0426666666667" y1="180" y2="179" /><line stroke="#56a64b" stroke-width="4" x1="503.0426666666667" x2="508.82000000000005" y1="179" y2="179" /><line stroke="#56a64b" stroke-width="4" x1="508.82000000000005" x2="514.588" y1="179" y2="180" /><line stroke="#56a64b" stroke-width="4" x1="514.588" x2="520.356" y1="180" y2="182" /><line stroke="#56a64b" stroke-width="4" x1="520.356" x2="526.1986666666667" y1="182" y2="177" /><line stroke="#56a64b" stroke-width="4" x1="526.1986666666667" x2="531.9013333333334" y1="177" y2="180" /><line stroke="#56a64b" stroke-width="4" x1="531.9013333333334" x2="537.6786666666667" y1="180" y2="179" /><line stroke="#56a64b" stroke-width="4" x1="537.6786666666667" x2="543.4466666666667" y1="179" y2="180" /><line stroke="#56a64b" stroke-width="4" x1="543.4466666666667" x2="549.2146666666667" y1="180" y2="177" /><line stroke="#56a64b" stroke-width="4" x1="549.2146666666667" x2="554.992" y1="177" y2="179" /><line stroke="#56a64b" stroke-width="4" x1="554.992" x2="560.76" y1="179" y2="179" /><line stroke="#56a64b" stroke-width="4" x1="560.76" x2="566.5373333333334" y1="179" y2="177" /><line stroke="#56a64b" stroke-width="4" x1="566.5373333333334" x2="572.3053333333334" y1="177" y2="179" /><line stroke="#56a64b" stroke-width="4" x1="572.3053333333334" x2="578.0826666666667" y1="179" y2="179" /><line stroke="#56a64b" stroke-width="4" x1="578.0826666666667" x2="583.8506666666667" y1="179" y2="174" /><line stroke="#56a64b" stroke-width="4" x1="583.8506666666667" x2="589.6186666666667" y1="174" y2="179" /><line stroke="#56a64b" stroke-width="4" x1="589.6186666666667" x2="595.452" y1="179" y2="176" /><line stroke="#56a64b" stroke-width="4" x1="595.452" x2="601.164" y1="176" y2="179" /><line stroke="#56a64b" stroke-width="4" x1="601.164" x2="606.9413333333334" y1="179" y2="177" /><line stroke="#56a64b" stroke-width="4" x1="606.9413333333334" x2="612.7093333333333" y1="177" y2="177" /><line stroke="#56a64b" stroke-width="4" x1="612.7093333333333" x2="618.4773333333334" y1="177" y2="174" /><line stroke="#56a64b" stroke-width="4" x1="618.4773333333334" x2="624.2546666666667" y1="174" y2="177" /><line stroke="#56a64b" stroke-width="4" x1="624.2546666666667" x2="630.0226666666667" y1="177" y2="172" /><line stroke="#56a64b" stroke-width="4" x1="630.0226666666667" x2="635.8000000000001" y1="172" y2="171" /><line stroke="#56a64b" stroke-width="4" x1="635.8000000000001" x2="641.5680000000001" y1="171" y2="169" /><line stroke="#56a64b" stroke-width="4" x1="641.5680000000001" x2="647.336" y1="169" y2="171" /><line stroke="#56a64b" stroke-width="4" x1="647.336" x2="653.1133333333333" y1="171" y2="167" /><line stroke="#56a64b" stroke-width="4" x1="653.1133333333333" x2="658.8813333333334" y1="167" y2="167" /><line stroke="#56a64b" stroke-width="4" x1="658.8813333333334" x2="664.6493333333334" y1="167" y2="166" /><line stroke="#56a64b" stroke-width="4" x1="664.6493333333334" x2="670.4266666666667" y1="166" y2="166" /><line stroke="#56a64b" stroke-width="4" x1="670.4266666666667" x2="676.1946666666668" y1="166" y2="164" /><line stroke="#56a64b" stroke-width="4" x1="676.1946666666668" x2="681.9720000000001" y1="164" y2="162" /><line stroke="#56a64b" stroke-width="4" x1="681.9720000000001" x2="687.74" y1="162" y2="162" /><line stroke="#56a64b" stroke-width="4" x1="687.74" x2="693.508" y1="162" y2="161" /><line stroke="#56a64b" stroke-width="4" x1="693.508" x2="699.2853333333334" y1="161" y2="159" /><line stroke="#56a64b" stroke-width="4" x1="699.2853333333334" x2="705.0533333333334" y1="159" y2="159" /><line stroke="#56a64b" stroke-width="4" x1="705.0533333333334" x2="710.8306666666667" y1="159" y2="164" /><line stroke="#56a64b" stroke-width="4" x1="710.8306666666667" x2="716.5986666666668" y1="164" y2="162" /><line stroke="#56a64b" stroke-width="4" x1="716.5986666666668" x2="722.3666666666667" y1="162" y2="161" /><line stroke="#56a64b" stroke-width="4" x1="722.3666666666667" x2="728.144" y1="161" y2="159" /><line stroke="#56a64b" stroke-width="4" x1="728.144" x2="733.912" y1="159" y2="159" /><line stroke="#56a64b" stroke-width="4" x1="733.912" x2="739.6893333333334" y1="159" y2="157" /><line stroke="#56a64b" stroke-width="4" x1="739.6893333333334" x2="745.4573333333334" y1="157" y2="157" /><line stroke="#56a64b" stroke-width="4" x1="745.4573333333334" x2="751.2253333333334" y1="157" y2="156" /><line stroke="#56a64b" stroke-width="4" x1="751.2253333333334" x2="757.0026666666668" y1="156" y2="156" /><line stroke="#56a64b" stroke-width="4" x1="757.0026666666668" x2="762.7706666666667" y1="156" y2="157" /><line stroke="#56a64b" stroke-width="4" x1="762.7706666666667" x2="768.548" y1="157" y2="149" /><line stroke="#56a64b" stroke-width="4" x1="768.548" x2="774.316" y1="149" y2="149" /><line stroke="#56a64b" stroke-width="4" x1="774.316" x2="780.0840000000001" y1="149" y2="152" /><line stroke="#56a64b" stroke-width="4" x1="780.0840000000001" x2="785.8613333333334" y1="152" y2="152" /><line stroke="#56a64b" stroke-width="4" x1="785.8613333333334" x2="791.6293333333334" y1="152" y2="146" /><line stroke="#56a64b" stroke-width="4" x1="791.6293333333334" x2="797.4066666666668" y1="146" y2="144" /><line stroke="#56a64b" stroke-width="4" x1="797.4066666666668" x2="803.1746666666668" y1="144" y2="144" /><line stroke="#56a64b" stroke-width="4" x1="803.1746666666668" x2="808.9426666666667" y1="144" y2="136" /><line stroke="#56a64b" stroke-width="4" x1="808.9426666666667" x2="814.72" y1="136" y2="141" /><line stroke="#56a64b" stroke-width="4" x1="814.72" x2="820.488" y1="141" y2="146" /><line stroke="#56a64b" stroke-width="4" x1="820.488" x2="826.2653333333334" y1="146" y2="146" /><line stroke="#56a64b" stroke-width="4" x1="826.2653333333334" x2="832.0333333333334" y1="146" y2="141" /><line stroke="#56a64b" stroke-width="4" x1="832.0333333333334" x2="837.8106666666667" y1="141" y2="138" /><line stroke="#56a64b" stroke-width="4" x1="837.8106666666667" x2="843.5786666666668" y1="138" y2="141" /><line stroke="#56a64b" stroke-width="4" x1="843.5786666666668" x2="849.3466666666667" y1="141" y2="138" /><line stroke="#56a64b" stroke-width="4" x1="849.3466666666667" x2="855.124" y1="138" y2="134" /><line stroke="#56a64b" stroke-width="4" x1="855.124" x2="860.892" y1="134" y2="141" /><line stroke="#56a64b" stroke-width="4" x1="860.892" x2="866.6693333333334" y1="141" y2="138" /><line stroke="#56a64b" stroke-width="4" x1="866.6693333333334" x2="872.4373333333334" y1="138" y2="133" /><line stroke="#56a64b" stroke-width="4" x1="872.4373333333334" x2="878.2053333333334" y1="133" y2="138" /><line stroke="#56a64b" stroke-width="4" x1="878.2053333333334" x2="883.9826666666668" y1="138" y2="141" /><line stroke="#56a64b" stroke-width="4" x1="883.9826666666668" x2="889.7506666666667" y1="141" y2="149" /><text fill="#A9A9A9" font-size="20px" style="font-family:Arial" text-anchor="end" x="920" y="30.0">2023-12-26 12:06:05</text><text fill="#A9A9A9" font-size="24px" style="font-family:Arial" text-anchor="middle" x="500.0" y="28.0">Windrichtung</text><text fill="#A9A9A9" font-size="24px" style="font-family:Arial" text-anchor="start" x="80" y="28.0">Südhang</text></svg>