<?xml version="1.0" encoding="utf-8" ?>
<svg baseProfile="full" height="500" version="1.1" width="1000" xmlns="http://www.w3.org/2000/svg" xmlns:ev="http://www.w3.org/2001/xml-events" xmlns:xlink="http://www.w3.org/1999/xlink"><defs /><rect fill="#000000" height="500" width="1000" x="0" y="0" /><line stroke="#808080" x1="80" x2="920" y1="40.0" y2="40.0" /><line stroke="#808080" x1="80" x2="920" y1="92.5" y2="92.5" /><line stroke="#808080" x1="80" x2="920" y1="145.0" y2="145.0" /><line stroke="#808080" x1="80" x2="920" y1="197.5" y2="197.5" /><line stroke="#808080" x1="80" x2="920" y1="250.0" y2="250.0" /><line stroke="#808080" x1="80" x2="920" y1="302.5" y2="302.5" /><line stroke="#808080" x1="80" x2="920" y1="355.0" y2="355.0" /><line stroke="#808080" x1="80" x2="920" y1="407.5" y2="407.5" /><line stroke="#808080" x1="80" x2="920" y1="460.0" y2="460.0" /><line stroke="#808080" x1="80.0" x2="80.0" y1="40" y2="460" /><line stroke="#808080" x1="113.6" x2="113.6" y1="40" y2="460" /><line stroke="#808080" x1="147.2" x2="147.2" y1="40" y2="460" /><line stroke="#808080" x1="180.79999999999998" x2="180.79999999999998" y1="40" y2="460" /><line stroke="#808080" x1="214.39999999999998" x2="214.39999999999998" y1="40" y2="460" /><line stroke="#808080" x1="247.99999999999997" x2="247.99999999999997" y1="40" y2="460" /><line stroke="#808080" x1="281.59999999999997" x2="281.59999999999997" y1="40" y2="460" /><line stroke="#808080" x1="315.19999999999993" x2="315.19999999999993" y1="40" y2="460" /><line stroke="#808080" x1="348.79999999999995" x2="348.79999999999995" y1="40" y2="460" /><line stroke="#808080" x1="382.4" x2="382.4" y1="40" y2="460" /><line stroke="#808080" x1="415.99999999999994" x2="415.99999999999994" y1="40" y2="460" /><line stroke="#808080" x1="449.5999999999999" x2="449.5999999999999" y1="40" y2="460" /><line stroke="#808080" x1="483.19999999999993" x2="483.19999999999993" y1="40" y2="460" /><line stroke="#808080" x1="516.8" x2="516.8" y1="40" y2="460" /><line stroke="#808080" x1="550.3999999999999" x2="550.3999999999999" y1="40" y2="460" /><line stroke="#808080" x1="583.9999999999999" x2="583.9999999999999" y1="40" y2="460" /><line stroke="#808080" x1="617.5999999999999" x2="617.5999999999999" y1="40" y2="460" /><line stroke="#808080" x1="651.1999999999999" x2="651.1999999999999" y1="40" y2="460" /><line stroke="#808080" x1="684.8" x2="684.8" y1="40" y2="460" /><line stroke="#808080" x1="718.3999999999999" x2="718.3999999999999" y1="40" y2="460" /><line stroke="#808080" x1="751.9999999999999" x2="751.9999999999999" y1="40" y2="460" /><line stroke="#808080" x1="785.5999999999999" x2="785.5999999999999" y1="40" y2="460" /><line stroke="#808080" x1="819.1999999999998" x2="819.1999999999998" y1="40" y2="460" /><line stroke="#808080" x1="852.7999999999998" x2="852.7999999999998" y1="40" y2="460" /><line stroke="#808080" x1="886.3999999999999" x2="886.3999999999999" y1="40" y2="460" /><line stroke="#808080" x1="919.9999999999999" x2="919.9999999999999" y1="40" y2="460" /><text fill="#A9A9A9" font-size="20px" style="font-family:Arial" text-anchor="middle" x="40.0" y="50.0"> N</text><text fill="#A9A9A9" font-size="20px" style="font-family:Arial" text-anchor="middle" x="40.0" y="102.5">NW</text><text fill="#A9A9A9" font-size="20px" style="font-family:Arial" text-anchor="middle" x="40.0" y="155.0"> W</text><text fill="#A9A9A9" font-size="20px" style="font-family:Arial" text-anchor="middle" x="40.0" y="207.5">SW</text><text fill="#A9A9A9" font-size="20px" style="font-family:Arial" text-anchor="middle" x="40.0" y="260.0"> S</text><text fill="#A9A9A9" font-size="20px" style="font-family:Arial" text-anchor="middle" x="40.0" y="312.5">SO</text><text fill="#A9A9A9" font-size="20px" style="font-family:Arial" text-anchor="middle" x="40.0" y="365.0"> O</text><text fill="#A9A9A9" font-size="20px" style="font-family:Arial" text-anchor="middle" x="40.0" y="417.5">NO</text><text fill="#A9A9A9" font-size="20px" style="font-family:Arial" text-anchor="middle" x="40.0" y="470.0"> N</text><text fill="#A9A9A9" font-size="20px" style="font-family:Arial" text-anchor="middle" x="960.0" y="50.0"> N</text><text fill="#A9A9A9" font-size="20px" style="font-family:Arial" text-anchor="middle" x="960.0" y="102.5">NW</text><text fill="#A9A9A9" font-size="20px" style="font-family:Arial" text-anchor="middle" x="960.0" y="155.0"> W</text><text fill="#A9A9A9" font-size="20px" style="font-family:Arial" text-anchor="middle" x="960.0" y="207.5">SW</text><text fill="#A9A9A9" font-size="20px" style="font-family:Arial" text-anchor="middle" x="960.0" y="260.0"> S</text><text fill="#A9A9A9" font-size="20px" style="font-family:Arial" text-anchor="middle" x="960.0" y="312.5">SO</text><text fill="#A9A9A9" font-size="20px" style="font-family:Arial" text-anchor="middle" x="960.0" y="365.0"> O</text><text fill="#A9A9A9" font-size="20px" style="font-family:Arial" text-anchor="middle" x="960.0" y="417.5">NO</text><text fill="#A9A9A9" font-size="20px" style="font-family:Arial" text-anchor="middle" x="960.0" y="470.0"> N</text><text fill="#A9A9A9" font-size="17px" style="font-family:Arial" text-anchor="start" x="71" y="487">14</text><text fill="#A9A9A9" font-size="17px" style="font-family:Arial" text-anchor="start" x="104" y="487">15</text><text fill="#A9A9A9" font-size="17px" style="font-family:Arial" text-anchor="start" x="138" y="487">16</text><text fill="#A9A9A9" font-size="17px" style="font-family:Arial" text-anchor="start" x="171" y="487">17</text><text fill="#A9A9A9" font-size="17px" style="font-family:Arial" text-anchor="start" x="205" y="487">18</text><text fill="#A9A9A9" font-size="17px" style="font-family:Arial" text-anchor="start" x="238" y="487">19</text><text fill="#A9A9A9" font-size="17px" style="font-family:Arial" text-anchor="start" x="272" y="487">20</text><text fill="#A9A9A9" font-size="17px" style="font-family:Arial" text-anchor="start" x="307" y="487">21</text><text fill="#A9A9A9" font-size="17px" style="font-family:Arial" text-anchor="start" x="339" y="487">22</text><text fill="#A9A9A9" font-size="17px" style="font-family:Arial" text-anchor="start" x="373" y="487">23</text><text fill="#A9A9A9" font-size="17px" style="font-family:Arial" text-anchor="start" x="411" y="487">0</text><text fill="#A9A9A9" font-size="17px" style="font-family:Arial" text-anchor="start" x="446" y="487">1</text><text fill="#A9A9A9" font-size="17px" style="font-family:Arial" text-anchor="start" x="478" y="487">2</text><text fill="#A9A9A9" font-size="17px" style="font-family:Arial" text-anchor="start" x="512" y="487">3</text><text fill="#A9A9A9" font-size="17px" style="font-family:Arial" text-anchor="start" x="545" y="487">4</text><text fill="#A9A9A9" font-size="17px" style="font-family:Arial" text-anchor="start" x="579" y="487">5</text><text fill="#A9A9A9" font-size="17px" style="font-family:Arial" text-anchor="start" x="613" y="487">6</text><text fill="#A9A9A9" font-size="17px" style="font-family:Arial" text-anchor="start" x="646" y="487">7</text><text fill="#A9A9A9" font-size="17px" style="font-family:Arial" text-anchor="start" x="680" y="487">8</text><text fill="#A9A9A9" font-size="17px" style="font-family:Arial" text-anchor="start" x="713" y="487">9</text><text fill="#A9A9A9" font-size="17px" style="font-family:Arial" text-anchor="start" x="742" y="487">10</text><text fill="#A9A9A9" font-size="17px" style="font-family:Arial" text-anchor="start" x="778" y="487">11</text><text fill="#A9A9A9" font-size="17px" style="font-family:Arial" text-anchor="start" x="810" y="487">12</text><text fill="#A9A9A9" font-size="17px" style="font-family:Arial" text-anchor="start" x="843" y="487">13</text><text fill="#A9A9A9" font-size="17px" style="font-family:Arial" text-anchor="start" x="877" y="487">14</text><text fill="#A9A9A9" font-size="17px" style="font-family:Arial" text-anchor="start" x="910" y="487">15</text><line stroke="#FFA500" x1="80" x2="920" y1="302.5" y2="302.5" /><line stroke="#FFA500" x1="80" x2="920" y1="197.5" y2="197.5" /><circle cx="106.852" cy="159" fill="#56a64b" r="2" /><circle cx="112.62" cy="154" fill="#56a64b" r="2" /><circle cx="118.39733333333334" cy="157" fill="#56a64b" r="2" /><circle cx="124.16533333333334" cy="156" fill="#56a64b" r="2" /><circle cx="129.94266666666667" cy="156" fill="#56a64b" r="2" /><circle cx="135.71066666666667" cy="156" fill="#56a64b" r="2" /><circle cx="141.47866666666667" cy="157" fill="#56a64b" r="2" /><circle cx="147.256" cy="159" fill="#56a64b" r="2" /><circle cx="153.024" cy="159" fill="#56a64b" r="2" /><circle cx="158.80133333333333" cy="162" fill="#56a64b" r="2" /><circle cx="164.56933333333336" cy="164" fill="#56a64b" r="2" /><circle cx="170.3466666666667" cy="169" fill="#56a64b" r="2" /><circle cx="176.11466666666666" cy="171" fill="#56a64b" r="2" /><circle cx="181.8826666666667" cy="159" fill="#56a64b" r="2" /><circle cx="187.66000000000003" cy="171" fill="#56a64b" r="2" /><circle cx="193.428" cy="166" fill="#56a64b" r="2" /><circle cx="199.20533333333333" cy="164" fill="#56a64b" r="2" /><circle cx="204.97333333333336" cy="167" fill="#56a64b" r="2" /><circle cx="210.74133333333336" cy="159" fill="#56a64b" r="2" /><circle cx="216.5186666666667" cy="162" fill="#56a64b" r="2" /><circle cx="222.2866666666667" cy="162" fill="#56a64b" r="2" /><circle cx="228.06400000000002" cy="162" fill="#56a64b" r="2" /><circle cx="233.83200000000002" cy="164" fill="#56a64b" r="2" /><circle cx="239.60000000000002" cy="162" fill="#56a64b" r="2" /><circle cx="245.37733333333335" cy="162" fill="#56a64b" r="2" /><circle cx="251.14533333333335" cy="164" fill="#56a64b" r="2" /><circle cx="256.9226666666667" cy="164" fill="#56a64b" r="2" /><circle cx="262.6906666666667" cy="166" fill="#56a64b" r="2" /><circle cx="268.45866666666666" cy="169" fill="#56a64b" r="2" /><circle cx="274.236" cy="169" fill="#56a64b" r="2" /><circle cx="280.06933333333336" cy="172" fill="#56a64b" r="2" /><circle cx="285.78133333333335" cy="171" fill="#56a64b" r="2" /><circle cx="291.5493333333334" cy="169" fill="#56a64b" r="2" /><circle cx="297.3266666666667" cy="172" fill="#56a64b" r="2" /><circle cx="303.0946666666667" cy="166" fill="#56a64b" r="2" /><circle cx="308.86266666666666" cy="171" fill="#56a64b" r="2" /><circle cx="314.64" cy="169" fill="#56a64b" r="2" /><circle cx="320.408" cy="167" fill="#56a64b" r="2" /><circle cx="326.2413333333334" cy="169" fill="#56a64b" r="2" /><circle cx="331.9533333333334" cy="172" fill="#56a64b" r="2" /><circle cx="337.72133333333335" cy="174" fill="#56a64b" r="2" /><circle cx="343.4986666666667" cy="172" fill="#56a64b" r="2" /><circle cx="349.2666666666667" cy="174" fill="#56a64b" r="2" /><circle cx="355.04400000000004" cy="171" fill="#56a64b" r="2" /><circle cx="360.812" cy="176" fill="#56a64b" r="2" /><circle cx="366.58000000000004" cy="174" fill="#56a64b" r="2" /><circle cx="372.3573333333334" cy="176" fill="#56a64b" r="2" /><circle cx="378.12533333333334" cy="174" fill="#56a64b" r="2" /><circle cx="383.9026666666667" cy="174" fill="#56a64b" r="2" /><circle cx="389.6706666666667" cy="174" fill="#56a64b" r="2" /><circle cx="395.4386666666667" cy="182" fill="#56a64b" r="2" /><circle cx="401.216" cy="176" fill="#56a64b" r="2" /><circle cx="406.98400000000004" cy="177" fill="#56a64b" r="2" /><circle cx="412.76133333333337" cy="176" fill="#56a64b" r="2" /><circle cx="418.52933333333334" cy="177" fill="#56a64b" r="2" /><circle cx="424.29733333333337" cy="180" fill="#56a64b" r="2" /><circle cx="430.0746666666667" cy="180" fill="#56a64b" r="2" /><circle cx="435.8426666666667" cy="179" fill="#56a64b" r="2" /><circle cx="441.62" cy="179" fill="#56a64b" r="2" /><circle cx="447.38800000000003" cy="180" fill="#56a64b" r="2" /><circle cx="453.156" cy="182" fill="#56a64b" r="2" /><circle cx="458.9986666666667" cy="177" fill="#56a64b" r="2" /><circle cx="464.70133333333337" cy="180" fill="#56a64b" r="2" /><circle cx="470.4786666666667" cy="179" fill="#56a64b" r="2" /><circle cx="476.2466666666667" cy="180" fill="#56a64b" r="2" /><circle cx="482.0146666666667" cy="177" fill="#56a64b" r="2" /><circle cx="487.79200000000003" cy="179" fill="#56a64b" r="2" /><circle cx="493.56000000000006" cy="179" fill="#56a64b" r="2" /><circle cx="499.3373333333334" cy="177" fill="#56a64b" r="2" /><circle cx="505.10533333333336" cy="179" fill="#56a64b" r="2" /><circle cx="510.8826666666667" cy="179" fill="#56a64b" r="2" /><circle cx="516.6506666666667" cy="174" fill="#56a64b" r="2" /><circle cx="522.4186666666667" cy="179" fill="#56a64b" r="2" /><circle cx="528.252" cy="176" fill="#56a64b" r="2" /><circle cx="533.964" cy="179" fill="#56a64b" r="2" /><circle cx="539.7413333333334" cy="177" fill="#56a64b" r="2" /><circle cx="545.5093333333334" cy="177" fill="#56a64b" r="2" /><circle cx="551.2773333333334" cy="174" fill="#56a64b" r="2" /><circle cx="557.0546666666667" cy="177" fill="#56a64b" r="2" /><circle cx="562.8226666666667" cy="172" fill="#56a64b" r="2" /><circle cx="568.6" cy="171" fill="#56a64b" r="2" /><circle cx="574.368" cy="169" fill="#56a64b" r="2" /><circle cx="580.136" cy="171" fill="#56a64b" r="2" /><circle cx="585.9133333333334" cy="167" fill="#56a64b" r="2" /><circle cx="591.6813333333334" cy="167" fill="#56a64b" r="2" /><circle cx="597.4493333333334" cy="166" fill="#56a64b" r="2" /><circle cx="603.2266666666667" cy="166" fill="#56a64b" r="2" /><circle cx="608.9946666666667" cy="164" fill="#56a64b" r="2" /><circle cx="614.772" cy="162" fill="#56a64b" r="2" /><circle cx="620.5400000000001" cy="162" fill="#56a64b" r="2" /><circle cx="626.308" cy="161" fill="#56a64b" r="2" /><circle cx="632.0853333333333" cy="159" fill="#56a64b" r="2" /><circle cx="637.8533333333334" cy="159" fill="#56a64b" r="2" /><circle cx="643.6306666666667" cy="164" fill="#56a64b" r="2" /><circle cx="649.3986666666667" cy="162" fill="#56a64b" r="2" /><circle cx="655.1666666666667" cy="161" fill="#56a64b" r="2" /><circle cx="660.9440000000001" cy="159" fill="#56a64b" r="2" /><circle cx="666.7120000000001" cy="159" fill="#56a64b" r="2" /><circle cx="672.4893333333334" cy="157" fill="#56a64b" r="2" /><circle cx="678.2573333333333" cy="157" fill="#56a64b" r="2" /><circle cx="684.0253333333334" cy="156" fill="#56a64b" r="2" /><circle cx="689.8026666666667" cy="156" fill="#56a64b" r="2" /><circle cx="695.5706666666667" cy="157" fill="#56a64b" r="2" /><circle cx="701.3480000000001" cy="149" fill="#56a64b" r="2" /><circle cx="707.1160000000001" cy="149" fill="#56a64b" r="2" /><circle cx="712.884" cy="152" fill="#56a64b" r="2" /><circle cx="718.6613333333333" cy="152" fill="#56a64b" r="2" /><circle cx="724.4293333333334" cy="146" fill="#56a64b" r="2" /><circle cx="730.2066666666667" cy="144" fill="#56a64b" r="2" /><circle cx="735.9746666666667" cy="144" fill="#56a64b" r="2" /><circle cx="741.7426666666668" cy="136" fill="#56a64b" r="2" /><circle cx="747.5200000000001" cy="141" fill="#56a64b" r="2" /><circle cx="753.288" cy="146" fill="#56a64b" r="2" /><circle cx="759.0653333333333" cy="146" fill="#56a64b" r="2" /><circle cx="764.8333333333334" cy="141" fill="#56a64b" r="2" /><circle cx="770.6106666666667" cy="138" fill="#56a64b" r="2" /><circle cx="776.3786666666667" cy="141" fill="#56a64b" r="2" /><circle cx="782.1466666666668" cy="138" fill="#56a64b" r="2" /><circle cx="787.9240000000001" cy="134" fill="#56a64b" r="2" /><circle cx="793.692" cy="141" fill="#56a64b" r="2" /><circle cx="799.4693333333333" cy="138" fill="#56a64b" r="2" /><circle cx="805.2373333333334" cy="133" fill="#56a64b" r="2" /><circle cx="811.0053333333334" cy="138" fill="#56a64b" r="2" /><circle cx="816.7826666666667" cy="141" fill="#56a64b" r="2" /><circle cx="822.5506666666668" cy="149" fill="#56a64b" r="2" /><circle cx="828.3280000000001" cy="148" fill="#56a64b" r="2" /><circle cx="834.0960000000001" cy="154" fill="#56a64b" r="2" /><circle cx="839.864" cy="146" fill="#56a64b" r="2" /><circle cx="845.6413333333334" cy="138" fill="#56a64b" r="2" /><circle cx="851.4093333333334" cy="139" fill="#56a64b" r="2" /><circle cx="857.1866666666667" cy="138" fill="#56a64b" r="2" /><circle cx="862.9546666666668" cy="151" fill="#56a64b" r="2" /><circle cx="868.7226666666668" cy="159" fill="#56a64b" r="2" /><circle cx="874.5000000000001" cy="152" fill="#56a64b" r="2" /><circle cx="880.268" cy="164" fill="#56a64b" r="2" /><circle cx="886.0453333333334" cy="164" fill="#56a64b" r="2" /><circle cx="891.8133333333334" cy="159" fill="#56a64b" r="2" /><circle cx="897.5813333333334" cy="156" fill="#56a64b" r="2" /><circle cx="903.3586666666667" cy="157" fill="#56a64b" r="2" /><circle cx="909.1266666666668" cy="161" fill="#56a64b" r="2" /><line stroke="#56a64b" stroke-width="4" x1="106.852" x2="112.62" y1="159" y2="154" /><line stroke="#56a64b" stroke-width="4" x1="112.62" x2="118.39733333333334" y1="154" y2="157" /><line stroke="#56a64b" stroke-width="4" x1="118.39733333333334" x2="124.16533333333334" y1="157" y2="156" /><line stroke="#56a64b" stroke-width="4" x1="124.16533333333334" x2="129.94266666666667" y1="156" y2="156" /><line stroke="#56a64b" stroke-width="4" x1="129.94266666666667" x2="135.71066666666667" y1="156" y2="156" /><line stroke="#56a64b" stroke-width="4" x1="135.71066666666667" x2="141.47866666666667" y1="156" y2="157" /><line stroke="#56a64b" stroke-width="4" x1="141.47866666666667" x2="147.256" y1="157" y2="159" /><line stroke="#56a64b" stroke-width="4" x1="147.256" x2="153.024" y1="159" y2="159" /><line stroke="#56a64b" stroke-width="4" x1="153.024" x2="158.80133333333333" y1="159" y2="162" /><line stroke="#56a64b" stroke-width="4" x1="158.80133333333333" x2="164.56933333333336" y1="162" y2="164" /><line stroke="#56a64b" stroke-width="4" x1="164.56933333333336" x2="170.3466666666667" y1="164" y2="169" /><line stroke="#56a64b" stroke-width="4" x1="170.3466666666667" x2="176.11466666666666" y1="169" y2="171" /><line stroke="#56a64b" stroke-width="4" x1="176.11466666666666" x2="181.8826666666667" y1="171" y2="159" /><line stroke="#56a64b" stroke-width="4" x1="181.8826666666667" x2="187.66000000000003" y1="159" y2="171" /><line stroke="#56a64b" stroke-width="4" x1="187.66000000000003" x2="193.428" y1="171" y2="166" /><line stroke="#56a64b" stroke-width="4" x1="193.428" x2="199.20533333333333" y1="166" y2="164" /><line stroke="#56a64b" stroke-width="4" x1="199.20533333333333" x2="204.97333333333336" y1="164" y2="167" /><line stroke="#56a64b" stroke-width="4" x1="204.97333333333336" x2="210.74133333333336" y1="167" y2="159" /><line stroke="#56a64b" stroke-width="4" x1="210.74133333333336" x2="216.5186666666667" y1="159" y2="162" /><line stroke="#56a64b" stroke-width="4" x1="216.5186666666667" x2="222.2866666666667" y1="162" y2="162" /><line stroke="#56a64b" stroke-width="4" x1="222.2866666666667" x2="228.06400000000002" y1="162" y2="162" /><line stroke="#56a64b" stroke-width="4" x1="228.06400000000002" x2="233.83200000000002" y1="162" y2="164" /><line stroke="#56a64b" stroke-width="4" x1="233.83200000000002" x2="239.60000000000002" y1="164" y2="162" /><line stroke="#56a64b" stroke-width="4" x1="239.60000000000002" x2="245.37733333333335" y1="162" y2="162" /><line stroke="#56a64b" stroke-width="4" x1="245.37733333333335" x2="251.14533333333335" y1="162" y2="164" /><line stroke="#56a64b" stroke-width="4" x1="251.14533333333335" x2="256.9226666666667" y1="164" y2="164" /><line stroke="#56a64b" stroke-width="4" x1="256.9226666666667" x2="262.6906666666667" y1="164" y2="166" /><line stroke="#56a64b" stroke-width="4" x1="262.6906666666667" x2="268.45866666666666" y1="166" y2="169" /><line stroke="#56a64b" stroke-width="4" x1="268.45866666666666" x2="274.236" y1="169" y2="169" /><line stroke="#56a64b" stroke-width="4" x1="274.236" x2="280.06933333333336" y1="169" y2="172" /><line stroke="#56a64b" stroke-width="4" x1="280.06933333333336" x2="285.78133333333335" y1="172" y2="171" /><line stroke="#56a64b" stroke-width="4" x1="285.78133333333335" x2="291.5493333333334" y1="171" y2="169" /><line stroke="#56a64b" stroke-width="4" x1="291.5493333333334" x2="297.3266666666667" y1="169" y2="172" /><line stroke="#56a64b" stroke-width="4" x1="297.3266666666667" x2="303.0946666666667" y1="172" y2="166" /><line stroke="#56a64b" stroke-width="4" x1="303.0946666666667" x2="308.86266666666666" y1="166" y2="171" /><line stroke="#56a64b" stroke-width="4" x1="308.86266666666666" x2="314.64" y1="171" y2="169" /><line stroke="#56a64b" stroke-width="4" x1="314.64" x2="320.408" y1="169" y2="167" /><line stroke="#56a64b" stroke-width="4" x1="320.408" x2="326.2413333333334" y1="167" y2="169" /><line stroke="#56a64b" stroke-width="4" x1="326.2413333333334" x2="331.9533333333334" y1="169" y2="172" /><line stroke="#56a64b" stroke-width="4" x1="331.9533333333334" x2="337.72133333333335" y1="172" y2="174" /><line stroke="#56a64b" stroke-width="4" x1="337.72133333333335" x2="343.4986666666667" y1="174" y2="172" /><line stroke="#56a64b" stroke-width="4" x1="343.4986666666667" x2="349.2666666666667" y1="172" y2="174" /><line stroke="#56a64b" stroke-width="4" x1="349.2666666666667" x2="355.04400000000004" y1="174" y2="171" /><line stroke="#56a64b" stroke-width="4" x1="355.04400000000004" x2="360.812" y1="171" y2="176" /><line stroke="#56a64b" stroke-width="4" x1="360.812" x2="366.58000000000004" y1="176" y2="174" /><line stroke="#56a64b" stroke-width="4" x1="366.58000000000004" x2="372.3573333333334" y1="174" y2="176" /><line stroke="#56a64b" stroke-width="4" x1="372.3573333333334" x2="378.12533333333334" y1="176" y2="174" /><line stroke="#56a64b" stroke-width="4" x1="378.12533333333334" x2="383.9026666666667" y1="174" y2="174" /><line stroke="#56a64b" stroke-width="4" x1="383.9026666666667" x2="389.6706666666667" y1="174" y2="174" /><line stroke="#56a64b" stroke-width="4" x1="389.6706666666667" x2="395.4386666666667" y1="174" y2="182" /><line stroke="#56a64b" stroke-width="4" x1="395.4386666666667" x2="401.216" y1="182" y2="176" /><line stroke="#56a64b" stroke-width="4" x1="401.216" x2="406.98400000000004" y1="176" y2="177" /><line stroke="#56a64b" stroke-width="4" x1="406.98400000000004" x2="412.76133333333337" y1="177" y2="176" /><line stroke="#56a64b" stroke-width="4" x1="412.76133333333337" x2="418.52933333333334" y1="176" y2="177" /><line stroke="#56a64b" stroke-width="4" x1="418.52933333333334" x2="424.29733333333337" y1="177" y2="180" /><line stroke="#56a64b" stroke-width="4" x1="424.29733333333337" x2="430.0746666666667" y1="180" y2="180" /><line stroke="#56a64b" stroke-width="4" x1="430.0746666666667" x2="435.8426666666667" y1="180" y2="179" /><line stroke="#56a64b" stroke-width="4" x1="435.8426666666667" x2="441.62" y1="179" y2="179" /><line stroke="#56a64b" stroke-width="4" x1="441.62" x2="447.38800000000003" y1="179" y2="180" /><line stroke="#56a64b" stroke-width="4" x1="447.38800000000003" x2="453.156" y1="180" y2="182" /><line stroke="#56a64b" stroke-width="4" x1="453.156" x2="458.9986666666667" y1="182" y2="177" /><line stroke="#56a64b" stroke-width="4" x1="458.9986666666667" x2="464.70133333333337" y1="177" y2="180" /><line stroke="#56a64b" stroke-width="4" x1="464.70133333333337" x2="470.4786666666667" y1="180" y2="179" /><line stroke="#56a64b" stroke-width="4" x1="470.4786666666667" x2="476.2466666666667" y1="179" y2="180" /><line stroke="#56a64b" stroke-width="4" x1="476.2466666666667" x2="482.0146666666667" y1="180" y2="177" /><line stroke="#56a64b" stroke-width="4" x1="482.0146666666667" x2="487.79200000000003" y1="177" y2="179" /><line stroke="#56a64b" stroke-width="4" x1="487.79200000000003" x2="493.56000000000006" y1="179" y2="179" /><line stroke="#56a64b" stroke-width="4" x1="493.56000000000006" x2="499.3373333333334" y1="179" y2="177" /><line stroke="#56a64b" stroke-width="4" x1="499.3373333333334" x2="505.10533333333336" y1="177" y2="179" /><line stroke="#56a64b" stroke-width="4" x1="505.10533333333336" x2="510.8826666666667" y1="179" y2="179" /><line stroke="#56a64b" stroke-width="4" x1="510.8826666666667" x2="516.6506666666667" y1="179" y2="174" /><line stroke="#56a64b" stroke-width="4" x1="516.6506666666667" x2="522.4186666666667" y1="174" y2="179" /><line stroke="#56a64b" stroke-width="4" x1="522.4186666666667" x2="528.252" y1="179" y2="176" /><line stroke="#56a64b" stroke-width="4" x1="528.252" x2="533.964" y1="176" y2="179" /><line stroke="#56a64b" stroke-width="4" x1="533.964" x2="539.7413333333334" y1="179" y2="177" /><line stroke="#56a64b" stroke-width="4" x1="539.7413333333334" x2="545.5093333333334" y1="177" y2="177" /><line stroke="#56a64b" stroke-width="4" x1="545.5093333333334" x2="551.2773333333334" y1="177" y2="174" /><line stroke="#56a64b" stroke-width="4" x1="551.2773333333334" x2="557.0546666666667" y1="174" y2="177" /><line stroke="#56a64b" stroke-width="4" x1="557.0546666666667" x2="562.8226666666667" y1="177" y2="172" /><line stroke="#56a64b" stroke-width="4" x1="562.8226666666667" x2="568.6" y1="172" y2="171" /><line stroke="#56a64b" stroke-width="4" x1="568.6" x2="574.368" y1="171" y2="169" /><line stroke="#56a64b" stroke-width="4" x1="574.368" x2="580.136" y1="169" y2="171" /><line stroke="#56a64b" stroke-width="4" x1="580.136" x2="585.9133333333334" y1="171" y2="167" /><line stroke="#56a64b" stroke-width="4" x1="585.9133333333334" x2="591.6813333333334" y1="167" y2="167" /><line stroke="#56a64b" stroke-width="4" x1="591.6813333333334" x2="597.4493333333334" y1="167" y2="166" /><line stroke="#56a64b" stroke-width="4" x1="597.4493333333334" x2="603.2266666666667" y1="166" y2="166" /><line stroke="#56a64b" stroke-width="4" x1="603.2266666666667" x2="608.9946666666667" y1="166" y2="164" /><line stroke="#56a64b" stroke-width="4" x1="608.9946666666667" x2="614.772" y1="164" y2="162" /><line stroke="#56a64b" stroke-width="4" x1="614.772" x2="620.5400000000001" y1="162" y2="162" /><line stroke="#56a64b" stroke-width="4" x1="620.5400000000001" x2="626.308" y1="162" y2="161" /><line stroke="#56a64b" stroke-width="4" x1="626.308" x2="632.0853333333333" y1="161" y2="159" /><line stroke="#56a64b" stroke-width="4" x1="632.0853333333333" x2="637.8533333333334" y1="159" y2="159" /><line stroke="#56a64b" stroke-width="4" x1="637.8533333333334" x2="643.6306666666667" y1="159" y2="164" /><line stroke="#56a64b" stroke-width="4" x1="643.6306666666667" x2="649.3986666666667" y1="164" y2="162" /><line stroke="#56a64b" stroke-width="4" x1="649.3986666666667" x2="655.1666666666667" y1="162" y2="161" /><line stroke="#56a64b" stroke-width="4" x1="655.1666666666667" x2="660.9440000000001" y1="161" y2="159" /><line stroke="#56a64b" stroke-width="4" x1="660.9440000000001" x2="666.7120000000001" y1="159" y2="159" /><line stroke="#56a64b" stroke-width="4" x1="666.7120000000001" x2="672.4893333333334" y1="159" y2="157" /><line stroke="#56a64b" stroke-width="4" x1="672.4893333333334" x2="678.2573333333333" y1="157" y2="157" /><line stroke="#56a64b" stroke-width="4" x1="678.2573333333333" x2="684.0253333333334" y1="157" y2="156" /><line stroke="#56a64b" stroke-width="4" x1="684.0253333333334" x2="689.8026666666667" y1="156" y2="156" /><line stroke="#56a64b" stroke-width="4" x1="689.8026666666667" x2="695.5706666666667" y1="156" y2="157" /><line stroke="#56a64b" stroke-width="4" x1="695.5706666666667" x2="701.3480000000001" y1="157" y2="149" /><line stroke="#56a64b" stroke-width="4" x1="701.3480000000001" x2="707.1160000000001" y1="149" y2="149" /><line stroke="#56a64b" stroke-width="4" x1="707.1160000000001" x2="712.884" y1="149" y2="152" /><line stroke="#56a64b" stroke-width="4" x1="712.884" x2="718.6613333333333" y1="152" y2="152" /><line stroke="#56a64b" stroke-width="4" x1="718.6613333333333" x2="724.4293333333334" y1="152" y2="146" /><line stroke="#56a64b" stroke-width="4" x1="724.4293333333334" x2="730.2066666666667" y1="146" y2="144" /><line stroke="#56a64b" stroke-width="4" x1="730.2066666666667" x2="735.9746666666667" y1="144" y2="144" /><line stroke="#56a64b" stroke-width="4" x1="735.9746666666667" x2="741.7426666666668" y1="144" y2="136" /><line stroke="#56a64b" stroke-width="4" x1="741.7426666666668" x2="747.5200000000001" y1="136" y2="141" /><line stroke="#56a64b" stroke-width="4" x1="747.5200000000001" x2="753.288" y1="141" y2="146" /><line stroke="#56a64b" stroke-width="4" x1="753.288" x2="759.0653333333333" y1="146" y2="146" /><line stroke="#56a64b" stroke-width="4" x1="759.0653333333333" x2="764.8333333333334" y1="146" y2="141" /><line stroke="#56a64b" stroke-width="4" x1="764.8333333333334" x2="770.6106666666667" y1="141" y2="138" /><line stroke="#56a64b" stroke-width="4" x1="770.6106666666667" x2="776.3786666666667" y1="138" y2="141" /><line stroke="#56a64b" stroke-width="4" x1="776.3786666666667" x2="782.1466666666668" y1="141" y2="138" /><line stroke="#56a64b" stroke-width="4" x1="782.1466666666668" x2="787.9240000000001" y1="138" y2="134" /><line stroke="#56a64b" stroke-width="4" x1="787.9240000000001" x2="793.692" y1="134" y2="141" /><line stroke="#56a64b" stroke-width="4" x1="793.692" x2="799.4693333333333" y1="141" y2="138" /><line stroke="#56a64b" stroke-width="4" x1="799.4693333333333" x2="805.2373333333334" y1="138" y2="133" /><line stroke="#56a64b" stroke-width="4" x1="805.2373333333334" x2="811.0053333333334" y1="133" y2="138" /><line stroke="#56a64b" stroke-width="4" x1="811.0053333333334" x2="816.7826666666667" y1="138" y2="141" /><line stroke="#56a64b" stroke-width="4" x1="816.7826666666667" x2="822.5506666666668" y1="141" y2="149" /><line stroke="#56a64b" stroke-width="4" x1="822.5506666666668" x2="828.3280000000001" y1="149" y2="148" /><line stroke="#56a64b" stroke-width="4" x1="828.3280000000001" x2="834.0960000000001" y1="148" y2="154" /><line stroke="#56a64b" stroke-width="4" x1="834.0960000000001" x2="839.864" y1="154" y2="146" /><line stroke="#56a64b" stroke-width="4" x1="839.864" x2="845.6413333333334" y1="146" y2="138" /><line stroke="#56a64b" stroke-width="4" x1="845.6413333333334" x2="851.4093333333334" y1="138" y2="139" /><line stroke="#56a64b" stroke-width="4" x1="851.4093333333334" x2="857.1866666666667" y1="139" y2="138" /><line stroke="#56a64b" stroke-width="4" x1="857.1866666666667" x2="862.9546666666668" y1="138" y2="151" /><line stroke="#56a64b" stroke-width="4" x1="862.9546666666668" x2="868.7226666666668" y1="151" y2="159" /><line stroke="#56a64b" stroke-width="4" x1="868.7226666666668" x2="874.5000000000001" y1="159" y2="152" /><line stroke="#56a64b" stroke-width="4" x1="874.5000000000001" x2="880.268" y1="152" y2="164" /><line stroke="#56a64b" stroke-width="4" x1="880.268" x2="886.0453333333334" y1="164" y2="164" /><line stroke="#56a64b" stroke-width="4" x1="886.0453333333334" x2="891.8133333333334" y1="164" y2="159" /><line stroke="#56a64b" stroke-width="4" x1="891.8133333333334" x2="897.5813333333334" y1="159" y2="156" /><line stroke="#56a64b" stroke-width="4" x1="897.5813333333334" x2="903.3586666666667" y1="156" y2="157" /><line stroke="#56a64b" stroke-width="4" x1="903.3586666666667" x2="909.1266666666668" y1="157" y2="161" /><text fill="#A9A9A9" font-size="20px" style="font-family:Arial" text-anchor="end" x="920" y="30.0">2023-12-26 14:40:41</text><text fill="#A9A9A9" font-size="24px" style="font-family:Arial" text-anchor="middle" x="500.0" y="28.0">Windrichtung</text><text fill="#A9A9A9" font-size="24px" style="font-family:Arial" text-anchor="start" x="80" y="28.0">Südhang</text></svg>