<?xml version="1.0" encoding="utf-8" ?>
<svg baseProfile="full" height="500" version="1.1" width="1000" xmlns="http://www.w3.org/2000/svg" xmlns:ev="http://www.w3.org/2001/xml-events" xmlns:xlink="http://www.w3.org/1999/xlink"><defs /><rect fill="#000000" height="500" width="1000" x="0" y="0" /><line stroke="#808080" x1="80" x2="920" y1="40.0" y2="40.0" /><line stroke="#808080" x1="80" x2="920" y1="92.5" y2="92.5" /><line stroke="#808080" x1="80" x2="920" y1="145.0" y2="145.0" /><line stroke="#808080" x1="80" x2="920" y1="197.5" y2="197.5" /><line stroke="#808080" x1="80" x2="920" y1="250.0" y2="250.0" /><line stroke="#808080" x1="80" x2="920" y1="302.5" y2="302.5" /><line stroke="#808080" x1="80" x2="920" y1="355.0" y2="355.0" /><line stroke="#808080" x1="80" x2="920" y1="407.5" y2="407.5" /><line stroke="#808080" x1="80" x2="920" y1="460.0" y2="460.0" /><line stroke="#808080" x1="80.0" x2="80.0" y1="40" y2="460" /><line stroke="#808080" x1="113.6" x2="113.6" y1="40" y2="460" /><line stroke="#808080" x1="147.2" x2="147.2" y1="40" y2="460" /><line stroke="#808080" x1="180.79999999999998" x2="180.79999999999998" y1="40" y2="460" /><line stroke="#808080" x1="214.39999999999998" x2="214.39999999999998" y1="40" y2="460" /><line stroke="#808080" x1="247.99999999999997" x2="247.99999999999997" y1="40" y2="460" /><line stroke="#808080" x1="281.59999999999997" x2="281.59999999999997" y1="40" y2="460" /><line stroke="#808080" x1="315.19999999999993" x2="315.19999999999993" y1="40" y2="460" /><line stroke="#808080" x1="348.79999999999995" x2="348.79999999999995" y1="40" y2="460" /><line stroke="#808080" x1="382.4" x2="382.4" y1="40" y2="460" /><line stroke="#808080" x1="415.99999999999994" x2="415.99999999999994" y1="40" y2="460" /><line stroke="#808080" x1="449.5999999999999" x2="449.5999999999999" y1="40" y2="460" /><line stroke="#808080" x1="483.19999999999993" x2="483.19999999999993" y1="40" y2="460" /><line stroke="#808080" x1="516.8" x2="516.8" y1="40" y2="460" /><line stroke="#808080" x1="550.3999999999999" x2="550.3999999999999" y1="40" y2="460" /><line stroke="#808080" x1="583.9999999999999" x2="583.9999999999999" y1="40" y2="460" /><line stroke="#808080" x1="617.5999999999999" x2="617.5999999999999" y1="40" y2="460" /><line stroke="#808080" x1="651.1999999999999" x2="651.1999999999999" y1="40" y2="460" /><line stroke="#808080" x1="684.8" x2="684.8" y1="40" y2="460" /><line stroke="#808080" x1="718.3999999999999" x2="718.3999999999999" y1="40" y2="460" /><line stroke="#808080" x1="751.9999999999999" x2="751.9999999999999" y1="40" y2="460" /><line stroke="#808080" x1="785.5999999999999" x2="785.5999999999999" y1="40" y2="460" /><line stroke="#808080" x1="819.1999999999998" x2="819.1999999999998" y1="40" y2="460" /><line stroke="#808080" x1="852.7999999999998" x2="852.7999999999998" y1="40" y2="460" /><line stroke="#808080" x1="886.3999999999999" x2="886.3999999999999" y1="40" y2="460" /><line stroke="#808080" x1="919.9999999999999" x2="919.9999999999999" y1="40" y2="460" /><text fill="#A9A9A9" font-size="20px" style="font-family:Arial" text-anchor="middle" x="40.0" y="50.0"> N</text><text fill="#A9A9A9" font-size="20px" style="font-family:Arial" text-anchor="middle" x="40.0" y="102.5">NW</text><text fill="#A9A9A9" font-size="20px" style="font-family:Arial" text-anchor="middle" x="40.0" y="155.0"> W</text><text fill="#A9A9A9" font-size="20px" style="font-family:Arial" text-anchor="middle" x="40.0" y="207.5">SW</text><text fill="#A9A9A9" font-size="20px" style="font-family:Arial" text-anchor="middle" x="40.0" y="260.0"> S</text><text fill="#A9A9A9" font-size="20px" style="font-family:Arial" text-anchor="middle" x="40.0" y="312.5">SO</text><text fill="#A9A9A9" font-size="20px" style="font-family:Arial" text-anchor="middle" x="40.0" y="365.0"> O</text><text fill="#A9A9A9" font-size="20px" style="font-family:Arial" text-anchor="middle" x="40.0" y="417.5">NO</text><text fill="#A9A9A9" font-size="20px" style="font-family:Arial" text-anchor="middle" x="40.0" y="470.0"> N</text><text fill="#A9A9A9" font-size="20px" style="font-family:Arial" text-anchor="middle" x="960.0" y="50.0"> N</text><text fill="#A9A9A9" font-size="20px" style="font-family:Arial" text-anchor="middle" x="960.0" y="102.5">NW</text><text fill="#A9A9A9" font-size="20px" style="font-family:Arial" text-anchor="middle" x="960.0" y="155.0"> W</text><text fill="#A9A9A9" font-size="20px" style="font-family:Arial" text-anchor="middle" x="960.0" y="207.5">SW</text><text fill="#A9A9A9" font-size="20px" style="font-family:Arial" text-anchor="middle" x="960.0" y="260.0"> S</text><text fill="#A9A9A9" font-size="20px" style="font-family:Arial" text-anchor="middle" x="960.0" y="312.5">SO</text><text fill="#A9A9A9" font-size="20px" style="font-family:Arial" text-anchor="middle" x="960.0" y="365.0"> O</text><text fill="#A9A9A9" font-size="20px" style="font-family:Arial" text-anchor="middle" x="960.0" y="417.5">NO</text><text fill="#A9A9A9" font-size="20px" style="font-family:Arial" text-anchor="middle" x="960.0" y="470.0"> N</text><text fill="#A9A9A9" font-size="17px" style="font-family:Arial" text-anchor="start" x="71" y="487">10</text><text fill="#A9A9A9" font-size="17px" style="font-family:Arial" text-anchor="start" x="106" y="487">11</text><text fill="#A9A9A9" font-size="17px" style="font-family:Arial" text-anchor="start" x="138" y="487">12</text><text fill="#A9A9A9" font-size="17px" style="font-family:Arial" text-anchor="start" x="171" y="487">13</text><text fill="#A9A9A9" font-size="17px" style="font-family:Arial" text-anchor="start" x="205" y="487">14</text><text fill="#A9A9A9" font-size="17px" style="font-family:Arial" text-anchor="start" x="238" y="487">15</text><text fill="#A9A9A9" font-size="17px" style="font-family:Arial" text-anchor="start" x="272" y="487">16</text><text fill="#A9A9A9" font-size="17px" style="font-family:Arial" text-anchor="start" x="306" y="487">17</text><text fill="#A9A9A9" font-size="17px" style="font-family:Arial" text-anchor="start" x="339" y="487">18</text><text fill="#A9A9A9" font-size="17px" style="font-family:Arial" text-anchor="start" x="373" y="487">19</text><text fill="#A9A9A9" font-size="17px" style="font-family:Arial" text-anchor="start" x="406" y="487">20</text><text fill="#A9A9A9" font-size="17px" style="font-family:Arial" text-anchor="start" x="441" y="487">21</text><text fill="#A9A9A9" font-size="17px" style="font-family:Arial" text-anchor="start" x="474" y="487">22</text><text fill="#A9A9A9" font-size="17px" style="font-family:Arial" text-anchor="start" x="507" y="487">23</text><text fill="#A9A9A9" font-size="17px" style="font-family:Arial" text-anchor="start" x="545" y="487">0</text><text fill="#A9A9A9" font-size="17px" style="font-family:Arial" text-anchor="start" x="580" y="487">1</text><text fill="#A9A9A9" font-size="17px" style="font-family:Arial" text-anchor="start" x="613" y="487">2</text><text fill="#A9A9A9" font-size="17px" style="font-family:Arial" text-anchor="start" x="646" y="487">3</text><text fill="#A9A9A9" font-size="17px" style="font-family:Arial" text-anchor="start" x="680" y="487">4</text><text fill="#A9A9A9" font-size="17px" style="font-family:Arial" text-anchor="start" x="713" y="487">5</text><text fill="#A9A9A9" font-size="17px" style="font-family:Arial" text-anchor="start" x="747" y="487">6</text><text fill="#A9A9A9" font-size="17px" style="font-family:Arial" text-anchor="start" x="781" y="487">7</text><text fill="#A9A9A9" font-size="17px" style="font-family:Arial" text-anchor="start" x="814" y="487">8</text><text fill="#A9A9A9" font-size="17px" style="font-family:Arial" text-anchor="start" x="848" y="487">9</text><text fill="#A9A9A9" font-size="17px" style="font-family:Arial" text-anchor="start" x="877" y="487">10</text><text fill="#A9A9A9" font-size="17px" style="font-family:Arial" text-anchor="start" x="912" y="487">11</text><line stroke="#FFA500" x1="80" x2="920" y1="302.5" y2="302.5" /><line stroke="#FFA500" x1="80" x2="920" y1="197.5" y2="197.5" /><circle cx="91.18133333333333" cy="159" fill="#56a64b" r="2" /><circle cx="96.95866666666667" cy="162" fill="#56a64b" r="2" /><circle cx="102.72666666666667" cy="157" fill="#56a64b" r="2" /><circle cx="108.49466666666666" cy="164" fill="#56a64b" r="2" /><circle cx="114.272" cy="162" fill="#56a64b" r="2" /><circle cx="120.04" cy="166" fill="#56a64b" r="2" /><circle cx="125.81733333333334" cy="161" fill="#56a64b" r="2" /><circle cx="131.58533333333332" cy="164" fill="#56a64b" r="2" /><circle cx="137.35333333333335" cy="167" fill="#56a64b" r="2" /><circle cx="143.13066666666668" cy="166" fill="#56a64b" r="2" /><circle cx="148.89866666666666" cy="162" fill="#56a64b" r="2" /><circle cx="154.676" cy="162" fill="#56a64b" r="2" /><circle cx="160.44400000000002" cy="159" fill="#56a64b" r="2" /><circle cx="166.22133333333335" cy="157" fill="#56a64b" r="2" /><circle cx="166.39866666666666" cy="157" fill="#56a64b" r="2" /><circle cx="171.98933333333332" cy="157" fill="#56a64b" r="2" /><circle cx="177.75733333333335" cy="162" fill="#56a64b" r="2" /><circle cx="183.53466666666668" cy="159" fill="#56a64b" r="2" /><circle cx="189.30266666666668" cy="154" fill="#56a64b" r="2" /><circle cx="195.08" cy="162" fill="#56a64b" r="2" /><circle cx="200.848" cy="157" fill="#56a64b" r="2" /><circle cx="206.616" cy="159" fill="#56a64b" r="2" /><circle cx="212.39333333333335" cy="157" fill="#56a64b" r="2" /><circle cx="218.16133333333335" cy="161" fill="#56a64b" r="2" /><circle cx="223.93866666666668" cy="162" fill="#56a64b" r="2" /><circle cx="229.70666666666668" cy="159" fill="#56a64b" r="2" /><circle cx="235.596" cy="159" fill="#56a64b" r="2" /><circle cx="241.252" cy="159" fill="#56a64b" r="2" /><circle cx="247.02" cy="154" fill="#56a64b" r="2" /><circle cx="252.79733333333334" cy="157" fill="#56a64b" r="2" /><circle cx="258.56533333333334" cy="156" fill="#56a64b" r="2" /><circle cx="264.3426666666667" cy="156" fill="#56a64b" r="2" /><circle cx="270.1106666666667" cy="156" fill="#56a64b" r="2" /><circle cx="275.8786666666667" cy="157" fill="#56a64b" r="2" /><circle cx="281.656" cy="159" fill="#56a64b" r="2" /><circle cx="287.424" cy="159" fill="#56a64b" r="2" /><circle cx="293.2013333333333" cy="162" fill="#56a64b" r="2" /><circle cx="298.96933333333334" cy="164" fill="#56a64b" r="2" /><circle cx="304.74666666666667" cy="169" fill="#56a64b" r="2" /><circle cx="310.5146666666667" cy="171" fill="#56a64b" r="2" /><circle cx="316.2826666666667" cy="159" fill="#56a64b" r="2" /><circle cx="322.06000000000006" cy="171" fill="#56a64b" r="2" /><circle cx="327.82800000000003" cy="166" fill="#56a64b" r="2" /><circle cx="333.60533333333336" cy="164" fill="#56a64b" r="2" /><circle cx="339.37333333333333" cy="167" fill="#56a64b" r="2" /><circle cx="345.14133333333336" cy="159" fill="#56a64b" r="2" /><circle cx="350.9186666666667" cy="162" fill="#56a64b" r="2" /><circle cx="356.68666666666667" cy="162" fill="#56a64b" r="2" /><circle cx="362.464" cy="162" fill="#56a64b" r="2" /><circle cx="368.232" cy="164" fill="#56a64b" r="2" /><circle cx="374.0" cy="162" fill="#56a64b" r="2" /><circle cx="379.77733333333333" cy="162" fill="#56a64b" r="2" /><circle cx="385.54533333333336" cy="164" fill="#56a64b" r="2" /><circle cx="391.3226666666667" cy="164" fill="#56a64b" r="2" /><circle cx="397.0906666666667" cy="166" fill="#56a64b" r="2" /><circle cx="402.8586666666667" cy="169" fill="#56a64b" r="2" /><circle cx="408.636" cy="169" fill="#56a64b" r="2" /><circle cx="414.46933333333334" cy="172" fill="#56a64b" r="2" /><circle cx="420.1813333333334" cy="171" fill="#56a64b" r="2" /><circle cx="425.94933333333336" cy="169" fill="#56a64b" r="2" /><circle cx="431.7266666666667" cy="172" fill="#56a64b" r="2" /><circle cx="437.4946666666667" cy="166" fill="#56a64b" r="2" /><circle cx="443.2626666666667" cy="171" fill="#56a64b" r="2" /><circle cx="449.04" cy="169" fill="#56a64b" r="2" /><circle cx="454.80800000000005" cy="167" fill="#56a64b" r="2" /><circle cx="460.64133333333336" cy="169" fill="#56a64b" r="2" /><circle cx="466.35333333333335" cy="172" fill="#56a64b" r="2" /><circle cx="472.1213333333334" cy="174" fill="#56a64b" r="2" /><circle cx="477.8986666666667" cy="172" fill="#56a64b" r="2" /><circle cx="483.6666666666667" cy="174" fill="#56a64b" r="2" /><circle cx="489.444" cy="171" fill="#56a64b" r="2" /><circle cx="495.21200000000005" cy="176" fill="#56a64b" r="2" /><circle cx="500.98" cy="174" fill="#56a64b" r="2" /><circle cx="506.75733333333335" cy="176" fill="#56a64b" r="2" /><circle cx="512.5253333333334" cy="174" fill="#56a64b" r="2" /><circle cx="518.3026666666667" cy="174" fill="#56a64b" r="2" /><circle cx="524.0706666666667" cy="174" fill="#56a64b" r="2" /><circle cx="529.8386666666668" cy="182" fill="#56a64b" r="2" /><circle cx="535.616" cy="176" fill="#56a64b" r="2" /><circle cx="541.384" cy="177" fill="#56a64b" r="2" /><circle cx="547.1613333333333" cy="176" fill="#56a64b" r="2" /><circle cx="552.9293333333334" cy="177" fill="#56a64b" r="2" /><circle cx="558.6973333333333" cy="180" fill="#56a64b" r="2" /><circle cx="564.4746666666667" cy="180" fill="#56a64b" r="2" /><circle cx="570.2426666666668" cy="179" fill="#56a64b" r="2" /><circle cx="576.02" cy="179" fill="#56a64b" r="2" /><circle cx="581.788" cy="180" fill="#56a64b" r="2" /><circle cx="587.556" cy="182" fill="#56a64b" r="2" /><circle cx="593.3986666666667" cy="177" fill="#56a64b" r="2" /><circle cx="599.1013333333334" cy="180" fill="#56a64b" r="2" /><circle cx="604.8786666666667" cy="179" fill="#56a64b" r="2" /><circle cx="610.6466666666668" cy="180" fill="#56a64b" r="2" /><circle cx="616.4146666666667" cy="177" fill="#56a64b" r="2" /><circle cx="622.192" cy="179" fill="#56a64b" r="2" /><circle cx="627.96" cy="179" fill="#56a64b" r="2" /><circle cx="633.7373333333334" cy="177" fill="#56a64b" r="2" /><circle cx="639.5053333333334" cy="179" fill="#56a64b" r="2" /><circle cx="645.2826666666667" cy="179" fill="#56a64b" r="2" /><circle cx="651.0506666666668" cy="174" fill="#56a64b" r="2" /><circle cx="656.8186666666667" cy="179" fill="#56a64b" r="2" /><circle cx="662.652" cy="176" fill="#56a64b" r="2" /><circle cx="668.364" cy="179" fill="#56a64b" r="2" /><circle cx="674.1413333333334" cy="177" fill="#56a64b" r="2" /><circle cx="679.9093333333334" cy="177" fill="#56a64b" r="2" /><circle cx="685.6773333333334" cy="174" fill="#56a64b" r="2" /><circle cx="691.4546666666668" cy="177" fill="#56a64b" r="2" /><circle cx="697.2226666666667" cy="172" fill="#56a64b" r="2" /><circle cx="703.0" cy="171" fill="#56a64b" r="2" /><circle cx="708.768" cy="169" fill="#56a64b" r="2" /><circle cx="714.5360000000001" cy="171" fill="#56a64b" r="2" /><circle cx="720.3133333333334" cy="167" fill="#56a64b" r="2" /><circle cx="726.0813333333334" cy="167" fill="#56a64b" r="2" /><circle cx="731.8493333333333" cy="166" fill="#56a64b" r="2" /><circle cx="737.6266666666667" cy="166" fill="#56a64b" r="2" /><circle cx="743.3946666666667" cy="164" fill="#56a64b" r="2" /><circle cx="749.172" cy="162" fill="#56a64b" r="2" /><circle cx="754.94" cy="162" fill="#56a64b" r="2" /><circle cx="760.7080000000001" cy="161" fill="#56a64b" r="2" /><circle cx="766.4853333333334" cy="159" fill="#56a64b" r="2" /><circle cx="772.2533333333334" cy="159" fill="#56a64b" r="2" /><circle cx="778.0306666666668" cy="164" fill="#56a64b" r="2" /><circle cx="783.7986666666667" cy="162" fill="#56a64b" r="2" /><circle cx="789.5666666666667" cy="161" fill="#56a64b" r="2" /><circle cx="795.344" cy="159" fill="#56a64b" r="2" /><circle cx="801.1120000000001" cy="159" fill="#56a64b" r="2" /><circle cx="806.8893333333334" cy="157" fill="#56a64b" r="2" /><circle cx="812.6573333333334" cy="157" fill="#56a64b" r="2" /><circle cx="818.4253333333334" cy="156" fill="#56a64b" r="2" /><circle cx="824.2026666666667" cy="156" fill="#56a64b" r="2" /><circle cx="829.9706666666667" cy="157" fill="#56a64b" r="2" /><circle cx="835.748" cy="149" fill="#56a64b" r="2" /><circle cx="841.5160000000001" cy="149" fill="#56a64b" r="2" /><circle cx="847.2840000000001" cy="152" fill="#56a64b" r="2" /><circle cx="853.0613333333334" cy="152" fill="#56a64b" r="2" /><circle cx="858.8293333333334" cy="146" fill="#56a64b" r="2" /><circle cx="864.6066666666667" cy="144" fill="#56a64b" r="2" /><circle cx="870.3746666666667" cy="144" fill="#56a64b" r="2" /><circle cx="876.1426666666667" cy="136" fill="#56a64b" r="2" /><circle cx="881.9200000000001" cy="141" fill="#56a64b" r="2" /><circle cx="887.6880000000001" cy="146" fill="#56a64b" r="2" /><circle cx="893.4653333333334" cy="146" fill="#56a64b" r="2" /><line stroke="#56a64b" stroke-width="4" x1="91.18133333333333" x2="96.95866666666667" y1="159" y2="162" /><line stroke="#56a64b" stroke-width="4" x1="96.95866666666667" x2="102.72666666666667" y1="162" y2="157" /><line stroke="#56a64b" stroke-width="4" x1="102.72666666666667" x2="108.49466666666666" y1="157" y2="164" /><line stroke="#56a64b" stroke-width="4" x1="108.49466666666666" x2="114.272" y1="164" y2="162" /><line stroke="#56a64b" stroke-width="4" x1="114.272" x2="120.04" y1="162" y2="166" /><line stroke="#56a64b" stroke-width="4" x1="120.04" x2="125.81733333333334" y1="166" y2="161" /><line stroke="#56a64b" stroke-width="4" x1="125.81733333333334" x2="131.58533333333332" y1="161" y2="164" /><line stroke="#56a64b" stroke-width="4" x1="131.58533333333332" x2="137.35333333333335" y1="164" y2="167" /><line stroke="#56a64b" stroke-width="4" x1="137.35333333333335" x2="143.13066666666668" y1="167" y2="166" /><line stroke="#56a64b" stroke-width="4" x1="143.13066666666668" x2="148.89866666666666" y1="166" y2="162" /><line stroke="#56a64b" stroke-width="4" x1="148.89866666666666" x2="154.676" y1="162" y2="162" /><line stroke="#56a64b" stroke-width="4" x1="154.676" x2="160.44400000000002" y1="162" y2="159" /><line stroke="#56a64b" stroke-width="4" x1="160.44400000000002" x2="166.22133333333335" y1="159" y2="157" /><line stroke="#56a64b" stroke-width="4" x1="166.22133333333335" x2="166.39866666666666" y1="157" y2="157" /><line stroke="#56a64b" stroke-width="4" x1="166.39866666666666" x2="171.98933333333332" y1="157" y2="157" /><line stroke="#56a64b" stroke-width="4" x1="171.98933333333332" x2="177.75733333333335" y1="157" y2="162" /><line stroke="#56a64b" stroke-width="4" x1="177.75733333333335" x2="183.53466666666668" y1="162" y2="159" /><line stroke="#56a64b" stroke-width="4" x1="183.53466666666668" x2="189.30266666666668" y1="159" y2="154" /><line stroke="#56a64b" stroke-width="4" x1="189.30266666666668" x2="195.08" y1="154" y2="162" /><line stroke="#56a64b" stroke-width="4" x1="195.08" x2="200.848" y1="162" y2="157" /><line stroke="#56a64b" stroke-width="4" x1="200.848" x2="206.616" y1="157" y2="159" /><line stroke="#56a64b" stroke-width="4" x1="206.616" x2="212.39333333333335" y1="159" y2="157" /><line stroke="#56a64b" stroke-width="4" x1="212.39333333333335" x2="218.16133333333335" y1="157" y2="161" /><line stroke="#56a64b" stroke-width="4" x1="218.16133333333335" x2="223.93866666666668" y1="161" y2="162" /><line stroke="#56a64b" stroke-width="4" x1="223.93866666666668" x2="229.70666666666668" y1="162" y2="159" /><line stroke="#56a64b" stroke-width="4" x1="229.70666666666668" x2="235.596" y1="159" y2="159" /><line stroke="#56a64b" stroke-width="4" x1="235.596" x2="241.252" y1="159" y2="159" /><line stroke="#56a64b" stroke-width="4" x1="241.252" x2="247.02" y1="159" y2="154" /><line stroke="#56a64b" stroke-width="4" x1="247.02" x2="252.79733333333334" y1="154" y2="157" /><line stroke="#56a64b" stroke-width="4" x1="252.79733333333334" x2="258.56533333333334" y1="157" y2="156" /><line stroke="#56a64b" stroke-width="4" x1="258.56533333333334" x2="264.3426666666667" y1="156" y2="156" /><line stroke="#56a64b" stroke-width="4" x1="264.3426666666667" x2="270.1106666666667" y1="156" y2="156" /><line stroke="#56a64b" stroke-width="4" x1="270.1106666666667" x2="275.8786666666667" y1="156" y2="157" /><line stroke="#56a64b" stroke-width="4" x1="275.8786666666667" x2="281.656" y1="157" y2="159" /><line stroke="#56a64b" stroke-width="4" x1="281.656" x2="287.424" y1="159" y2="159" /><line stroke="#56a64b" stroke-width="4" x1="287.424" x2="293.2013333333333" y1="159" y2="162" /><line stroke="#56a64b" stroke-width="4" x1="293.2013333333333" x2="298.96933333333334" y1="162" y2="164" /><line stroke="#56a64b" stroke-width="4" x1="298.96933333333334" x2="304.74666666666667" y1="164" y2="169" /><line stroke="#56a64b" stroke-width="4" x1="304.74666666666667" x2="310.5146666666667" y1="169" y2="171" /><line stroke="#56a64b" stroke-width="4" x1="310.5146666666667" x2="316.2826666666667" y1="171" y2="159" /><line stroke="#56a64b" stroke-width="4" x1="316.2826666666667" x2="322.06000000000006" y1="159" y2="171" /><line stroke="#56a64b" stroke-width="4" x1="322.06000000000006" x2="327.82800000000003" y1="171" y2="166" /><line stroke="#56a64b" stroke-width="4" x1="327.82800000000003" x2="333.60533333333336" y1="166" y2="164" /><line stroke="#56a64b" stroke-width="4" x1="333.60533333333336" x2="339.37333333333333" y1="164" y2="167" /><line stroke="#56a64b" stroke-width="4" x1="339.37333333333333" x2="345.14133333333336" y1="167" y2="159" /><line stroke="#56a64b" stroke-width="4" x1="345.14133333333336" x2="350.9186666666667" y1="159" y2="162" /><line stroke="#56a64b" stroke-width="4" x1="350.9186666666667" x2="356.68666666666667" y1="162" y2="162" /><line stroke="#56a64b" stroke-width="4" x1="356.68666666666667" x2="362.464" y1="162" y2="162" /><line stroke="#56a64b" stroke-width="4" x1="362.464" x2="368.232" y1="162" y2="164" /><line stroke="#56a64b" stroke-width="4" x1="368.232" x2="374.0" y1="164" y2="162" /><line stroke="#56a64b" stroke-width="4" x1="374.0" x2="379.77733333333333" y1="162" y2="162" /><line stroke="#56a64b" stroke-width="4" x1="379.77733333333333" x2="385.54533333333336" y1="162" y2="164" /><line stroke="#56a64b" stroke-width="4" x1="385.54533333333336" x2="391.3226666666667" y1="164" y2="164" /><line stroke="#56a64b" stroke-width="4" x1="391.3226666666667" x2="397.0906666666667" y1="164" y2="166" /><line stroke="#56a64b" stroke-width="4" x1="397.0906666666667" x2="402.8586666666667" y1="166" y2="169" /><line stroke="#56a64b" stroke-width="4" x1="402.8586666666667" x2="408.636" y1="169" y2="169" /><line stroke="#56a64b" stroke-width="4" x1="408.636" x2="414.46933333333334" y1="169" y2="172" /><line stroke="#56a64b" stroke-width="4" x1="414.46933333333334" x2="420.1813333333334" y1="172" y2="171" /><line stroke="#56a64b" stroke-width="4" x1="420.1813333333334" x2="425.94933333333336" y1="171" y2="169" /><line stroke="#56a64b" stroke-width="4" x1="425.94933333333336" x2="431.7266666666667" y1="169" y2="172" /><line stroke="#56a64b" stroke-width="4" x1="431.7266666666667" x2="437.4946666666667" y1="172" y2="166" /><line stroke="#56a64b" stroke-width="4" x1="437.4946666666667" x2="443.2626666666667" y1="166" y2="171" /><line stroke="#56a64b" stroke-width="4" x1="443.2626666666667" x2="449.04" y1="171" y2="169" /><line stroke="#56a64b" stroke-width="4" x1="449.04" x2="454.80800000000005" y1="169" y2="167" /><line stroke="#56a64b" stroke-width="4" x1="454.80800000000005" x2="460.64133333333336" y1="167" y2="169" /><line stroke="#56a64b" stroke-width="4" x1="460.64133333333336" x2="466.35333333333335" y1="169" y2="172" /><line stroke="#56a64b" stroke-width="4" x1="466.35333333333335" x2="472.1213333333334" y1="172" y2="174" /><line stroke="#56a64b" stroke-width="4" x1="472.1213333333334" x2="477.8986666666667" y1="174" y2="172" /><line stroke="#56a64b" stroke-width="4" x1="477.8986666666667" x2="483.6666666666667" y1="172" y2="174" /><line stroke="#56a64b" stroke-width="4" x1="483.6666666666667" x2="489.444" y1="174" y2="171" /><line stroke="#56a64b" stroke-width="4" x1="489.444" x2="495.21200000000005" y1="171" y2="176" /><line stroke="#56a64b" stroke-width="4" x1="495.21200000000005" x2="500.98" y1="176" y2="174" /><line stroke="#56a64b" stroke-width="4" x1="500.98" x2="506.75733333333335" y1="174" y2="176" /><line stroke="#56a64b" stroke-width="4" x1="506.75733333333335" x2="512.5253333333334" y1="176" y2="174" /><line stroke="#56a64b" stroke-width="4" x1="512.5253333333334" x2="518.3026666666667" y1="174" y2="174" /><line stroke="#56a64b" stroke-width="4" x1="518.3026666666667" x2="524.0706666666667" y1="174" y2="174" /><line stroke="#56a64b" stroke-width="4" x1="524.0706666666667" x2="529.8386666666668" y1="174" y2="182" /><line stroke="#56a64b" stroke-width="4" x1="529.8386666666668" x2="535.616" y1="182" y2="176" /><line stroke="#56a64b" stroke-width="4" x1="535.616" x2="541.384" y1="176" y2="177" /><line stroke="#56a64b" stroke-width="4" x1="541.384" x2="547.1613333333333" y1="177" y2="176" /><line stroke="#56a64b" stroke-width="4" x1="547.1613333333333" x2="552.9293333333334" y1="176" y2="177" /><line stroke="#56a64b" stroke-width="4" x1="552.9293333333334" x2="558.6973333333333" y1="177" y2="180" /><line stroke="#56a64b" stroke-width="4" x1="558.6973333333333" x2="564.4746666666667" y1="180" y2="180" /><line stroke="#56a64b" stroke-width="4" x1="564.4746666666667" x2="570.2426666666668" y1="180" y2="179" /><line stroke="#56a64b" stroke-width="4" x1="570.2426666666668" x2="576.02" y1="179" y2="179" /><line stroke="#56a64b" stroke-width="4" x1="576.02" x2="581.788" y1="179" y2="180" /><line stroke="#56a64b" stroke-width="4" x1="581.788" x2="587.556" y1="180" y2="182" /><line stroke="#56a64b" stroke-width="4" x1="587.556" x2="593.3986666666667" y1="182" y2="177" /><line stroke="#56a64b" stroke-width="4" x1="593.3986666666667" x2="599.1013333333334" y1="177" y2="180" /><line stroke="#56a64b" stroke-width="4" x1="599.1013333333334" x2="604.8786666666667" y1="180" y2="179" /><line stroke="#56a64b" stroke-width="4" x1="604.8786666666667" x2="610.6466666666668" y1="179" y2="180" /><line stroke="#56a64b" stroke-width="4" x1="610.6466666666668" x2="616.4146666666667" y1="180" y2="177" /><line stroke="#56a64b" stroke-width="4" x1="616.4146666666667" x2="622.192" y1="177" y2="179" /><line stroke="#56a64b" stroke-width="4" x1="622.192" x2="627.96" y1="179" y2="179" /><line stroke="#56a64b" stroke-width="4" x1="627.96" x2="633.7373333333334" y1="179" y2="177" /><line stroke="#56a64b" stroke-width="4" x1="633.7373333333334" x2="639.5053333333334" y1="177" y2="179" /><line stroke="#56a64b" stroke-width="4" x1="639.5053333333334" x2="645.2826666666667" y1="179" y2="179" /><line stroke="#56a64b" stroke-width="4" x1="645.2826666666667" x2="651.0506666666668" y1="179" y2="174" /><line stroke="#56a64b" stroke-width="4" x1="651.0506666666668" x2="656.8186666666667" y1="174" y2="179" /><line stroke="#56a64b" stroke-width="4" x1="656.8186666666667" x2="662.652" y1="179" y2="176" /><line stroke="#56a64b" stroke-width="4" x1="662.652" x2="668.364" y1="176" y2="179" /><line stroke="#56a64b" stroke-width="4" x1="668.364" x2="674.1413333333334" y1="179" y2="177" /><line stroke="#56a64b" stroke-width="4" x1="674.1413333333334" x2="679.9093333333334" y1="177" y2="177" /><line stroke="#56a64b" stroke-width="4" x1="679.9093333333334" x2="685.6773333333334" y1="177" y2="174" /><line stroke="#56a64b" stroke-width="4" x1="685.6773333333334" x2="691.4546666666668" y1="174" y2="177" /><line stroke="#56a64b" stroke-width="4" x1="691.4546666666668" x2="697.2226666666667" y1="177" y2="172" /><line stroke="#56a64b" stroke-width="4" x1="697.2226666666667" x2="703.0" y1="172" y2="171" /><line stroke="#56a64b" stroke-width="4" x1="703.0" x2="708.768" y1="171" y2="169" /><line stroke="#56a64b" stroke-width="4" x1="708.768" x2="714.5360000000001" y1="169" y2="171" /><line stroke="#56a64b" stroke-width="4" x1="714.5360000000001" x2="720.3133333333334" y1="171" y2="167" /><line stroke="#56a64b" stroke-width="4" x1="720.3133333333334" x2="726.0813333333334" y1="167" y2="167" /><line stroke="#56a64b" stroke-width="4" x1="726.0813333333334" x2="731.8493333333333" y1="167" y2="166" /><line stroke="#56a64b" stroke-width="4" x1="731.8493333333333" x2="737.6266666666667" y1="166" y2="166" /><line stroke="#56a64b" stroke-width="4" x1="737.6266666666667" x2="743.3946666666667" y1="166" y2="164" /><line stroke="#56a64b" stroke-width="4" x1="743.3946666666667" x2="749.172" y1="164" y2="162" /><line stroke="#56a64b" stroke-width="4" x1="749.172" x2="754.94" y1="162" y2="162" /><line stroke="#56a64b" stroke-width="4" x1="754.94" x2="760.7080000000001" y1="162" y2="161" /><line stroke="#56a64b" stroke-width="4" x1="760.7080000000001" x2="766.4853333333334" y1="161" y2="159" /><line stroke="#56a64b" stroke-width="4" x1="766.4853333333334" x2="772.2533333333334" y1="159" y2="159" /><line stroke="#56a64b" stroke-width="4" x1="772.2533333333334" x2="778.0306666666668" y1="159" y2="164" /><line stroke="#56a64b" stroke-width="4" x1="778.0306666666668" x2="783.7986666666667" y1="164" y2="162" /><line stroke="#56a64b" stroke-width="4" x1="783.7986666666667" x2="789.5666666666667" y1="162" y2="161" /><line stroke="#56a64b" stroke-width="4" x1="789.5666666666667" x2="795.344" y1="161" y2="159" /><line stroke="#56a64b" stroke-width="4" x1="795.344" x2="801.1120000000001" y1="159" y2="159" /><line stroke="#56a64b" stroke-width="4" x1="801.1120000000001" x2="806.8893333333334" y1="159" y2="157" /><line stroke="#56a64b" stroke-width="4" x1="806.8893333333334" x2="812.6573333333334" y1="157" y2="157" /><line stroke="#56a64b" stroke-width="4" x1="812.6573333333334" x2="818.4253333333334" y1="157" y2="156" /><line stroke="#56a64b" stroke-width="4" x1="818.4253333333334" x2="824.2026666666667" y1="156" y2="156" /><line stroke="#56a64b" stroke-width="4" x1="824.2026666666667" x2="829.9706666666667" y1="156" y2="157" /><line stroke="#56a64b" stroke-width="4" x1="829.9706666666667" x2="835.748" y1="157" y2="149" /><line stroke="#56a64b" stroke-width="4" x1="835.748" x2="841.5160000000001" y1="149" y2="149" /><line stroke="#56a64b" stroke-width="4" x1="841.5160000000001" x2="847.2840000000001" y1="149" y2="152" /><line stroke="#56a64b" stroke-width="4" x1="847.2840000000001" x2="853.0613333333334" y1="152" y2="152" /><line stroke="#56a64b" stroke-width="4" x1="853.0613333333334" x2="858.8293333333334" y1="152" y2="146" /><line stroke="#56a64b" stroke-width="4" x1="858.8293333333334" x2="864.6066666666667" y1="146" y2="144" /><line stroke="#56a64b" stroke-width="4" x1="864.6066666666667" x2="870.3746666666667" y1="144" y2="144" /><line stroke="#56a64b" stroke-width="4" x1="870.3746666666667" x2="876.1426666666667" y1="144" y2="136" /><line stroke="#56a64b" stroke-width="4" x1="876.1426666666667" x2="881.9200000000001" y1="136" y2="141" /><line stroke="#56a64b" stroke-width="4" x1="881.9200000000001" x2="887.6880000000001" y1="141" y2="146" /><line stroke="#56a64b" stroke-width="4" x1="887.6880000000001" x2="893.4653333333334" y1="146" y2="146" /><text fill="#A9A9A9" font-size="20px" style="font-family:Arial" text-anchor="end" x="920" y="30.0">2023-12-26 10:12:42</text><text fill="#A9A9A9" font-size="24px" style="font-family:Arial" text-anchor="middle" x="500.0" y="28.0">Windrichtung</text><text fill="#A9A9A9" font-size="24px" style="font-family:Arial" text-anchor="start" x="80" y="28.0">Südhang</text></svg>