<?xml version="1.0" encoding="utf-8" ?>
<svg baseProfile="full" height="500" version="1.1" width="1000" xmlns="http://www.w3.org/2000/svg" xmlns:ev="http://www.w3.org/2001/xml-events" xmlns:xlink="http://www.w3.org/1999/xlink"><defs /><rect fill="#000000" height="500" width="1000" x="0" y="0" /><line stroke="#808080" x1="80" x2="920" y1="40.0" y2="40.0" /><line stroke="#808080" x1="80" x2="920" y1="92.5" y2="92.5" /><line stroke="#808080" x1="80" x2="920" y1="145.0" y2="145.0" /><line stroke="#808080" x1="80" x2="920" y1="197.5" y2="197.5" /><line stroke="#808080" x1="80" x2="920" y1="250.0" y2="250.0" /><line stroke="#808080" x1="80" x2="920" y1="302.5" y2="302.5" /><line stroke="#808080" x1="80" x2="920" y1="355.0" y2="355.0" /><line stroke="#808080" x1="80" x2="920" y1="407.5" y2="407.5" /><line stroke="#808080" x1="80" x2="920" y1="460.0" y2="460.0" /><line stroke="#808080" x1="80.0" x2="80.0" y1="40" y2="460" /><line stroke="#808080" x1="113.6" x2="113.6" y1="40" y2="460" /><line stroke="#808080" x1="147.2" x2="147.2" y1="40" y2="460" /><line stroke="#808080" x1="180.79999999999998" x2="180.79999999999998" y1="40" y2="460" /><line stroke="#808080" x1="214.39999999999998" x2="214.39999999999998" y1="40" y2="460" /><line stroke="#808080" x1="247.99999999999997" x2="247.99999999999997" y1="40" y2="460" /><line stroke="#808080" x1="281.59999999999997" x2="281.59999999999997" y1="40" y2="460" /><line stroke="#808080" x1="315.19999999999993" x2="315.19999999999993" y1="40" y2="460" /><line stroke="#808080" x1="348.79999999999995" x2="348.79999999999995" y1="40" y2="460" /><line stroke="#808080" x1="382.4" x2="382.4" y1="40" y2="460" /><line stroke="#808080" x1="415.99999999999994" x2="415.99999999999994" y1="40" y2="460" /><line stroke="#808080" x1="449.5999999999999" x2="449.5999999999999" y1="40" y2="460" /><line stroke="#808080" x1="483.19999999999993" x2="483.19999999999993" y1="40" y2="460" /><line stroke="#808080" x1="516.8" x2="516.8" y1="40" y2="460" /><line stroke="#808080" x1="550.3999999999999" x2="550.3999999999999" y1="40" y2="460" /><line stroke="#808080" x1="583.9999999999999" x2="583.9999999999999" y1="40" y2="460" /><line stroke="#808080" x1="617.5999999999999" x2="617.5999999999999" y1="40" y2="460" /><line stroke="#808080" x1="651.1999999999999" x2="651.1999999999999" y1="40" y2="460" /><line stroke="#808080" x1="684.8" x2="684.8" y1="40" y2="460" /><line stroke="#808080" x1="718.3999999999999" x2="718.3999999999999" y1="40" y2="460" /><line stroke="#808080" x1="751.9999999999999" x2="751.9999999999999" y1="40" y2="460" /><line stroke="#808080" x1="785.5999999999999" x2="785.5999999999999" y1="40" y2="460" /><line stroke="#808080" x1="819.1999999999998" x2="819.1999999999998" y1="40" y2="460" /><line stroke="#808080" x1="852.7999999999998" x2="852.7999999999998" y1="40" y2="460" /><line stroke="#808080" x1="886.3999999999999" x2="886.3999999999999" y1="40" y2="460" /><line stroke="#808080" x1="919.9999999999999" x2="919.9999999999999" y1="40" y2="460" /><text fill="#A9A9A9" font-size="20px" style="font-family:Arial" text-anchor="middle" x="40.0" y="50.0"> N</text><text fill="#A9A9A9" font-size="20px" style="font-family:Arial" text-anchor="middle" x="40.0" y="102.5">NW</text><text fill="#A9A9A9" font-size="20px" style="font-family:Arial" text-anchor="middle" x="40.0" y="155.0"> W</text><text fill="#A9A9A9" font-size="20px" style="font-family:Arial" text-anchor="middle" x="40.0" y="207.5">SW</text><text fill="#A9A9A9" font-size="20px" style="font-family:Arial" text-anchor="middle" x="40.0" y="260.0"> S</text><text fill="#A9A9A9" font-size="20px" style="font-family:Arial" text-anchor="middle" x="40.0" y="312.5">SO</text><text fill="#A9A9A9" font-size="20px" style="font-family:Arial" text-anchor="middle" x="40.0" y="365.0"> O</text><text fill="#A9A9A9" font-size="20px" style="font-family:Arial" text-anchor="middle" x="40.0" y="417.5">NO</text><text fill="#A9A9A9" font-size="20px" style="font-family:Arial" text-anchor="middle" x="40.0" y="470.0"> N</text><text fill="#A9A9A9" font-size="20px" style="font-family:Arial" text-anchor="middle" x="960.0" y="50.0"> N</text><text fill="#A9A9A9" font-size="20px" style="font-family:Arial" text-anchor="middle" x="960.0" y="102.5">NW</text><text fill="#A9A9A9" font-size="20px" style="font-family:Arial" text-anchor="middle" x="960.0" y="155.0"> W</text><text fill="#A9A9A9" font-size="20px" style="font-family:Arial" text-anchor="middle" x="960.0" y="207.5">SW</text><text fill="#A9A9A9" font-size="20px" style="font-family:Arial" text-anchor="middle" x="960.0" y="260.0"> S</text><text fill="#A9A9A9" font-size="20px" style="font-family:Arial" text-anchor="middle" x="960.0" y="312.5">SO</text><text fill="#A9A9A9" font-size="20px" style="font-family:Arial" text-anchor="middle" x="960.0" y="365.0"> O</text><text fill="#A9A9A9" font-size="20px" style="font-family:Arial" text-anchor="middle" x="960.0" y="417.5">NO</text><text fill="#A9A9A9" font-size="20px" style="font-family:Arial" text-anchor="middle" x="960.0" y="470.0"> N</text><text fill="#A9A9A9" font-size="17px" style="font-family:Arial" text-anchor="start" x="71" y="487">13</text><text fill="#A9A9A9" font-size="17px" style="font-family:Arial" text-anchor="start" x="104" y="487">14</text><text fill="#A9A9A9" font-size="17px" style="font-family:Arial" text-anchor="start" x="138" y="487">15</text><text fill="#A9A9A9" font-size="17px" style="font-family:Arial" text-anchor="start" x="171" y="487">16</text><text fill="#A9A9A9" font-size="17px" style="font-family:Arial" text-anchor="start" x="205" y="487">17</text><text fill="#A9A9A9" font-size="17px" style="font-family:Arial" text-anchor="start" x="238" y="487">18</text><text fill="#A9A9A9" font-size="17px" style="font-family:Arial" text-anchor="start" x="272" y="487">19</text><text fill="#A9A9A9" font-size="17px" style="font-family:Arial" text-anchor="start" x="306" y="487">20</text><text fill="#A9A9A9" font-size="17px" style="font-family:Arial" text-anchor="start" x="340" y="487">21</text><text fill="#A9A9A9" font-size="17px" style="font-family:Arial" text-anchor="start" x="373" y="487">22</text><text fill="#A9A9A9" font-size="17px" style="font-family:Arial" text-anchor="start" x="406" y="487">23</text><text fill="#A9A9A9" font-size="17px" style="font-family:Arial" text-anchor="start" x="445" y="487">0</text><text fill="#A9A9A9" font-size="17px" style="font-family:Arial" text-anchor="start" x="479" y="487">1</text><text fill="#A9A9A9" font-size="17px" style="font-family:Arial" text-anchor="start" x="512" y="487">2</text><text fill="#A9A9A9" font-size="17px" style="font-family:Arial" text-anchor="start" x="545" y="487">3</text><text fill="#A9A9A9" font-size="17px" style="font-family:Arial" text-anchor="start" x="579" y="487">4</text><text fill="#A9A9A9" font-size="17px" style="font-family:Arial" text-anchor="start" x="613" y="487">5</text><text fill="#A9A9A9" font-size="17px" style="font-family:Arial" text-anchor="start" x="646" y="487">6</text><text fill="#A9A9A9" font-size="17px" style="font-family:Arial" text-anchor="start" x="680" y="487">7</text><text fill="#A9A9A9" font-size="17px" style="font-family:Arial" text-anchor="start" x="713" y="487">8</text><text fill="#A9A9A9" font-size="17px" style="font-family:Arial" text-anchor="start" x="747" y="487">9</text><text fill="#A9A9A9" font-size="17px" style="font-family:Arial" text-anchor="start" x="776" y="487">10</text><text fill="#A9A9A9" font-size="17px" style="font-family:Arial" text-anchor="start" x="811" y="487">11</text><text fill="#A9A9A9" font-size="17px" style="font-family:Arial" text-anchor="start" x="843" y="487">12</text><text fill="#A9A9A9" font-size="17px" style="font-family:Arial" text-anchor="start" x="877" y="487">13</text><text fill="#A9A9A9" font-size="17px" style="font-family:Arial" text-anchor="start" x="910" y="487">14</text><line stroke="#FFA500" x1="80" x2="920" y1="302.5" y2="302.5" /><line stroke="#FFA500" x1="80" x2="920" y1="197.5" y2="197.5" /><circle cx="105.816" cy="159" fill="#56a64b" r="2" /><circle cx="111.59333333333333" cy="157" fill="#56a64b" r="2" /><circle cx="117.36133333333333" cy="161" fill="#56a64b" r="2" /><circle cx="123.13866666666667" cy="162" fill="#56a64b" r="2" /><circle cx="128.90666666666667" cy="159" fill="#56a64b" r="2" /><circle cx="134.796" cy="159" fill="#56a64b" r="2" /><circle cx="140.452" cy="159" fill="#56a64b" r="2" /><circle cx="146.22" cy="154" fill="#56a64b" r="2" /><circle cx="151.99733333333336" cy="157" fill="#56a64b" r="2" /><circle cx="157.76533333333333" cy="156" fill="#56a64b" r="2" /><circle cx="163.54266666666666" cy="156" fill="#56a64b" r="2" /><circle cx="169.3106666666667" cy="156" fill="#56a64b" r="2" /><circle cx="175.07866666666666" cy="157" fill="#56a64b" r="2" /><circle cx="180.856" cy="159" fill="#56a64b" r="2" /><circle cx="186.62400000000002" cy="159" fill="#56a64b" r="2" /><circle cx="192.40133333333335" cy="162" fill="#56a64b" r="2" /><circle cx="198.16933333333333" cy="164" fill="#56a64b" r="2" /><circle cx="203.94666666666666" cy="169" fill="#56a64b" r="2" /><circle cx="209.7146666666667" cy="171" fill="#56a64b" r="2" /><circle cx="215.4826666666667" cy="159" fill="#56a64b" r="2" /><circle cx="221.26000000000002" cy="171" fill="#56a64b" r="2" /><circle cx="227.02800000000002" cy="166" fill="#56a64b" r="2" /><circle cx="232.80533333333335" cy="164" fill="#56a64b" r="2" /><circle cx="238.57333333333335" cy="167" fill="#56a64b" r="2" /><circle cx="244.34133333333335" cy="159" fill="#56a64b" r="2" /><circle cx="250.11866666666668" cy="162" fill="#56a64b" r="2" /><circle cx="255.88666666666668" cy="162" fill="#56a64b" r="2" /><circle cx="261.664" cy="162" fill="#56a64b" r="2" /><circle cx="267.432" cy="164" fill="#56a64b" r="2" /><circle cx="273.20000000000005" cy="162" fill="#56a64b" r="2" /><circle cx="278.9773333333334" cy="162" fill="#56a64b" r="2" /><circle cx="284.74533333333335" cy="164" fill="#56a64b" r="2" /><circle cx="290.5226666666667" cy="164" fill="#56a64b" r="2" /><circle cx="296.29066666666665" cy="166" fill="#56a64b" r="2" /><circle cx="302.0586666666667" cy="169" fill="#56a64b" r="2" /><circle cx="307.836" cy="169" fill="#56a64b" r="2" /><circle cx="313.6693333333334" cy="172" fill="#56a64b" r="2" /><circle cx="319.3813333333334" cy="171" fill="#56a64b" r="2" /><circle cx="325.14933333333335" cy="169" fill="#56a64b" r="2" /><circle cx="330.9266666666667" cy="172" fill="#56a64b" r="2" /><circle cx="336.6946666666667" cy="166" fill="#56a64b" r="2" /><circle cx="342.4626666666667" cy="171" fill="#56a64b" r="2" /><circle cx="348.24" cy="169" fill="#56a64b" r="2" /><circle cx="354.00800000000004" cy="167" fill="#56a64b" r="2" /><circle cx="359.84133333333335" cy="169" fill="#56a64b" r="2" /><circle cx="365.55333333333334" cy="172" fill="#56a64b" r="2" /><circle cx="371.32133333333337" cy="174" fill="#56a64b" r="2" /><circle cx="377.0986666666667" cy="172" fill="#56a64b" r="2" /><circle cx="382.8666666666667" cy="174" fill="#56a64b" r="2" /><circle cx="388.644" cy="171" fill="#56a64b" r="2" /><circle cx="394.41200000000003" cy="176" fill="#56a64b" r="2" /><circle cx="400.18" cy="174" fill="#56a64b" r="2" /><circle cx="405.95733333333334" cy="176" fill="#56a64b" r="2" /><circle cx="411.72533333333337" cy="174" fill="#56a64b" r="2" /><circle cx="417.5026666666667" cy="174" fill="#56a64b" r="2" /><circle cx="423.27066666666667" cy="174" fill="#56a64b" r="2" /><circle cx="429.0386666666667" cy="182" fill="#56a64b" r="2" /><circle cx="434.81600000000003" cy="176" fill="#56a64b" r="2" /><circle cx="440.584" cy="177" fill="#56a64b" r="2" /><circle cx="446.3613333333334" cy="176" fill="#56a64b" r="2" /><circle cx="452.12933333333336" cy="177" fill="#56a64b" r="2" /><circle cx="457.8973333333334" cy="180" fill="#56a64b" r="2" /><circle cx="463.6746666666667" cy="180" fill="#56a64b" r="2" /><circle cx="469.4426666666667" cy="179" fill="#56a64b" r="2" /><circle cx="475.22" cy="179" fill="#56a64b" r="2" /><circle cx="480.98800000000006" cy="180" fill="#56a64b" r="2" /><circle cx="486.75600000000003" cy="182" fill="#56a64b" r="2" /><circle cx="492.5986666666667" cy="177" fill="#56a64b" r="2" /><circle cx="498.3013333333334" cy="180" fill="#56a64b" r="2" /><circle cx="504.0786666666667" cy="179" fill="#56a64b" r="2" /><circle cx="509.8466666666667" cy="180" fill="#56a64b" r="2" /><circle cx="515.6146666666667" cy="177" fill="#56a64b" r="2" /><circle cx="521.392" cy="179" fill="#56a64b" r="2" /><circle cx="527.1600000000001" cy="179" fill="#56a64b" r="2" /><circle cx="532.9373333333333" cy="177" fill="#56a64b" r="2" /><circle cx="538.7053333333333" cy="179" fill="#56a64b" r="2" /><circle cx="544.4826666666668" cy="179" fill="#56a64b" r="2" /><circle cx="550.2506666666667" cy="174" fill="#56a64b" r="2" /><circle cx="556.0186666666667" cy="179" fill="#56a64b" r="2" /><circle cx="561.8520000000001" cy="176" fill="#56a64b" r="2" /><circle cx="567.5640000000001" cy="179" fill="#56a64b" r="2" /><circle cx="573.3413333333333" cy="177" fill="#56a64b" r="2" /><circle cx="579.1093333333333" cy="177" fill="#56a64b" r="2" /><circle cx="584.8773333333334" cy="174" fill="#56a64b" r="2" /><circle cx="590.6546666666667" cy="177" fill="#56a64b" r="2" /><circle cx="596.4226666666667" cy="172" fill="#56a64b" r="2" /><circle cx="602.2" cy="171" fill="#56a64b" r="2" /><circle cx="607.9680000000001" cy="169" fill="#56a64b" r="2" /><circle cx="613.736" cy="171" fill="#56a64b" r="2" /><circle cx="619.5133333333333" cy="167" fill="#56a64b" r="2" /><circle cx="625.2813333333334" cy="167" fill="#56a64b" r="2" /><circle cx="631.0493333333334" cy="166" fill="#56a64b" r="2" /><circle cx="636.8266666666667" cy="166" fill="#56a64b" r="2" /><circle cx="642.5946666666667" cy="164" fill="#56a64b" r="2" /><circle cx="648.3720000000001" cy="162" fill="#56a64b" r="2" /><circle cx="654.1400000000001" cy="162" fill="#56a64b" r="2" /><circle cx="659.908" cy="161" fill="#56a64b" r="2" /><circle cx="665.6853333333333" cy="159" fill="#56a64b" r="2" /><circle cx="671.4533333333334" cy="159" fill="#56a64b" r="2" /><circle cx="677.2306666666667" cy="164" fill="#56a64b" r="2" /><circle cx="682.9986666666667" cy="162" fill="#56a64b" r="2" /><circle cx="688.7666666666668" cy="161" fill="#56a64b" r="2" /><circle cx="694.5440000000001" cy="159" fill="#56a64b" r="2" /><circle cx="700.312" cy="159" fill="#56a64b" r="2" /><circle cx="706.0893333333333" cy="157" fill="#56a64b" r="2" /><circle cx="711.8573333333334" cy="157" fill="#56a64b" r="2" /><circle cx="717.6253333333334" cy="156" fill="#56a64b" r="2" /><circle cx="723.4026666666667" cy="156" fill="#56a64b" r="2" /><circle cx="729.1706666666668" cy="157" fill="#56a64b" r="2" /><circle cx="734.9480000000001" cy="149" fill="#56a64b" r="2" /><circle cx="740.716" cy="149" fill="#56a64b" r="2" /><circle cx="746.484" cy="152" fill="#56a64b" r="2" /><circle cx="752.2613333333334" cy="152" fill="#56a64b" r="2" /><circle cx="758.0293333333334" cy="146" fill="#56a64b" r="2" /><circle cx="763.8066666666667" cy="144" fill="#56a64b" r="2" /><circle cx="769.5746666666668" cy="144" fill="#56a64b" r="2" /><circle cx="775.3426666666667" cy="136" fill="#56a64b" r="2" /><circle cx="781.12" cy="141" fill="#56a64b" r="2" /><circle cx="786.888" cy="146" fill="#56a64b" r="2" /><circle cx="792.6653333333334" cy="146" fill="#56a64b" r="2" /><circle cx="798.4333333333334" cy="141" fill="#56a64b" r="2" /><circle cx="804.2106666666667" cy="138" fill="#56a64b" r="2" /><circle cx="809.9786666666668" cy="141" fill="#56a64b" r="2" /><circle cx="815.7466666666668" cy="138" fill="#56a64b" r="2" /><circle cx="821.5240000000001" cy="134" fill="#56a64b" r="2" /><circle cx="827.292" cy="141" fill="#56a64b" r="2" /><circle cx="833.0693333333334" cy="138" fill="#56a64b" r="2" /><circle cx="838.8373333333334" cy="133" fill="#56a64b" r="2" /><circle cx="844.6053333333334" cy="138" fill="#56a64b" r="2" /><circle cx="850.3826666666668" cy="141" fill="#56a64b" r="2" /><circle cx="856.1506666666668" cy="149" fill="#56a64b" r="2" /><circle cx="861.9280000000001" cy="148" fill="#56a64b" r="2" /><circle cx="867.696" cy="154" fill="#56a64b" r="2" /><circle cx="873.464" cy="146" fill="#56a64b" r="2" /><circle cx="879.2413333333334" cy="138" fill="#56a64b" r="2" /><circle cx="885.0093333333334" cy="139" fill="#56a64b" r="2" /><circle cx="890.7866666666667" cy="138" fill="#56a64b" r="2" /><circle cx="896.5546666666668" cy="151" fill="#56a64b" r="2" /><circle cx="902.3226666666667" cy="159" fill="#56a64b" r="2" /><circle cx="908.1" cy="152" fill="#56a64b" r="2" /><line stroke="#56a64b" stroke-width="4" x1="105.816" x2="111.59333333333333" y1="159" y2="157" /><line stroke="#56a64b" stroke-width="4" x1="111.59333333333333" x2="117.36133333333333" y1="157" y2="161" /><line stroke="#56a64b" stroke-width="4" x1="117.36133333333333" x2="123.13866666666667" y1="161" y2="162" /><line stroke="#56a64b" stroke-width="4" x1="123.13866666666667" x2="128.90666666666667" y1="162" y2="159" /><line stroke="#56a64b" stroke-width="4" x1="128.90666666666667" x2="134.796" y1="159" y2="159" /><line stroke="#56a64b" stroke-width="4" x1="134.796" x2="140.452" y1="159" y2="159" /><line stroke="#56a64b" stroke-width="4" x1="140.452" x2="146.22" y1="159" y2="154" /><line stroke="#56a64b" stroke-width="4" x1="146.22" x2="151.99733333333336" y1="154" y2="157" /><line stroke="#56a64b" stroke-width="4" x1="151.99733333333336" x2="157.76533333333333" y1="157" y2="156" /><line stroke="#56a64b" stroke-width="4" x1="157.76533333333333" x2="163.54266666666666" y1="156" y2="156" /><line stroke="#56a64b" stroke-width="4" x1="163.54266666666666" x2="169.3106666666667" y1="156" y2="156" /><line stroke="#56a64b" stroke-width="4" x1="169.3106666666667" x2="175.07866666666666" y1="156" y2="157" /><line stroke="#56a64b" stroke-width="4" x1="175.07866666666666" x2="180.856" y1="157" y2="159" /><line stroke="#56a64b" stroke-width="4" x1="180.856" x2="186.62400000000002" y1="159" y2="159" /><line stroke="#56a64b" stroke-width="4" x1="186.62400000000002" x2="192.40133333333335" y1="159" y2="162" /><line stroke="#56a64b" stroke-width="4" x1="192.40133333333335" x2="198.16933333333333" y1="162" y2="164" /><line stroke="#56a64b" stroke-width="4" x1="198.16933333333333" x2="203.94666666666666" y1="164" y2="169" /><line stroke="#56a64b" stroke-width="4" x1="203.94666666666666" x2="209.7146666666667" y1="169" y2="171" /><line stroke="#56a64b" stroke-width="4" x1="209.7146666666667" x2="215.4826666666667" y1="171" y2="159" /><line stroke="#56a64b" stroke-width="4" x1="215.4826666666667" x2="221.26000000000002" y1="159" y2="171" /><line stroke="#56a64b" stroke-width="4" x1="221.26000000000002" x2="227.02800000000002" y1="171" y2="166" /><line stroke="#56a64b" stroke-width="4" x1="227.02800000000002" x2="232.80533333333335" y1="166" y2="164" /><line stroke="#56a64b" stroke-width="4" x1="232.80533333333335" x2="238.57333333333335" y1="164" y2="167" /><line stroke="#56a64b" stroke-width="4" x1="238.57333333333335" x2="244.34133333333335" y1="167" y2="159" /><line stroke="#56a64b" stroke-width="4" x1="244.34133333333335" x2="250.11866666666668" y1="159" y2="162" /><line stroke="#56a64b" stroke-width="4" x1="250.11866666666668" x2="255.88666666666668" y1="162" y2="162" /><line stroke="#56a64b" stroke-width="4" x1="255.88666666666668" x2="261.664" y1="162" y2="162" /><line stroke="#56a64b" stroke-width="4" x1="261.664" x2="267.432" y1="162" y2="164" /><line stroke="#56a64b" stroke-width="4" x1="267.432" x2="273.20000000000005" y1="164" y2="162" /><line stroke="#56a64b" stroke-width="4" x1="273.20000000000005" x2="278.9773333333334" y1="162" y2="162" /><line stroke="#56a64b" stroke-width="4" x1="278.9773333333334" x2="284.74533333333335" y1="162" y2="164" /><line stroke="#56a64b" stroke-width="4" x1="284.74533333333335" x2="290.5226666666667" y1="164" y2="164" /><line stroke="#56a64b" stroke-width="4" x1="290.5226666666667" x2="296.29066666666665" y1="164" y2="166" /><line stroke="#56a64b" stroke-width="4" x1="296.29066666666665" x2="302.0586666666667" y1="166" y2="169" /><line stroke="#56a64b" stroke-width="4" x1="302.0586666666667" x2="307.836" y1="169" y2="169" /><line stroke="#56a64b" stroke-width="4" x1="307.836" x2="313.6693333333334" y1="169" y2="172" /><line stroke="#56a64b" stroke-width="4" x1="313.6693333333334" x2="319.3813333333334" y1="172" y2="171" /><line stroke="#56a64b" stroke-width="4" x1="319.3813333333334" x2="325.14933333333335" y1="171" y2="169" /><line stroke="#56a64b" stroke-width="4" x1="325.14933333333335" x2="330.9266666666667" y1="169" y2="172" /><line stroke="#56a64b" stroke-width="4" x1="330.9266666666667" x2="336.6946666666667" y1="172" y2="166" /><line stroke="#56a64b" stroke-width="4" x1="336.6946666666667" x2="342.4626666666667" y1="166" y2="171" /><line stroke="#56a64b" stroke-width="4" x1="342.4626666666667" x2="348.24" y1="171" y2="169" /><line stroke="#56a64b" stroke-width="4" x1="348.24" x2="354.00800000000004" y1="169" y2="167" /><line stroke="#56a64b" stroke-width="4" x1="354.00800000000004" x2="359.84133333333335" y1="167" y2="169" /><line stroke="#56a64b" stroke-width="4" x1="359.84133333333335" x2="365.55333333333334" y1="169" y2="172" /><line stroke="#56a64b" stroke-width="4" x1="365.55333333333334" x2="371.32133333333337" y1="172" y2="174" /><line stroke="#56a64b" stroke-width="4" x1="371.32133333333337" x2="377.0986666666667" y1="174" y2="172" /><line stroke="#56a64b" stroke-width="4" x1="377.0986666666667" x2="382.8666666666667" y1="172" y2="174" /><line stroke="#56a64b" stroke-width="4" x1="382.8666666666667" x2="388.644" y1="174" y2="171" /><line stroke="#56a64b" stroke-width="4" x1="388.644" x2="394.41200000000003" y1="171" y2="176" /><line stroke="#56a64b" stroke-width="4" x1="394.41200000000003" x2="400.18" y1="176" y2="174" /><line stroke="#56a64b" stroke-width="4" x1="400.18" x2="405.95733333333334" y1="174" y2="176" /><line stroke="#56a64b" stroke-width="4" x1="405.95733333333334" x2="411.72533333333337" y1="176" y2="174" /><line stroke="#56a64b" stroke-width="4" x1="411.72533333333337" x2="417.5026666666667" y1="174" y2="174" /><line stroke="#56a64b" stroke-width="4" x1="417.5026666666667" x2="423.27066666666667" y1="174" y2="174" /><line stroke="#56a64b" stroke-width="4" x1="423.27066666666667" x2="429.0386666666667" y1="174" y2="182" /><line stroke="#56a64b" stroke-width="4" x1="429.0386666666667" x2="434.81600000000003" y1="182" y2="176" /><line stroke="#56a64b" stroke-width="4" x1="434.81600000000003" x2="440.584" y1="176" y2="177" /><line stroke="#56a64b" stroke-width="4" x1="440.584" x2="446.3613333333334" y1="177" y2="176" /><line stroke="#56a64b" stroke-width="4" x1="446.3613333333334" x2="452.12933333333336" y1="176" y2="177" /><line stroke="#56a64b" stroke-width="4" x1="452.12933333333336" x2="457.8973333333334" y1="177" y2="180" /><line stroke="#56a64b" stroke-width="4" x1="457.8973333333334" x2="463.6746666666667" y1="180" y2="180" /><line stroke="#56a64b" stroke-width="4" x1="463.6746666666667" x2="469.4426666666667" y1="180" y2="179" /><line stroke="#56a64b" stroke-width="4" x1="469.4426666666667" x2="475.22" y1="179" y2="179" /><line stroke="#56a64b" stroke-width="4" x1="475.22" x2="480.98800000000006" y1="179" y2="180" /><line stroke="#56a64b" stroke-width="4" x1="480.98800000000006" x2="486.75600000000003" y1="180" y2="182" /><line stroke="#56a64b" stroke-width="4" x1="486.75600000000003" x2="492.5986666666667" y1="182" y2="177" /><line stroke="#56a64b" stroke-width="4" x1="492.5986666666667" x2="498.3013333333334" y1="177" y2="180" /><line stroke="#56a64b" stroke-width="4" x1="498.3013333333334" x2="504.0786666666667" y1="180" y2="179" /><line stroke="#56a64b" stroke-width="4" x1="504.0786666666667" x2="509.8466666666667" y1="179" y2="180" /><line stroke="#56a64b" stroke-width="4" x1="509.8466666666667" x2="515.6146666666667" y1="180" y2="177" /><line stroke="#56a64b" stroke-width="4" x1="515.6146666666667" x2="521.392" y1="177" y2="179" /><line stroke="#56a64b" stroke-width="4" x1="521.392" x2="527.1600000000001" y1="179" y2="179" /><line stroke="#56a64b" stroke-width="4" x1="527.1600000000001" x2="532.9373333333333" y1="179" y2="177" /><line stroke="#56a64b" stroke-width="4" x1="532.9373333333333" x2="538.7053333333333" y1="177" y2="179" /><line stroke="#56a64b" stroke-width="4" x1="538.7053333333333" x2="544.4826666666668" y1="179" y2="179" /><line stroke="#56a64b" stroke-width="4" x1="544.4826666666668" x2="550.2506666666667" y1="179" y2="174" /><line stroke="#56a64b" stroke-width="4" x1="550.2506666666667" x2="556.0186666666667" y1="174" y2="179" /><line stroke="#56a64b" stroke-width="4" x1="556.0186666666667" x2="561.8520000000001" y1="179" y2="176" /><line stroke="#56a64b" stroke-width="4" x1="561.8520000000001" x2="567.5640000000001" y1="176" y2="179" /><line stroke="#56a64b" stroke-width="4" x1="567.5640000000001" x2="573.3413333333333" y1="179" y2="177" /><line stroke="#56a64b" stroke-width="4" x1="573.3413333333333" x2="579.1093333333333" y1="177" y2="177" /><line stroke="#56a64b" stroke-width="4" x1="579.1093333333333" x2="584.8773333333334" y1="177" y2="174" /><line stroke="#56a64b" stroke-width="4" x1="584.8773333333334" x2="590.6546666666667" y1="174" y2="177" /><line stroke="#56a64b" stroke-width="4" x1="590.6546666666667" x2="596.4226666666667" y1="177" y2="172" /><line stroke="#56a64b" stroke-width="4" x1="596.4226666666667" x2="602.2" y1="172" y2="171" /><line stroke="#56a64b" stroke-width="4" x1="602.2" x2="607.9680000000001" y1="171" y2="169" /><line stroke="#56a64b" stroke-width="4" x1="607.9680000000001" x2="613.736" y1="169" y2="171" /><line stroke="#56a64b" stroke-width="4" x1="613.736" x2="619.5133333333333" y1="171" y2="167" /><line stroke="#56a64b" stroke-width="4" x1="619.5133333333333" x2="625.2813333333334" y1="167" y2="167" /><line stroke="#56a64b" stroke-width="4" x1="625.2813333333334" x2="631.0493333333334" y1="167" y2="166" /><line stroke="#56a64b" stroke-width="4" x1="631.0493333333334" x2="636.8266666666667" y1="166" y2="166" /><line stroke="#56a64b" stroke-width="4" x1="636.8266666666667" x2="642.5946666666667" y1="166" y2="164" /><line stroke="#56a64b" stroke-width="4" x1="642.5946666666667" x2="648.3720000000001" y1="164" y2="162" /><line stroke="#56a64b" stroke-width="4" x1="648.3720000000001" x2="654.1400000000001" y1="162" y2="162" /><line stroke="#56a64b" stroke-width="4" x1="654.1400000000001" x2="659.908" y1="162" y2="161" /><line stroke="#56a64b" stroke-width="4" x1="659.908" x2="665.6853333333333" y1="161" y2="159" /><line stroke="#56a64b" stroke-width="4" x1="665.6853333333333" x2="671.4533333333334" y1="159" y2="159" /><line stroke="#56a64b" stroke-width="4" x1="671.4533333333334" x2="677.2306666666667" y1="159" y2="164" /><line stroke="#56a64b" stroke-width="4" x1="677.2306666666667" x2="682.9986666666667" y1="164" y2="162" /><line stroke="#56a64b" stroke-width="4" x1="682.9986666666667" x2="688.7666666666668" y1="162" y2="161" /><line stroke="#56a64b" stroke-width="4" x1="688.7666666666668" x2="694.5440000000001" y1="161" y2="159" /><line stroke="#56a64b" stroke-width="4" x1="694.5440000000001" x2="700.312" y1="159" y2="159" /><line stroke="#56a64b" stroke-width="4" x1="700.312" x2="706.0893333333333" y1="159" y2="157" /><line stroke="#56a64b" stroke-width="4" x1="706.0893333333333" x2="711.8573333333334" y1="157" y2="157" /><line stroke="#56a64b" stroke-width="4" x1="711.8573333333334" x2="717.6253333333334" y1="157" y2="156" /><line stroke="#56a64b" stroke-width="4" x1="717.6253333333334" x2="723.4026666666667" y1="156" y2="156" /><line stroke="#56a64b" stroke-width="4" x1="723.4026666666667" x2="729.1706666666668" y1="156" y2="157" /><line stroke="#56a64b" stroke-width="4" x1="729.1706666666668" x2="734.9480000000001" y1="157" y2="149" /><line stroke="#56a64b" stroke-width="4" x1="734.9480000000001" x2="740.716" y1="149" y2="149" /><line stroke="#56a64b" stroke-width="4" x1="740.716" x2="746.484" y1="149" y2="152" /><line stroke="#56a64b" stroke-width="4" x1="746.484" x2="752.2613333333334" y1="152" y2="152" /><line stroke="#56a64b" stroke-width="4" x1="752.2613333333334" x2="758.0293333333334" y1="152" y2="146" /><line stroke="#56a64b" stroke-width="4" x1="758.0293333333334" x2="763.8066666666667" y1="146" y2="144" /><line stroke="#56a64b" stroke-width="4" x1="763.8066666666667" x2="769.5746666666668" y1="144" y2="144" /><line stroke="#56a64b" stroke-width="4" x1="769.5746666666668" x2="775.3426666666667" y1="144" y2="136" /><line stroke="#56a64b" stroke-width="4" x1="775.3426666666667" x2="781.12" y1="136" y2="141" /><line stroke="#56a64b" stroke-width="4" x1="781.12" x2="786.888" y1="141" y2="146" /><line stroke="#56a64b" stroke-width="4" x1="786.888" x2="792.6653333333334" y1="146" y2="146" /><line stroke="#56a64b" stroke-width="4" x1="792.6653333333334" x2="798.4333333333334" y1="146" y2="141" /><line stroke="#56a64b" stroke-width="4" x1="798.4333333333334" x2="804.2106666666667" y1="141" y2="138" /><line stroke="#56a64b" stroke-width="4" x1="804.2106666666667" x2="809.9786666666668" y1="138" y2="141" /><line stroke="#56a64b" stroke-width="4" x1="809.9786666666668" x2="815.7466666666668" y1="141" y2="138" /><line stroke="#56a64b" stroke-width="4" x1="815.7466666666668" x2="821.5240000000001" y1="138" y2="134" /><line stroke="#56a64b" stroke-width="4" x1="821.5240000000001" x2="827.292" y1="134" y2="141" /><line stroke="#56a64b" stroke-width="4" x1="827.292" x2="833.0693333333334" y1="141" y2="138" /><line stroke="#56a64b" stroke-width="4" x1="833.0693333333334" x2="838.8373333333334" y1="138" y2="133" /><line stroke="#56a64b" stroke-width="4" x1="838.8373333333334" x2="844.6053333333334" y1="133" y2="138" /><line stroke="#56a64b" stroke-width="4" x1="844.6053333333334" x2="850.3826666666668" y1="138" y2="141" /><line stroke="#56a64b" stroke-width="4" x1="850.3826666666668" x2="856.1506666666668" y1="141" y2="149" /><line stroke="#56a64b" stroke-width="4" x1="856.1506666666668" x2="861.9280000000001" y1="149" y2="148" /><line stroke="#56a64b" stroke-width="4" x1="861.9280000000001" x2="867.696" y1="148" y2="154" /><line stroke="#56a64b" stroke-width="4" x1="867.696" x2="873.464" y1="154" y2="146" /><line stroke="#56a64b" stroke-width="4" x1="873.464" x2="879.2413333333334" y1="146" y2="138" /><line stroke="#56a64b" stroke-width="4" x1="879.2413333333334" x2="885.0093333333334" y1="138" y2="139" /><line stroke="#56a64b" stroke-width="4" x1="885.0093333333334" x2="890.7866666666667" y1="139" y2="138" /><line stroke="#56a64b" stroke-width="4" x1="890.7866666666667" x2="896.5546666666668" y1="138" y2="151" /><line stroke="#56a64b" stroke-width="4" x1="896.5546666666668" x2="902.3226666666667" y1="151" y2="159" /><line stroke="#56a64b" stroke-width="4" x1="902.3226666666667" x2="908.1" y1="159" y2="152" /><text fill="#A9A9A9" font-size="20px" style="font-family:Arial" text-anchor="end" x="920" y="30.0">2023-12-26 13:38:50</text><text fill="#A9A9A9" font-size="24px" style="font-family:Arial" text-anchor="middle" x="500.0" y="28.0">Windrichtung</text><text fill="#A9A9A9" font-size="24px" style="font-family:Arial" text-anchor="start" x="80" y="28.0">Südhang</text></svg>