<?xml version="1.0" encoding="utf-8" ?>
<svg baseProfile="full" height="500" version="1.1" width="1000" xmlns="http://www.w3.org/2000/svg" xmlns:ev="http://www.w3.org/2001/xml-events" xmlns:xlink="http://www.w3.org/1999/xlink"><defs /><rect fill="#000000" height="500" width="1000" x="0" y="0" /><line stroke="#808080" x1="80" x2="920" y1="40.0" y2="40.0" /><line stroke="#808080" x1="80" x2="920" y1="92.5" y2="92.5" /><line stroke="#808080" x1="80" x2="920" y1="145.0" y2="145.0" /><line stroke="#808080" x1="80" x2="920" y1="197.5" y2="197.5" /><line stroke="#808080" x1="80" x2="920" y1="250.0" y2="250.0" /><line stroke="#808080" x1="80" x2="920" y1="302.5" y2="302.5" /><line stroke="#808080" x1="80" x2="920" y1="355.0" y2="355.0" /><line stroke="#808080" x1="80" x2="920" y1="407.5" y2="407.5" /><line stroke="#808080" x1="80" x2="920" y1="460.0" y2="460.0" /><line stroke="#808080" x1="80.0" x2="80.0" y1="40" y2="460" /><line stroke="#808080" x1="113.6" x2="113.6" y1="40" y2="460" /><line stroke="#808080" x1="147.2" x2="147.2" y1="40" y2="460" /><line stroke="#808080" x1="180.79999999999998" x2="180.79999999999998" y1="40" y2="460" /><line stroke="#808080" x1="214.39999999999998" x2="214.39999999999998" y1="40" y2="460" /><line stroke="#808080" x1="247.99999999999997" x2="247.99999999999997" y1="40" y2="460" /><line stroke="#808080" x1="281.59999999999997" x2="281.59999999999997" y1="40" y2="460" /><line stroke="#808080" x1="315.19999999999993" x2="315.19999999999993" y1="40" y2="460" /><line stroke="#808080" x1="348.79999999999995" x2="348.79999999999995" y1="40" y2="460" /><line stroke="#808080" x1="382.4" x2="382.4" y1="40" y2="460" /><line stroke="#808080" x1="415.99999999999994" x2="415.99999999999994" y1="40" y2="460" /><line stroke="#808080" x1="449.5999999999999" x2="449.5999999999999" y1="40" y2="460" /><line stroke="#808080" x1="483.19999999999993" x2="483.19999999999993" y1="40" y2="460" /><line stroke="#808080" x1="516.8" x2="516.8" y1="40" y2="460" /><line stroke="#808080" x1="550.3999999999999" x2="550.3999999999999" y1="40" y2="460" /><line stroke="#808080" x1="583.9999999999999" x2="583.9999999999999" y1="40" y2="460" /><line stroke="#808080" x1="617.5999999999999" x2="617.5999999999999" y1="40" y2="460" /><line stroke="#808080" x1="651.1999999999999" x2="651.1999999999999" y1="40" y2="460" /><line stroke="#808080" x1="684.8" x2="684.8" y1="40" y2="460" /><line stroke="#808080" x1="718.3999999999999" x2="718.3999999999999" y1="40" y2="460" /><line stroke="#808080" x1="751.9999999999999" x2="751.9999999999999" y1="40" y2="460" /><line stroke="#808080" x1="785.5999999999999" x2="785.5999999999999" y1="40" y2="460" /><line stroke="#808080" x1="819.1999999999998" x2="819.1999999999998" y1="40" y2="460" /><line stroke="#808080" x1="852.7999999999998" x2="852.7999999999998" y1="40" y2="460" /><line stroke="#808080" x1="886.3999999999999" x2="886.3999999999999" y1="40" y2="460" /><line stroke="#808080" x1="919.9999999999999" x2="919.9999999999999" y1="40" y2="460" /><text fill="#A9A9A9" font-size="20px" style="font-family:Arial" text-anchor="middle" x="40.0" y="50.0"> N</text><text fill="#A9A9A9" font-size="20px" style="font-family:Arial" text-anchor="middle" x="40.0" y="102.5">NW</text><text fill="#A9A9A9" font-size="20px" style="font-family:Arial" text-anchor="middle" x="40.0" y="155.0"> W</text><text fill="#A9A9A9" font-size="20px" style="font-family:Arial" text-anchor="middle" x="40.0" y="207.5">SW</text><text fill="#A9A9A9" font-size="20px" style="font-family:Arial" text-anchor="middle" x="40.0" y="260.0"> S</text><text fill="#A9A9A9" font-size="20px" style="font-family:Arial" text-anchor="middle" x="40.0" y="312.5">SO</text><text fill="#A9A9A9" font-size="20px" style="font-family:Arial" text-anchor="middle" x="40.0" y="365.0"> O</text><text fill="#A9A9A9" font-size="20px" style="font-family:Arial" text-anchor="middle" x="40.0" y="417.5">NO</text><text fill="#A9A9A9" font-size="20px" style="font-family:Arial" text-anchor="middle" x="40.0" y="470.0"> N</text><text fill="#A9A9A9" font-size="20px" style="font-family:Arial" text-anchor="middle" x="960.0" y="50.0"> N</text><text fill="#A9A9A9" font-size="20px" style="font-family:Arial" text-anchor="middle" x="960.0" y="102.5">NW</text><text fill="#A9A9A9" font-size="20px" style="font-family:Arial" text-anchor="middle" x="960.0" y="155.0"> W</text><text fill="#A9A9A9" font-size="20px" style="font-family:Arial" text-anchor="middle" x="960.0" y="207.5">SW</text><text fill="#A9A9A9" font-size="20px" style="font-family:Arial" text-anchor="middle" x="960.0" y="260.0"> S</text><text fill="#A9A9A9" font-size="20px" style="font-family:Arial" text-anchor="middle" x="960.0" y="312.5">SO</text><text fill="#A9A9A9" font-size="20px" style="font-family:Arial" text-anchor="middle" x="960.0" y="365.0"> O</text><text fill="#A9A9A9" font-size="20px" style="font-family:Arial" text-anchor="middle" x="960.0" y="417.5">NO</text><text fill="#A9A9A9" font-size="20px" style="font-family:Arial" text-anchor="middle" x="960.0" y="470.0"> N</text><text fill="#A9A9A9" font-size="17px" style="font-family:Arial" text-anchor="start" x="72" y="487">11</text><text fill="#A9A9A9" font-size="17px" style="font-family:Arial" text-anchor="start" x="104" y="487">12</text><text fill="#A9A9A9" font-size="17px" style="font-family:Arial" text-anchor="start" x="138" y="487">13</text><text fill="#A9A9A9" font-size="17px" style="font-family:Arial" text-anchor="start" x="171" y="487">14</text><text fill="#A9A9A9" font-size="17px" style="font-family:Arial" text-anchor="start" x="205" y="487">15</text><text fill="#A9A9A9" font-size="17px" style="font-family:Arial" text-anchor="start" x="238" y="487">16</text><text fill="#A9A9A9" font-size="17px" style="font-family:Arial" text-anchor="start" x="272" y="487">17</text><text fill="#A9A9A9" font-size="17px" style="font-family:Arial" text-anchor="start" x="306" y="487">18</text><text fill="#A9A9A9" font-size="17px" style="font-family:Arial" text-anchor="start" x="339" y="487">19</text><text fill="#A9A9A9" font-size="17px" style="font-family:Arial" text-anchor="start" x="373" y="487">20</text><text fill="#A9A9A9" font-size="17px" style="font-family:Arial" text-anchor="start" x="407" y="487">21</text><text fill="#A9A9A9" font-size="17px" style="font-family:Arial" text-anchor="start" x="440" y="487">22</text><text fill="#A9A9A9" font-size="17px" style="font-family:Arial" text-anchor="start" x="474" y="487">23</text><text fill="#A9A9A9" font-size="17px" style="font-family:Arial" text-anchor="start" x="512" y="487">0</text><text fill="#A9A9A9" font-size="17px" style="font-family:Arial" text-anchor="start" x="546" y="487">1</text><text fill="#A9A9A9" font-size="17px" style="font-family:Arial" text-anchor="start" x="579" y="487">2</text><text fill="#A9A9A9" font-size="17px" style="font-family:Arial" text-anchor="start" x="613" y="487">3</text><text fill="#A9A9A9" font-size="17px" style="font-family:Arial" text-anchor="start" x="646" y="487">4</text><text fill="#A9A9A9" font-size="17px" style="font-family:Arial" text-anchor="start" x="680" y="487">5</text><text fill="#A9A9A9" font-size="17px" style="font-family:Arial" text-anchor="start" x="713" y="487">6</text><text fill="#A9A9A9" font-size="17px" style="font-family:Arial" text-anchor="start" x="747" y="487">7</text><text fill="#A9A9A9" font-size="17px" style="font-family:Arial" text-anchor="start" x="781" y="487">8</text><text fill="#A9A9A9" font-size="17px" style="font-family:Arial" text-anchor="start" x="814" y="487">9</text><text fill="#A9A9A9" font-size="17px" style="font-family:Arial" text-anchor="start" x="843" y="487">10</text><text fill="#A9A9A9" font-size="17px" style="font-family:Arial" text-anchor="start" x="878" y="487">11</text><text fill="#A9A9A9" font-size="17px" style="font-family:Arial" text-anchor="start" x="910" y="487">12</text><line stroke="#FFA500" x1="80" x2="920" y1="302.5" y2="302.5" /><line stroke="#FFA500" x1="80" x2="920" y1="197.5" y2="197.5" /><circle cx="115.29866666666666" cy="162" fill="#56a64b" r="2" /><circle cx="121.076" cy="162" fill="#56a64b" r="2" /><circle cx="126.844" cy="159" fill="#56a64b" r="2" /><circle cx="132.62133333333333" cy="157" fill="#56a64b" r="2" /><circle cx="132.79866666666666" cy="157" fill="#56a64b" r="2" /><circle cx="138.38933333333335" cy="157" fill="#56a64b" r="2" /><circle cx="144.15733333333333" cy="162" fill="#56a64b" r="2" /><circle cx="149.93466666666666" cy="159" fill="#56a64b" r="2" /><circle cx="155.7026666666667" cy="154" fill="#56a64b" r="2" /><circle cx="161.48000000000002" cy="162" fill="#56a64b" r="2" /><circle cx="167.248" cy="157" fill="#56a64b" r="2" /><circle cx="173.01600000000002" cy="159" fill="#56a64b" r="2" /><circle cx="178.79333333333335" cy="157" fill="#56a64b" r="2" /><circle cx="184.56133333333332" cy="161" fill="#56a64b" r="2" /><circle cx="190.33866666666668" cy="162" fill="#56a64b" r="2" /><circle cx="196.10666666666668" cy="159" fill="#56a64b" r="2" /><circle cx="201.996" cy="159" fill="#56a64b" r="2" /><circle cx="207.65200000000002" cy="159" fill="#56a64b" r="2" /><circle cx="213.42000000000002" cy="154" fill="#56a64b" r="2" /><circle cx="219.19733333333335" cy="157" fill="#56a64b" r="2" /><circle cx="224.96533333333335" cy="156" fill="#56a64b" r="2" /><circle cx="230.74266666666668" cy="156" fill="#56a64b" r="2" /><circle cx="236.51066666666668" cy="156" fill="#56a64b" r="2" /><circle cx="242.27866666666668" cy="157" fill="#56a64b" r="2" /><circle cx="248.056" cy="159" fill="#56a64b" r="2" /><circle cx="253.824" cy="159" fill="#56a64b" r="2" /><circle cx="259.60133333333334" cy="162" fill="#56a64b" r="2" /><circle cx="265.3693333333333" cy="164" fill="#56a64b" r="2" /><circle cx="271.14666666666665" cy="169" fill="#56a64b" r="2" /><circle cx="276.9146666666667" cy="171" fill="#56a64b" r="2" /><circle cx="282.6826666666667" cy="159" fill="#56a64b" r="2" /><circle cx="288.46000000000004" cy="171" fill="#56a64b" r="2" /><circle cx="294.228" cy="166" fill="#56a64b" r="2" /><circle cx="300.00533333333334" cy="164" fill="#56a64b" r="2" /><circle cx="305.7733333333333" cy="167" fill="#56a64b" r="2" /><circle cx="311.54133333333334" cy="159" fill="#56a64b" r="2" /><circle cx="317.3186666666667" cy="162" fill="#56a64b" r="2" /><circle cx="323.0866666666667" cy="162" fill="#56a64b" r="2" /><circle cx="328.86400000000003" cy="162" fill="#56a64b" r="2" /><circle cx="334.63200000000006" cy="164" fill="#56a64b" r="2" /><circle cx="340.40000000000003" cy="162" fill="#56a64b" r="2" /><circle cx="346.17733333333337" cy="162" fill="#56a64b" r="2" /><circle cx="351.94533333333334" cy="164" fill="#56a64b" r="2" /><circle cx="357.72266666666667" cy="164" fill="#56a64b" r="2" /><circle cx="363.4906666666667" cy="166" fill="#56a64b" r="2" /><circle cx="369.25866666666667" cy="169" fill="#56a64b" r="2" /><circle cx="375.036" cy="169" fill="#56a64b" r="2" /><circle cx="380.8693333333334" cy="172" fill="#56a64b" r="2" /><circle cx="386.58133333333336" cy="171" fill="#56a64b" r="2" /><circle cx="392.34933333333333" cy="169" fill="#56a64b" r="2" /><circle cx="398.12666666666667" cy="172" fill="#56a64b" r="2" /><circle cx="403.8946666666667" cy="166" fill="#56a64b" r="2" /><circle cx="409.66266666666667" cy="171" fill="#56a64b" r="2" /><circle cx="415.44000000000005" cy="169" fill="#56a64b" r="2" /><circle cx="421.208" cy="167" fill="#56a64b" r="2" /><circle cx="427.04133333333334" cy="169" fill="#56a64b" r="2" /><circle cx="432.7533333333334" cy="172" fill="#56a64b" r="2" /><circle cx="438.52133333333336" cy="174" fill="#56a64b" r="2" /><circle cx="444.2986666666667" cy="172" fill="#56a64b" r="2" /><circle cx="450.0666666666667" cy="174" fill="#56a64b" r="2" /><circle cx="455.84400000000005" cy="171" fill="#56a64b" r="2" /><circle cx="461.612" cy="176" fill="#56a64b" r="2" /><circle cx="467.38000000000005" cy="174" fill="#56a64b" r="2" /><circle cx="473.1573333333334" cy="176" fill="#56a64b" r="2" /><circle cx="478.92533333333336" cy="174" fill="#56a64b" r="2" /><circle cx="484.7026666666667" cy="174" fill="#56a64b" r="2" /><circle cx="490.4706666666667" cy="174" fill="#56a64b" r="2" /><circle cx="496.2386666666667" cy="182" fill="#56a64b" r="2" /><circle cx="502.016" cy="176" fill="#56a64b" r="2" /><circle cx="507.78400000000005" cy="177" fill="#56a64b" r="2" /><circle cx="513.5613333333333" cy="176" fill="#56a64b" r="2" /><circle cx="519.3293333333334" cy="177" fill="#56a64b" r="2" /><circle cx="525.0973333333334" cy="180" fill="#56a64b" r="2" /><circle cx="530.8746666666667" cy="180" fill="#56a64b" r="2" /><circle cx="536.6426666666666" cy="179" fill="#56a64b" r="2" /><circle cx="542.4200000000001" cy="179" fill="#56a64b" r="2" /><circle cx="548.1880000000001" cy="180" fill="#56a64b" r="2" /><circle cx="553.956" cy="182" fill="#56a64b" r="2" /><circle cx="559.7986666666667" cy="177" fill="#56a64b" r="2" /><circle cx="565.5013333333334" cy="180" fill="#56a64b" r="2" /><circle cx="571.2786666666667" cy="179" fill="#56a64b" r="2" /><circle cx="577.0466666666666" cy="180" fill="#56a64b" r="2" /><circle cx="582.8146666666667" cy="177" fill="#56a64b" r="2" /><circle cx="588.5920000000001" cy="179" fill="#56a64b" r="2" /><circle cx="594.36" cy="179" fill="#56a64b" r="2" /><circle cx="600.1373333333333" cy="177" fill="#56a64b" r="2" /><circle cx="605.9053333333334" cy="179" fill="#56a64b" r="2" /><circle cx="611.6826666666667" cy="179" fill="#56a64b" r="2" /><circle cx="617.4506666666667" cy="174" fill="#56a64b" r="2" /><circle cx="623.2186666666668" cy="179" fill="#56a64b" r="2" /><circle cx="629.052" cy="176" fill="#56a64b" r="2" /><circle cx="634.764" cy="179" fill="#56a64b" r="2" /><circle cx="640.5413333333333" cy="177" fill="#56a64b" r="2" /><circle cx="646.3093333333334" cy="177" fill="#56a64b" r="2" /><circle cx="652.0773333333334" cy="174" fill="#56a64b" r="2" /><circle cx="657.8546666666667" cy="177" fill="#56a64b" r="2" /><circle cx="663.6226666666668" cy="172" fill="#56a64b" r="2" /><circle cx="669.4000000000001" cy="171" fill="#56a64b" r="2" /><circle cx="675.168" cy="169" fill="#56a64b" r="2" /><circle cx="680.936" cy="171" fill="#56a64b" r="2" /><circle cx="686.7133333333334" cy="167" fill="#56a64b" r="2" /><circle cx="692.4813333333334" cy="167" fill="#56a64b" r="2" /><circle cx="698.2493333333334" cy="166" fill="#56a64b" r="2" /><circle cx="704.0266666666668" cy="166" fill="#56a64b" r="2" /><circle cx="709.7946666666667" cy="164" fill="#56a64b" r="2" /><circle cx="715.572" cy="162" fill="#56a64b" r="2" /><circle cx="721.34" cy="162" fill="#56a64b" r="2" /><circle cx="727.1080000000001" cy="161" fill="#56a64b" r="2" /><circle cx="732.8853333333334" cy="159" fill="#56a64b" r="2" /><circle cx="738.6533333333334" cy="159" fill="#56a64b" r="2" /><circle cx="744.4306666666668" cy="164" fill="#56a64b" r="2" /><circle cx="750.1986666666667" cy="162" fill="#56a64b" r="2" /><circle cx="755.9666666666667" cy="161" fill="#56a64b" r="2" /><circle cx="761.744" cy="159" fill="#56a64b" r="2" /><circle cx="767.5120000000001" cy="159" fill="#56a64b" r="2" /><circle cx="773.2893333333334" cy="157" fill="#56a64b" r="2" /><circle cx="779.0573333333334" cy="157" fill="#56a64b" r="2" /><circle cx="784.8253333333334" cy="156" fill="#56a64b" r="2" /><circle cx="790.6026666666668" cy="156" fill="#56a64b" r="2" /><circle cx="796.3706666666667" cy="157" fill="#56a64b" r="2" /><circle cx="802.148" cy="149" fill="#56a64b" r="2" /><circle cx="807.916" cy="149" fill="#56a64b" r="2" /><circle cx="813.6840000000001" cy="152" fill="#56a64b" r="2" /><circle cx="819.4613333333334" cy="152" fill="#56a64b" r="2" /><circle cx="825.2293333333334" cy="146" fill="#56a64b" r="2" /><circle cx="831.0066666666668" cy="144" fill="#56a64b" r="2" /><circle cx="836.7746666666667" cy="144" fill="#56a64b" r="2" /><circle cx="842.5426666666667" cy="136" fill="#56a64b" r="2" /><circle cx="848.32" cy="141" fill="#56a64b" r="2" /><circle cx="854.0880000000001" cy="146" fill="#56a64b" r="2" /><circle cx="859.8653333333334" cy="146" fill="#56a64b" r="2" /><circle cx="865.6333333333334" cy="141" fill="#56a64b" r="2" /><circle cx="871.4106666666668" cy="138" fill="#56a64b" r="2" /><circle cx="877.1786666666667" cy="141" fill="#56a64b" r="2" /><circle cx="882.9466666666667" cy="138" fill="#56a64b" r="2" /><circle cx="888.724" cy="134" fill="#56a64b" r="2" /><circle cx="894.4920000000001" cy="141" fill="#56a64b" r="2" /><circle cx="900.2693333333334" cy="138" fill="#56a64b" r="2" /><circle cx="906.0373333333334" cy="133" fill="#56a64b" r="2" /><circle cx="911.8053333333334" cy="138" fill="#56a64b" r="2" /><circle cx="917.5826666666667" cy="141" fill="#56a64b" r="2" /><line stroke="#56a64b" stroke-width="4" x1="115.29866666666666" x2="121.076" y1="162" y2="162" /><line stroke="#56a64b" stroke-width="4" x1="121.076" x2="126.844" y1="162" y2="159" /><line stroke="#56a64b" stroke-width="4" x1="126.844" x2="132.62133333333333" y1="159" y2="157" /><line stroke="#56a64b" stroke-width="4" x1="132.62133333333333" x2="132.79866666666666" y1="157" y2="157" /><line stroke="#56a64b" stroke-width="4" x1="132.79866666666666" x2="138.38933333333335" y1="157" y2="157" /><line stroke="#56a64b" stroke-width="4" x1="138.38933333333335" x2="144.15733333333333" y1="157" y2="162" /><line stroke="#56a64b" stroke-width="4" x1="144.15733333333333" x2="149.93466666666666" y1="162" y2="159" /><line stroke="#56a64b" stroke-width="4" x1="149.93466666666666" x2="155.7026666666667" y1="159" y2="154" /><line stroke="#56a64b" stroke-width="4" x1="155.7026666666667" x2="161.48000000000002" y1="154" y2="162" /><line stroke="#56a64b" stroke-width="4" x1="161.48000000000002" x2="167.248" y1="162" y2="157" /><line stroke="#56a64b" stroke-width="4" x1="167.248" x2="173.01600000000002" y1="157" y2="159" /><line stroke="#56a64b" stroke-width="4" x1="173.01600000000002" x2="178.79333333333335" y1="159" y2="157" /><line stroke="#56a64b" stroke-width="4" x1="178.79333333333335" x2="184.56133333333332" y1="157" y2="161" /><line stroke="#56a64b" stroke-width="4" x1="184.56133333333332" x2="190.33866666666668" y1="161" y2="162" /><line stroke="#56a64b" stroke-width="4" x1="190.33866666666668" x2="196.10666666666668" y1="162" y2="159" /><line stroke="#56a64b" stroke-width="4" x1="196.10666666666668" x2="201.996" y1="159" y2="159" /><line stroke="#56a64b" stroke-width="4" x1="201.996" x2="207.65200000000002" y1="159" y2="159" /><line stroke="#56a64b" stroke-width="4" x1="207.65200000000002" x2="213.42000000000002" y1="159" y2="154" /><line stroke="#56a64b" stroke-width="4" x1="213.42000000000002" x2="219.19733333333335" y1="154" y2="157" /><line stroke="#56a64b" stroke-width="4" x1="219.19733333333335" x2="224.96533333333335" y1="157" y2="156" /><line stroke="#56a64b" stroke-width="4" x1="224.96533333333335" x2="230.74266666666668" y1="156" y2="156" /><line stroke="#56a64b" stroke-width="4" x1="230.74266666666668" x2="236.51066666666668" y1="156" y2="156" /><line stroke="#56a64b" stroke-width="4" x1="236.51066666666668" x2="242.27866666666668" y1="156" y2="157" /><line stroke="#56a64b" stroke-width="4" x1="242.27866666666668" x2="248.056" y1="157" y2="159" /><line stroke="#56a64b" stroke-width="4" x1="248.056" x2="253.824" y1="159" y2="159" /><line stroke="#56a64b" stroke-width="4" x1="253.824" x2="259.60133333333334" y1="159" y2="162" /><line stroke="#56a64b" stroke-width="4" x1="259.60133333333334" x2="265.3693333333333" y1="162" y2="164" /><line stroke="#56a64b" stroke-width="4" x1="265.3693333333333" x2="271.14666666666665" y1="164" y2="169" /><line stroke="#56a64b" stroke-width="4" x1="271.14666666666665" x2="276.9146666666667" y1="169" y2="171" /><line stroke="#56a64b" stroke-width="4" x1="276.9146666666667" x2="282.6826666666667" y1="171" y2="159" /><line stroke="#56a64b" stroke-width="4" x1="282.6826666666667" x2="288.46000000000004" y1="159" y2="171" /><line stroke="#56a64b" stroke-width="4" x1="288.46000000000004" x2="294.228" y1="171" y2="166" /><line stroke="#56a64b" stroke-width="4" x1="294.228" x2="300.00533333333334" y1="166" y2="164" /><line stroke="#56a64b" stroke-width="4" x1="300.00533333333334" x2="305.7733333333333" y1="164" y2="167" /><line stroke="#56a64b" stroke-width="4" x1="305.7733333333333" x2="311.54133333333334" y1="167" y2="159" /><line stroke="#56a64b" stroke-width="4" x1="311.54133333333334" x2="317.3186666666667" y1="159" y2="162" /><line stroke="#56a64b" stroke-width="4" x1="317.3186666666667" x2="323.0866666666667" y1="162" y2="162" /><line stroke="#56a64b" stroke-width="4" x1="323.0866666666667" x2="328.86400000000003" y1="162" y2="162" /><line stroke="#56a64b" stroke-width="4" x1="328.86400000000003" x2="334.63200000000006" y1="162" y2="164" /><line stroke="#56a64b" stroke-width="4" x1="334.63200000000006" x2="340.40000000000003" y1="164" y2="162" /><line stroke="#56a64b" stroke-width="4" x1="340.40000000000003" x2="346.17733333333337" y1="162" y2="162" /><line stroke="#56a64b" stroke-width="4" x1="346.17733333333337" x2="351.94533333333334" y1="162" y2="164" /><line stroke="#56a64b" stroke-width="4" x1="351.94533333333334" x2="357.72266666666667" y1="164" y2="164" /><line stroke="#56a64b" stroke-width="4" x1="357.72266666666667" x2="363.4906666666667" y1="164" y2="166" /><line stroke="#56a64b" stroke-width="4" x1="363.4906666666667" x2="369.25866666666667" y1="166" y2="169" /><line stroke="#56a64b" stroke-width="4" x1="369.25866666666667" x2="375.036" y1="169" y2="169" /><line stroke="#56a64b" stroke-width="4" x1="375.036" x2="380.8693333333334" y1="169" y2="172" /><line stroke="#56a64b" stroke-width="4" x1="380.8693333333334" x2="386.58133333333336" y1="172" y2="171" /><line stroke="#56a64b" stroke-width="4" x1="386.58133333333336" x2="392.34933333333333" y1="171" y2="169" /><line stroke="#56a64b" stroke-width="4" x1="392.34933333333333" x2="398.12666666666667" y1="169" y2="172" /><line stroke="#56a64b" stroke-width="4" x1="398.12666666666667" x2="403.8946666666667" y1="172" y2="166" /><line stroke="#56a64b" stroke-width="4" x1="403.8946666666667" x2="409.66266666666667" y1="166" y2="171" /><line stroke="#56a64b" stroke-width="4" x1="409.66266666666667" x2="415.44000000000005" y1="171" y2="169" /><line stroke="#56a64b" stroke-width="4" x1="415.44000000000005" x2="421.208" y1="169" y2="167" /><line stroke="#56a64b" stroke-width="4" x1="421.208" x2="427.04133333333334" y1="167" y2="169" /><line stroke="#56a64b" stroke-width="4" x1="427.04133333333334" x2="432.7533333333334" y1="169" y2="172" /><line stroke="#56a64b" stroke-width="4" x1="432.7533333333334" x2="438.52133333333336" y1="172" y2="174" /><line stroke="#56a64b" stroke-width="4" x1="438.52133333333336" x2="444.2986666666667" y1="174" y2="172" /><line stroke="#56a64b" stroke-width="4" x1="444.2986666666667" x2="450.0666666666667" y1="172" y2="174" /><line stroke="#56a64b" stroke-width="4" x1="450.0666666666667" x2="455.84400000000005" y1="174" y2="171" /><line stroke="#56a64b" stroke-width="4" x1="455.84400000000005" x2="461.612" y1="171" y2="176" /><line stroke="#56a64b" stroke-width="4" x1="461.612" x2="467.38000000000005" y1="176" y2="174" /><line stroke="#56a64b" stroke-width="4" x1="467.38000000000005" x2="473.1573333333334" y1="174" y2="176" /><line stroke="#56a64b" stroke-width="4" x1="473.1573333333334" x2="478.92533333333336" y1="176" y2="174" /><line stroke="#56a64b" stroke-width="4" x1="478.92533333333336" x2="484.7026666666667" y1="174" y2="174" /><line stroke="#56a64b" stroke-width="4" x1="484.7026666666667" x2="490.4706666666667" y1="174" y2="174" /><line stroke="#56a64b" stroke-width="4" x1="490.4706666666667" x2="496.2386666666667" y1="174" y2="182" /><line stroke="#56a64b" stroke-width="4" x1="496.2386666666667" x2="502.016" y1="182" y2="176" /><line stroke="#56a64b" stroke-width="4" x1="502.016" x2="507.78400000000005" y1="176" y2="177" /><line stroke="#56a64b" stroke-width="4" x1="507.78400000000005" x2="513.5613333333333" y1="177" y2="176" /><line stroke="#56a64b" stroke-width="4" x1="513.5613333333333" x2="519.3293333333334" y1="176" y2="177" /><line stroke="#56a64b" stroke-width="4" x1="519.3293333333334" x2="525.0973333333334" y1="177" y2="180" /><line stroke="#56a64b" stroke-width="4" x1="525.0973333333334" x2="530.8746666666667" y1="180" y2="180" /><line stroke="#56a64b" stroke-width="4" x1="530.8746666666667" x2="536.6426666666666" y1="180" y2="179" /><line stroke="#56a64b" stroke-width="4" x1="536.6426666666666" x2="542.4200000000001" y1="179" y2="179" /><line stroke="#56a64b" stroke-width="4" x1="542.4200000000001" x2="548.1880000000001" y1="179" y2="180" /><line stroke="#56a64b" stroke-width="4" x1="548.1880000000001" x2="553.956" y1="180" y2="182" /><line stroke="#56a64b" stroke-width="4" x1="553.956" x2="559.7986666666667" y1="182" y2="177" /><line stroke="#56a64b" stroke-width="4" x1="559.7986666666667" x2="565.5013333333334" y1="177" y2="180" /><line stroke="#56a64b" stroke-width="4" x1="565.5013333333334" x2="571.2786666666667" y1="180" y2="179" /><line stroke="#56a64b" stroke-width="4" x1="571.2786666666667" x2="577.0466666666666" y1="179" y2="180" /><line stroke="#56a64b" stroke-width="4" x1="577.0466666666666" x2="582.8146666666667" y1="180" y2="177" /><line stroke="#56a64b" stroke-width="4" x1="582.8146666666667" x2="588.5920000000001" y1="177" y2="179" /><line stroke="#56a64b" stroke-width="4" x1="588.5920000000001" x2="594.36" y1="179" y2="179" /><line stroke="#56a64b" stroke-width="4" x1="594.36" x2="600.1373333333333" y1="179" y2="177" /><line stroke="#56a64b" stroke-width="4" x1="600.1373333333333" x2="605.9053333333334" y1="177" y2="179" /><line stroke="#56a64b" stroke-width="4" x1="605.9053333333334" x2="611.6826666666667" y1="179" y2="179" /><line stroke="#56a64b" stroke-width="4" x1="611.6826666666667" x2="617.4506666666667" y1="179" y2="174" /><line stroke="#56a64b" stroke-width="4" x1="617.4506666666667" x2="623.2186666666668" y1="174" y2="179" /><line stroke="#56a64b" stroke-width="4" x1="623.2186666666668" x2="629.052" y1="179" y2="176" /><line stroke="#56a64b" stroke-width="4" x1="629.052" x2="634.764" y1="176" y2="179" /><line stroke="#56a64b" stroke-width="4" x1="634.764" x2="640.5413333333333" y1="179" y2="177" /><line stroke="#56a64b" stroke-width="4" x1="640.5413333333333" x2="646.3093333333334" y1="177" y2="177" /><line stroke="#56a64b" stroke-width="4" x1="646.3093333333334" x2="652.0773333333334" y1="177" y2="174" /><line stroke="#56a64b" stroke-width="4" x1="652.0773333333334" x2="657.8546666666667" y1="174" y2="177" /><line stroke="#56a64b" stroke-width="4" x1="657.8546666666667" x2="663.6226666666668" y1="177" y2="172" /><line stroke="#56a64b" stroke-width="4" x1="663.6226666666668" x2="669.4000000000001" y1="172" y2="171" /><line stroke="#56a64b" stroke-width="4" x1="669.4000000000001" x2="675.168" y1="171" y2="169" /><line stroke="#56a64b" stroke-width="4" x1="675.168" x2="680.936" y1="169" y2="171" /><line stroke="#56a64b" stroke-width="4" x1="680.936" x2="686.7133333333334" y1="171" y2="167" /><line stroke="#56a64b" stroke-width="4" x1="686.7133333333334" x2="692.4813333333334" y1="167" y2="167" /><line stroke="#56a64b" stroke-width="4" x1="692.4813333333334" x2="698.2493333333334" y1="167" y2="166" /><line stroke="#56a64b" stroke-width="4" x1="698.2493333333334" x2="704.0266666666668" y1="166" y2="166" /><line stroke="#56a64b" stroke-width="4" x1="704.0266666666668" x2="709.7946666666667" y1="166" y2="164" /><line stroke="#56a64b" stroke-width="4" x1="709.7946666666667" x2="715.572" y1="164" y2="162" /><line stroke="#56a64b" stroke-width="4" x1="715.572" x2="721.34" y1="162" y2="162" /><line stroke="#56a64b" stroke-width="4" x1="721.34" x2="727.1080000000001" y1="162" y2="161" /><line stroke="#56a64b" stroke-width="4" x1="727.1080000000001" x2="732.8853333333334" y1="161" y2="159" /><line stroke="#56a64b" stroke-width="4" x1="732.8853333333334" x2="738.6533333333334" y1="159" y2="159" /><line stroke="#56a64b" stroke-width="4" x1="738.6533333333334" x2="744.4306666666668" y1="159" y2="164" /><line stroke="#56a64b" stroke-width="4" x1="744.4306666666668" x2="750.1986666666667" y1="164" y2="162" /><line stroke="#56a64b" stroke-width="4" x1="750.1986666666667" x2="755.9666666666667" y1="162" y2="161" /><line stroke="#56a64b" stroke-width="4" x1="755.9666666666667" x2="761.744" y1="161" y2="159" /><line stroke="#56a64b" stroke-width="4" x1="761.744" x2="767.5120000000001" y1="159" y2="159" /><line stroke="#56a64b" stroke-width="4" x1="767.5120000000001" x2="773.2893333333334" y1="159" y2="157" /><line stroke="#56a64b" stroke-width="4" x1="773.2893333333334" x2="779.0573333333334" y1="157" y2="157" /><line stroke="#56a64b" stroke-width="4" x1="779.0573333333334" x2="784.8253333333334" y1="157" y2="156" /><line stroke="#56a64b" stroke-width="4" x1="784.8253333333334" x2="790.6026666666668" y1="156" y2="156" /><line stroke="#56a64b" stroke-width="4" x1="790.6026666666668" x2="796.3706666666667" y1="156" y2="157" /><line stroke="#56a64b" stroke-width="4" x1="796.3706666666667" x2="802.148" y1="157" y2="149" /><line stroke="#56a64b" stroke-width="4" x1="802.148" x2="807.916" y1="149" y2="149" /><line stroke="#56a64b" stroke-width="4" x1="807.916" x2="813.6840000000001" y1="149" y2="152" /><line stroke="#56a64b" stroke-width="4" x1="813.6840000000001" x2="819.4613333333334" y1="152" y2="152" /><line stroke="#56a64b" stroke-width="4" x1="819.4613333333334" x2="825.2293333333334" y1="152" y2="146" /><line stroke="#56a64b" stroke-width="4" x1="825.2293333333334" x2="831.0066666666668" y1="146" y2="144" /><line stroke="#56a64b" stroke-width="4" x1="831.0066666666668" x2="836.7746666666667" y1="144" y2="144" /><line stroke="#56a64b" stroke-width="4" x1="836.7746666666667" x2="842.5426666666667" y1="144" y2="136" /><line stroke="#56a64b" stroke-width="4" x1="842.5426666666667" x2="848.32" y1="136" y2="141" /><line stroke="#56a64b" stroke-width="4" x1="848.32" x2="854.0880000000001" y1="141" y2="146" /><line stroke="#56a64b" stroke-width="4" x1="854.0880000000001" x2="859.8653333333334" y1="146" y2="146" /><line stroke="#56a64b" stroke-width="4" x1="859.8653333333334" x2="865.6333333333334" y1="146" y2="141" /><line stroke="#56a64b" stroke-width="4" x1="865.6333333333334" x2="871.4106666666668" y1="141" y2="138" /><line stroke="#56a64b" stroke-width="4" x1="871.4106666666668" x2="877.1786666666667" y1="138" y2="141" /><line stroke="#56a64b" stroke-width="4" x1="877.1786666666667" x2="882.9466666666667" y1="141" y2="138" /><line stroke="#56a64b" stroke-width="4" x1="882.9466666666667" x2="888.724" y1="138" y2="134" /><line stroke="#56a64b" stroke-width="4" x1="888.724" x2="894.4920000000001" y1="134" y2="141" /><line stroke="#56a64b" stroke-width="4" x1="894.4920000000001" x2="900.2693333333334" y1="141" y2="138" /><line stroke="#56a64b" stroke-width="4" x1="900.2693333333334" x2="906.0373333333334" y1="138" y2="133" /><line stroke="#56a64b" stroke-width="4" x1="906.0373333333334" x2="911.8053333333334" y1="133" y2="138" /><line stroke="#56a64b" stroke-width="4" x1="911.8053333333334" x2="917.5826666666667" y1="138" y2="141" /><text fill="#A9A9A9" font-size="20px" style="font-family:Arial" text-anchor="end" x="920" y="30.0">2023-12-26 11:55:46</text><text fill="#A9A9A9" font-size="24px" style="font-family:Arial" text-anchor="middle" x="500.0" y="28.0">Windrichtung</text><text fill="#A9A9A9" font-size="24px" style="font-family:Arial" text-anchor="start" x="80" y="28.0">Südhang</text></svg>