<?xml version="1.0" encoding="utf-8" ?>
<svg baseProfile="full" height="500" version="1.1" width="1000" xmlns="http://www.w3.org/2000/svg" xmlns:ev="http://www.w3.org/2001/xml-events" xmlns:xlink="http://www.w3.org/1999/xlink"><defs /><rect fill="#000000" height="500" width="1000" x="0" y="0" /><line stroke="#808080" x1="80" x2="920" y1="40.0" y2="40.0" /><line stroke="#808080" x1="80" x2="920" y1="92.5" y2="92.5" /><line stroke="#808080" x1="80" x2="920" y1="145.0" y2="145.0" /><line stroke="#808080" x1="80" x2="920" y1="197.5" y2="197.5" /><line stroke="#808080" x1="80" x2="920" y1="250.0" y2="250.0" /><line stroke="#808080" x1="80" x2="920" y1="302.5" y2="302.5" /><line stroke="#808080" x1="80" x2="920" y1="355.0" y2="355.0" /><line stroke="#808080" x1="80" x2="920" y1="407.5" y2="407.5" /><line stroke="#808080" x1="80" x2="920" y1="460.0" y2="460.0" /><line stroke="#808080" x1="80.0" x2="80.0" y1="40" y2="460" /><line stroke="#808080" x1="113.6" x2="113.6" y1="40" y2="460" /><line stroke="#808080" x1="147.2" x2="147.2" y1="40" y2="460" /><line stroke="#808080" x1="180.79999999999998" x2="180.79999999999998" y1="40" y2="460" /><line stroke="#808080" x1="214.39999999999998" x2="214.39999999999998" y1="40" y2="460" /><line stroke="#808080" x1="247.99999999999997" x2="247.99999999999997" y1="40" y2="460" /><line stroke="#808080" x1="281.59999999999997" x2="281.59999999999997" y1="40" y2="460" /><line stroke="#808080" x1="315.19999999999993" x2="315.19999999999993" y1="40" y2="460" /><line stroke="#808080" x1="348.79999999999995" x2="348.79999999999995" y1="40" y2="460" /><line stroke="#808080" x1="382.4" x2="382.4" y1="40" y2="460" /><line stroke="#808080" x1="415.99999999999994" x2="415.99999999999994" y1="40" y2="460" /><line stroke="#808080" x1="449.5999999999999" x2="449.5999999999999" y1="40" y2="460" /><line stroke="#808080" x1="483.19999999999993" x2="483.19999999999993" y1="40" y2="460" /><line stroke="#808080" x1="516.8" x2="516.8" y1="40" y2="460" /><line stroke="#808080" x1="550.3999999999999" x2="550.3999999999999" y1="40" y2="460" /><line stroke="#808080" x1="583.9999999999999" x2="583.9999999999999" y1="40" y2="460" /><line stroke="#808080" x1="617.5999999999999" x2="617.5999999999999" y1="40" y2="460" /><line stroke="#808080" x1="651.1999999999999" x2="651.1999999999999" y1="40" y2="460" /><line stroke="#808080" x1="684.8" x2="684.8" y1="40" y2="460" /><line stroke="#808080" x1="718.3999999999999" x2="718.3999999999999" y1="40" y2="460" /><line stroke="#808080" x1="751.9999999999999" x2="751.9999999999999" y1="40" y2="460" /><line stroke="#808080" x1="785.5999999999999" x2="785.5999999999999" y1="40" y2="460" /><line stroke="#808080" x1="819.1999999999998" x2="819.1999999999998" y1="40" y2="460" /><line stroke="#808080" x1="852.7999999999998" x2="852.7999999999998" y1="40" y2="460" /><line stroke="#808080" x1="886.3999999999999" x2="886.3999999999999" y1="40" y2="460" /><line stroke="#808080" x1="919.9999999999999" x2="919.9999999999999" y1="40" y2="460" /><text fill="#A9A9A9" font-size="20px" style="font-family:Arial" text-anchor="middle" x="40.0" y="50.0"> N</text><text fill="#A9A9A9" font-size="20px" style="font-family:Arial" text-anchor="middle" x="40.0" y="102.5">NW</text><text fill="#A9A9A9" font-size="20px" style="font-family:Arial" text-anchor="middle" x="40.0" y="155.0"> W</text><text fill="#A9A9A9" font-size="20px" style="font-family:Arial" text-anchor="middle" x="40.0" y="207.5">SW</text><text fill="#A9A9A9" font-size="20px" style="font-family:Arial" text-anchor="middle" x="40.0" y="260.0"> S</text><text fill="#A9A9A9" font-size="20px" style="font-family:Arial" text-anchor="middle" x="40.0" y="312.5">SO</text><text fill="#A9A9A9" font-size="20px" style="font-family:Arial" text-anchor="middle" x="40.0" y="365.0"> O</text><text fill="#A9A9A9" font-size="20px" style="font-family:Arial" text-anchor="middle" x="40.0" y="417.5">NO</text><text fill="#A9A9A9" font-size="20px" style="font-family:Arial" text-anchor="middle" x="40.0" y="470.0"> N</text><text fill="#A9A9A9" font-size="20px" style="font-family:Arial" text-anchor="middle" x="960.0" y="50.0"> N</text><text fill="#A9A9A9" font-size="20px" style="font-family:Arial" text-anchor="middle" x="960.0" y="102.5">NW</text><text fill="#A9A9A9" font-size="20px" style="font-family:Arial" text-anchor="middle" x="960.0" y="155.0"> W</text><text fill="#A9A9A9" font-size="20px" style="font-family:Arial" text-anchor="middle" x="960.0" y="207.5">SW</text><text fill="#A9A9A9" font-size="20px" style="font-family:Arial" text-anchor="middle" x="960.0" y="260.0"> S</text><text fill="#A9A9A9" font-size="20px" style="font-family:Arial" text-anchor="middle" x="960.0" y="312.5">SO</text><text fill="#A9A9A9" font-size="20px" style="font-family:Arial" text-anchor="middle" x="960.0" y="365.0"> O</text><text fill="#A9A9A9" font-size="20px" style="font-family:Arial" text-anchor="middle" x="960.0" y="417.5">NO</text><text fill="#A9A9A9" font-size="20px" style="font-family:Arial" text-anchor="middle" x="960.0" y="470.0"> N</text><text fill="#A9A9A9" font-size="17px" style="font-family:Arial" text-anchor="start" x="75" y="487">8</text><text fill="#A9A9A9" font-size="17px" style="font-family:Arial" text-anchor="start" x="109" y="487">9</text><text fill="#A9A9A9" font-size="17px" style="font-family:Arial" text-anchor="start" x="138" y="487">10</text><text fill="#A9A9A9" font-size="17px" style="font-family:Arial" text-anchor="start" x="173" y="487">11</text><text fill="#A9A9A9" font-size="17px" style="font-family:Arial" text-anchor="start" x="205" y="487">12</text><text fill="#A9A9A9" font-size="17px" style="font-family:Arial" text-anchor="start" x="238" y="487">13</text><text fill="#A9A9A9" font-size="17px" style="font-family:Arial" text-anchor="start" x="272" y="487">14</text><text fill="#A9A9A9" font-size="17px" style="font-family:Arial" text-anchor="start" x="306" y="487">15</text><text fill="#A9A9A9" font-size="17px" style="font-family:Arial" text-anchor="start" x="339" y="487">16</text><text fill="#A9A9A9" font-size="17px" style="font-family:Arial" text-anchor="start" x="373" y="487">17</text><text fill="#A9A9A9" font-size="17px" style="font-family:Arial" text-anchor="start" x="406" y="487">18</text><text fill="#A9A9A9" font-size="17px" style="font-family:Arial" text-anchor="start" x="440" y="487">19</text><text fill="#A9A9A9" font-size="17px" style="font-family:Arial" text-anchor="start" x="474" y="487">20</text><text fill="#A9A9A9" font-size="17px" style="font-family:Arial" text-anchor="start" x="508" y="487">21</text><text fill="#A9A9A9" font-size="17px" style="font-family:Arial" text-anchor="start" x="541" y="487">22</text><text fill="#A9A9A9" font-size="17px" style="font-family:Arial" text-anchor="start" x="574" y="487">23</text><text fill="#A9A9A9" font-size="17px" style="font-family:Arial" text-anchor="start" x="613" y="487">0</text><text fill="#A9A9A9" font-size="17px" style="font-family:Arial" text-anchor="start" x="647" y="487">1</text><text fill="#A9A9A9" font-size="17px" style="font-family:Arial" text-anchor="start" x="680" y="487">2</text><text fill="#A9A9A9" font-size="17px" style="font-family:Arial" text-anchor="start" x="713" y="487">3</text><text fill="#A9A9A9" font-size="17px" style="font-family:Arial" text-anchor="start" x="747" y="487">4</text><text fill="#A9A9A9" font-size="17px" style="font-family:Arial" text-anchor="start" x="781" y="487">5</text><text fill="#A9A9A9" font-size="17px" style="font-family:Arial" text-anchor="start" x="814" y="487">6</text><text fill="#A9A9A9" font-size="17px" style="font-family:Arial" text-anchor="start" x="848" y="487">7</text><text fill="#A9A9A9" font-size="17px" style="font-family:Arial" text-anchor="start" x="881" y="487">8</text><text fill="#A9A9A9" font-size="17px" style="font-family:Arial" text-anchor="start" x="915" y="487">9</text><line stroke="#FFA500" x1="80" x2="920" y1="302.5" y2="302.5" /><line stroke="#FFA500" x1="80" x2="920" y1="197.5" y2="197.5" /><circle cx="112.20933333333333" cy="161" fill="#56a64b" r="2" /><circle cx="117.97733333333333" cy="159" fill="#56a64b" r="2" /><circle cx="123.75466666666668" cy="156" fill="#56a64b" r="2" /><circle cx="129.52266666666668" cy="162" fill="#56a64b" r="2" /><circle cx="135.29066666666668" cy="161" fill="#56a64b" r="2" /><circle cx="141.068" cy="159" fill="#56a64b" r="2" /><circle cx="146.836" cy="159" fill="#56a64b" r="2" /><circle cx="152.61333333333334" cy="159" fill="#56a64b" r="2" /><circle cx="158.38133333333334" cy="159" fill="#56a64b" r="2" /><circle cx="164.15866666666668" cy="162" fill="#56a64b" r="2" /><circle cx="169.92666666666668" cy="157" fill="#56a64b" r="2" /><circle cx="175.69466666666668" cy="164" fill="#56a64b" r="2" /><circle cx="181.472" cy="162" fill="#56a64b" r="2" /><circle cx="187.24" cy="166" fill="#56a64b" r="2" /><circle cx="193.01733333333334" cy="161" fill="#56a64b" r="2" /><circle cx="198.78533333333334" cy="164" fill="#56a64b" r="2" /><circle cx="204.55333333333334" cy="167" fill="#56a64b" r="2" /><circle cx="210.33066666666667" cy="166" fill="#56a64b" r="2" /><circle cx="216.09866666666667" cy="162" fill="#56a64b" r="2" /><circle cx="221.876" cy="162" fill="#56a64b" r="2" /><circle cx="227.644" cy="159" fill="#56a64b" r="2" /><circle cx="233.42133333333334" cy="157" fill="#56a64b" r="2" /><circle cx="233.59866666666667" cy="157" fill="#56a64b" r="2" /><circle cx="239.18933333333334" cy="157" fill="#56a64b" r="2" /><circle cx="244.95733333333334" cy="162" fill="#56a64b" r="2" /><circle cx="250.73466666666667" cy="159" fill="#56a64b" r="2" /><circle cx="256.50266666666664" cy="154" fill="#56a64b" r="2" /><circle cx="262.28" cy="162" fill="#56a64b" r="2" /><circle cx="268.048" cy="157" fill="#56a64b" r="2" /><circle cx="273.81600000000003" cy="159" fill="#56a64b" r="2" /><circle cx="279.59333333333336" cy="157" fill="#56a64b" r="2" /><circle cx="285.3613333333334" cy="161" fill="#56a64b" r="2" /><circle cx="291.1386666666667" cy="162" fill="#56a64b" r="2" /><circle cx="296.9066666666667" cy="159" fill="#56a64b" r="2" /><circle cx="302.79600000000005" cy="159" fill="#56a64b" r="2" /><circle cx="308.452" cy="159" fill="#56a64b" r="2" /><circle cx="314.22" cy="154" fill="#56a64b" r="2" /><circle cx="319.99733333333336" cy="157" fill="#56a64b" r="2" /><circle cx="325.7653333333334" cy="156" fill="#56a64b" r="2" /><circle cx="331.5426666666667" cy="156" fill="#56a64b" r="2" /><circle cx="337.3106666666667" cy="156" fill="#56a64b" r="2" /><circle cx="343.07866666666666" cy="157" fill="#56a64b" r="2" /><circle cx="348.856" cy="159" fill="#56a64b" r="2" /><circle cx="354.624" cy="159" fill="#56a64b" r="2" /><circle cx="360.40133333333335" cy="162" fill="#56a64b" r="2" /><circle cx="366.1693333333334" cy="164" fill="#56a64b" r="2" /><circle cx="371.9466666666667" cy="169" fill="#56a64b" r="2" /><circle cx="377.7146666666667" cy="171" fill="#56a64b" r="2" /><circle cx="383.4826666666667" cy="159" fill="#56a64b" r="2" /><circle cx="389.26000000000005" cy="171" fill="#56a64b" r="2" /><circle cx="395.028" cy="166" fill="#56a64b" r="2" /><circle cx="400.80533333333335" cy="164" fill="#56a64b" r="2" /><circle cx="406.5733333333334" cy="167" fill="#56a64b" r="2" /><circle cx="412.34133333333335" cy="159" fill="#56a64b" r="2" /><circle cx="418.1186666666667" cy="162" fill="#56a64b" r="2" /><circle cx="423.8866666666667" cy="162" fill="#56a64b" r="2" /><circle cx="429.66400000000004" cy="162" fill="#56a64b" r="2" /><circle cx="435.432" cy="164" fill="#56a64b" r="2" /><circle cx="441.20000000000005" cy="162" fill="#56a64b" r="2" /><circle cx="446.9773333333334" cy="162" fill="#56a64b" r="2" /><circle cx="452.74533333333335" cy="164" fill="#56a64b" r="2" /><circle cx="458.5226666666667" cy="164" fill="#56a64b" r="2" /><circle cx="464.2906666666667" cy="166" fill="#56a64b" r="2" /><circle cx="470.0586666666667" cy="169" fill="#56a64b" r="2" /><circle cx="475.836" cy="169" fill="#56a64b" r="2" /><circle cx="481.6693333333334" cy="172" fill="#56a64b" r="2" /><circle cx="487.3813333333334" cy="171" fill="#56a64b" r="2" /><circle cx="493.14933333333335" cy="169" fill="#56a64b" r="2" /><circle cx="498.9266666666667" cy="172" fill="#56a64b" r="2" /><circle cx="504.6946666666667" cy="166" fill="#56a64b" r="2" /><circle cx="510.4626666666667" cy="171" fill="#56a64b" r="2" /><circle cx="516.24" cy="169" fill="#56a64b" r="2" /><circle cx="522.008" cy="167" fill="#56a64b" r="2" /><circle cx="527.8413333333333" cy="169" fill="#56a64b" r="2" /><circle cx="533.5533333333334" cy="172" fill="#56a64b" r="2" /><circle cx="539.3213333333333" cy="174" fill="#56a64b" r="2" /><circle cx="545.0986666666668" cy="172" fill="#56a64b" r="2" /><circle cx="550.8666666666668" cy="174" fill="#56a64b" r="2" /><circle cx="556.644" cy="171" fill="#56a64b" r="2" /><circle cx="562.412" cy="176" fill="#56a64b" r="2" /><circle cx="568.1800000000001" cy="174" fill="#56a64b" r="2" /><circle cx="573.9573333333334" cy="176" fill="#56a64b" r="2" /><circle cx="579.7253333333333" cy="174" fill="#56a64b" r="2" /><circle cx="585.5026666666668" cy="174" fill="#56a64b" r="2" /><circle cx="591.2706666666668" cy="174" fill="#56a64b" r="2" /><circle cx="597.0386666666667" cy="182" fill="#56a64b" r="2" /><circle cx="602.816" cy="176" fill="#56a64b" r="2" /><circle cx="608.5840000000001" cy="177" fill="#56a64b" r="2" /><circle cx="614.3613333333334" cy="176" fill="#56a64b" r="2" /><circle cx="620.1293333333334" cy="177" fill="#56a64b" r="2" /><circle cx="625.8973333333333" cy="180" fill="#56a64b" r="2" /><circle cx="631.6746666666667" cy="180" fill="#56a64b" r="2" /><circle cx="637.4426666666667" cy="179" fill="#56a64b" r="2" /><circle cx="643.22" cy="179" fill="#56a64b" r="2" /><circle cx="648.988" cy="180" fill="#56a64b" r="2" /><circle cx="654.7560000000001" cy="182" fill="#56a64b" r="2" /><circle cx="660.5986666666668" cy="177" fill="#56a64b" r="2" /><circle cx="666.3013333333333" cy="180" fill="#56a64b" r="2" /><circle cx="672.0786666666667" cy="179" fill="#56a64b" r="2" /><circle cx="677.8466666666667" cy="180" fill="#56a64b" r="2" /><circle cx="683.6146666666667" cy="177" fill="#56a64b" r="2" /><circle cx="689.392" cy="179" fill="#56a64b" r="2" /><circle cx="695.1600000000001" cy="179" fill="#56a64b" r="2" /><circle cx="700.9373333333334" cy="177" fill="#56a64b" r="2" /><circle cx="706.7053333333333" cy="179" fill="#56a64b" r="2" /><circle cx="712.4826666666668" cy="179" fill="#56a64b" r="2" /><circle cx="718.2506666666667" cy="174" fill="#56a64b" r="2" /><circle cx="724.0186666666667" cy="179" fill="#56a64b" r="2" /><circle cx="729.8520000000001" cy="176" fill="#56a64b" r="2" /><circle cx="735.5640000000001" cy="179" fill="#56a64b" r="2" /><circle cx="741.3413333333334" cy="177" fill="#56a64b" r="2" /><circle cx="747.1093333333334" cy="177" fill="#56a64b" r="2" /><circle cx="752.8773333333334" cy="174" fill="#56a64b" r="2" /><circle cx="758.6546666666667" cy="177" fill="#56a64b" r="2" /><circle cx="764.4226666666667" cy="172" fill="#56a64b" r="2" /><circle cx="770.2" cy="171" fill="#56a64b" r="2" /><circle cx="775.9680000000001" cy="169" fill="#56a64b" r="2" /><circle cx="781.7360000000001" cy="171" fill="#56a64b" r="2" /><circle cx="787.5133333333334" cy="167" fill="#56a64b" r="2" /><circle cx="793.2813333333334" cy="167" fill="#56a64b" r="2" /><circle cx="799.0493333333334" cy="166" fill="#56a64b" r="2" /><circle cx="804.8266666666667" cy="166" fill="#56a64b" r="2" /><circle cx="810.5946666666667" cy="164" fill="#56a64b" r="2" /><circle cx="816.3720000000001" cy="162" fill="#56a64b" r="2" /><circle cx="822.1400000000001" cy="162" fill="#56a64b" r="2" /><circle cx="827.908" cy="161" fill="#56a64b" r="2" /><circle cx="833.6853333333333" cy="159" fill="#56a64b" r="2" /><circle cx="839.4533333333334" cy="159" fill="#56a64b" r="2" /><circle cx="845.2306666666667" cy="164" fill="#56a64b" r="2" /><circle cx="850.9986666666667" cy="162" fill="#56a64b" r="2" /><circle cx="856.7666666666668" cy="161" fill="#56a64b" r="2" /><circle cx="862.5440000000001" cy="159" fill="#56a64b" r="2" /><circle cx="868.312" cy="159" fill="#56a64b" r="2" /><circle cx="874.0893333333333" cy="157" fill="#56a64b" r="2" /><circle cx="879.8573333333334" cy="157" fill="#56a64b" r="2" /><circle cx="885.6253333333334" cy="156" fill="#56a64b" r="2" /><circle cx="891.4026666666667" cy="156" fill="#56a64b" r="2" /><circle cx="897.1706666666668" cy="157" fill="#56a64b" r="2" /><circle cx="902.9480000000001" cy="149" fill="#56a64b" r="2" /><circle cx="908.7160000000001" cy="149" fill="#56a64b" r="2" /><circle cx="914.484" cy="152" fill="#56a64b" r="2" /><line stroke="#56a64b" stroke-width="4" x1="112.20933333333333" x2="117.97733333333333" y1="161" y2="159" /><line stroke="#56a64b" stroke-width="4" x1="117.97733333333333" x2="123.75466666666668" y1="159" y2="156" /><line stroke="#56a64b" stroke-width="4" x1="123.75466666666668" x2="129.52266666666668" y1="156" y2="162" /><line stroke="#56a64b" stroke-width="4" x1="129.52266666666668" x2="135.29066666666668" y1="162" y2="161" /><line stroke="#56a64b" stroke-width="4" x1="135.29066666666668" x2="141.068" y1="161" y2="159" /><line stroke="#56a64b" stroke-width="4" x1="141.068" x2="146.836" y1="159" y2="159" /><line stroke="#56a64b" stroke-width="4" x1="146.836" x2="152.61333333333334" y1="159" y2="159" /><line stroke="#56a64b" stroke-width="4" x1="152.61333333333334" x2="158.38133333333334" y1="159" y2="159" /><line stroke="#56a64b" stroke-width="4" x1="158.38133333333334" x2="164.15866666666668" y1="159" y2="162" /><line stroke="#56a64b" stroke-width="4" x1="164.15866666666668" x2="169.92666666666668" y1="162" y2="157" /><line stroke="#56a64b" stroke-width="4" x1="169.92666666666668" x2="175.69466666666668" y1="157" y2="164" /><line stroke="#56a64b" stroke-width="4" x1="175.69466666666668" x2="181.472" y1="164" y2="162" /><line stroke="#56a64b" stroke-width="4" x1="181.472" x2="187.24" y1="162" y2="166" /><line stroke="#56a64b" stroke-width="4" x1="187.24" x2="193.01733333333334" y1="166" y2="161" /><line stroke="#56a64b" stroke-width="4" x1="193.01733333333334" x2="198.78533333333334" y1="161" y2="164" /><line stroke="#56a64b" stroke-width="4" x1="198.78533333333334" x2="204.55333333333334" y1="164" y2="167" /><line stroke="#56a64b" stroke-width="4" x1="204.55333333333334" x2="210.33066666666667" y1="167" y2="166" /><line stroke="#56a64b" stroke-width="4" x1="210.33066666666667" x2="216.09866666666667" y1="166" y2="162" /><line stroke="#56a64b" stroke-width="4" x1="216.09866666666667" x2="221.876" y1="162" y2="162" /><line stroke="#56a64b" stroke-width="4" x1="221.876" x2="227.644" y1="162" y2="159" /><line stroke="#56a64b" stroke-width="4" x1="227.644" x2="233.42133333333334" y1="159" y2="157" /><line stroke="#56a64b" stroke-width="4" x1="233.42133333333334" x2="233.59866666666667" y1="157" y2="157" /><line stroke="#56a64b" stroke-width="4" x1="233.59866666666667" x2="239.18933333333334" y1="157" y2="157" /><line stroke="#56a64b" stroke-width="4" x1="239.18933333333334" x2="244.95733333333334" y1="157" y2="162" /><line stroke="#56a64b" stroke-width="4" x1="244.95733333333334" x2="250.73466666666667" y1="162" y2="159" /><line stroke="#56a64b" stroke-width="4" x1="250.73466666666667" x2="256.50266666666664" y1="159" y2="154" /><line stroke="#56a64b" stroke-width="4" x1="256.50266666666664" x2="262.28" y1="154" y2="162" /><line stroke="#56a64b" stroke-width="4" x1="262.28" x2="268.048" y1="162" y2="157" /><line stroke="#56a64b" stroke-width="4" x1="268.048" x2="273.81600000000003" y1="157" y2="159" /><line stroke="#56a64b" stroke-width="4" x1="273.81600000000003" x2="279.59333333333336" y1="159" y2="157" /><line stroke="#56a64b" stroke-width="4" x1="279.59333333333336" x2="285.3613333333334" y1="157" y2="161" /><line stroke="#56a64b" stroke-width="4" x1="285.3613333333334" x2="291.1386666666667" y1="161" y2="162" /><line stroke="#56a64b" stroke-width="4" x1="291.1386666666667" x2="296.9066666666667" y1="162" y2="159" /><line stroke="#56a64b" stroke-width="4" x1="296.9066666666667" x2="302.79600000000005" y1="159" y2="159" /><line stroke="#56a64b" stroke-width="4" x1="302.79600000000005" x2="308.452" y1="159" y2="159" /><line stroke="#56a64b" stroke-width="4" x1="308.452" x2="314.22" y1="159" y2="154" /><line stroke="#56a64b" stroke-width="4" x1="314.22" x2="319.99733333333336" y1="154" y2="157" /><line stroke="#56a64b" stroke-width="4" x1="319.99733333333336" x2="325.7653333333334" y1="157" y2="156" /><line stroke="#56a64b" stroke-width="4" x1="325.7653333333334" x2="331.5426666666667" y1="156" y2="156" /><line stroke="#56a64b" stroke-width="4" x1="331.5426666666667" x2="337.3106666666667" y1="156" y2="156" /><line stroke="#56a64b" stroke-width="4" x1="337.3106666666667" x2="343.07866666666666" y1="156" y2="157" /><line stroke="#56a64b" stroke-width="4" x1="343.07866666666666" x2="348.856" y1="157" y2="159" /><line stroke="#56a64b" stroke-width="4" x1="348.856" x2="354.624" y1="159" y2="159" /><line stroke="#56a64b" stroke-width="4" x1="354.624" x2="360.40133333333335" y1="159" y2="162" /><line stroke="#56a64b" stroke-width="4" x1="360.40133333333335" x2="366.1693333333334" y1="162" y2="164" /><line stroke="#56a64b" stroke-width="4" x1="366.1693333333334" x2="371.9466666666667" y1="164" y2="169" /><line stroke="#56a64b" stroke-width="4" x1="371.9466666666667" x2="377.7146666666667" y1="169" y2="171" /><line stroke="#56a64b" stroke-width="4" x1="377.7146666666667" x2="383.4826666666667" y1="171" y2="159" /><line stroke="#56a64b" stroke-width="4" x1="383.4826666666667" x2="389.26000000000005" y1="159" y2="171" /><line stroke="#56a64b" stroke-width="4" x1="389.26000000000005" x2="395.028" y1="171" y2="166" /><line stroke="#56a64b" stroke-width="4" x1="395.028" x2="400.80533333333335" y1="166" y2="164" /><line stroke="#56a64b" stroke-width="4" x1="400.80533333333335" x2="406.5733333333334" y1="164" y2="167" /><line stroke="#56a64b" stroke-width="4" x1="406.5733333333334" x2="412.34133333333335" y1="167" y2="159" /><line stroke="#56a64b" stroke-width="4" x1="412.34133333333335" x2="418.1186666666667" y1="159" y2="162" /><line stroke="#56a64b" stroke-width="4" x1="418.1186666666667" x2="423.8866666666667" y1="162" y2="162" /><line stroke="#56a64b" stroke-width="4" x1="423.8866666666667" x2="429.66400000000004" y1="162" y2="162" /><line stroke="#56a64b" stroke-width="4" x1="429.66400000000004" x2="435.432" y1="162" y2="164" /><line stroke="#56a64b" stroke-width="4" x1="435.432" x2="441.20000000000005" y1="164" y2="162" /><line stroke="#56a64b" stroke-width="4" x1="441.20000000000005" x2="446.9773333333334" y1="162" y2="162" /><line stroke="#56a64b" stroke-width="4" x1="446.9773333333334" x2="452.74533333333335" y1="162" y2="164" /><line stroke="#56a64b" stroke-width="4" x1="452.74533333333335" x2="458.5226666666667" y1="164" y2="164" /><line stroke="#56a64b" stroke-width="4" x1="458.5226666666667" x2="464.2906666666667" y1="164" y2="166" /><line stroke="#56a64b" stroke-width="4" x1="464.2906666666667" x2="470.0586666666667" y1="166" y2="169" /><line stroke="#56a64b" stroke-width="4" x1="470.0586666666667" x2="475.836" y1="169" y2="169" /><line stroke="#56a64b" stroke-width="4" x1="475.836" x2="481.6693333333334" y1="169" y2="172" /><line stroke="#56a64b" stroke-width="4" x1="481.6693333333334" x2="487.3813333333334" y1="172" y2="171" /><line stroke="#56a64b" stroke-width="4" x1="487.3813333333334" x2="493.14933333333335" y1="171" y2="169" /><line stroke="#56a64b" stroke-width="4" x1="493.14933333333335" x2="498.9266666666667" y1="169" y2="172" /><line stroke="#56a64b" stroke-width="4" x1="498.9266666666667" x2="504.6946666666667" y1="172" y2="166" /><line stroke="#56a64b" stroke-width="4" x1="504.6946666666667" x2="510.4626666666667" y1="166" y2="171" /><line stroke="#56a64b" stroke-width="4" x1="510.4626666666667" x2="516.24" y1="171" y2="169" /><line stroke="#56a64b" stroke-width="4" x1="516.24" x2="522.008" y1="169" y2="167" /><line stroke="#56a64b" stroke-width="4" x1="522.008" x2="527.8413333333333" y1="167" y2="169" /><line stroke="#56a64b" stroke-width="4" x1="527.8413333333333" x2="533.5533333333334" y1="169" y2="172" /><line stroke="#56a64b" stroke-width="4" x1="533.5533333333334" x2="539.3213333333333" y1="172" y2="174" /><line stroke="#56a64b" stroke-width="4" x1="539.3213333333333" x2="545.0986666666668" y1="174" y2="172" /><line stroke="#56a64b" stroke-width="4" x1="545.0986666666668" x2="550.8666666666668" y1="172" y2="174" /><line stroke="#56a64b" stroke-width="4" x1="550.8666666666668" x2="556.644" y1="174" y2="171" /><line stroke="#56a64b" stroke-width="4" x1="556.644" x2="562.412" y1="171" y2="176" /><line stroke="#56a64b" stroke-width="4" x1="562.412" x2="568.1800000000001" y1="176" y2="174" /><line stroke="#56a64b" stroke-width="4" x1="568.1800000000001" x2="573.9573333333334" y1="174" y2="176" /><line stroke="#56a64b" stroke-width="4" x1="573.9573333333334" x2="579.7253333333333" y1="176" y2="174" /><line stroke="#56a64b" stroke-width="4" x1="579.7253333333333" x2="585.5026666666668" y1="174" y2="174" /><line stroke="#56a64b" stroke-width="4" x1="585.5026666666668" x2="591.2706666666668" y1="174" y2="174" /><line stroke="#56a64b" stroke-width="4" x1="591.2706666666668" x2="597.0386666666667" y1="174" y2="182" /><line stroke="#56a64b" stroke-width="4" x1="597.0386666666667" x2="602.816" y1="182" y2="176" /><line stroke="#56a64b" stroke-width="4" x1="602.816" x2="608.5840000000001" y1="176" y2="177" /><line stroke="#56a64b" stroke-width="4" x1="608.5840000000001" x2="614.3613333333334" y1="177" y2="176" /><line stroke="#56a64b" stroke-width="4" x1="614.3613333333334" x2="620.1293333333334" y1="176" y2="177" /><line stroke="#56a64b" stroke-width="4" x1="620.1293333333334" x2="625.8973333333333" y1="177" y2="180" /><line stroke="#56a64b" stroke-width="4" x1="625.8973333333333" x2="631.6746666666667" y1="180" y2="180" /><line stroke="#56a64b" stroke-width="4" x1="631.6746666666667" x2="637.4426666666667" y1="180" y2="179" /><line stroke="#56a64b" stroke-width="4" x1="637.4426666666667" x2="643.22" y1="179" y2="179" /><line stroke="#56a64b" stroke-width="4" x1="643.22" x2="648.988" y1="179" y2="180" /><line stroke="#56a64b" stroke-width="4" x1="648.988" x2="654.7560000000001" y1="180" y2="182" /><line stroke="#56a64b" stroke-width="4" x1="654.7560000000001" x2="660.5986666666668" y1="182" y2="177" /><line stroke="#56a64b" stroke-width="4" x1="660.5986666666668" x2="666.3013333333333" y1="177" y2="180" /><line stroke="#56a64b" stroke-width="4" x1="666.3013333333333" x2="672.0786666666667" y1="180" y2="179" /><line stroke="#56a64b" stroke-width="4" x1="672.0786666666667" x2="677.8466666666667" y1="179" y2="180" /><line stroke="#56a64b" stroke-width="4" x1="677.8466666666667" x2="683.6146666666667" y1="180" y2="177" /><line stroke="#56a64b" stroke-width="4" x1="683.6146666666667" x2="689.392" y1="177" y2="179" /><line stroke="#56a64b" stroke-width="4" x1="689.392" x2="695.1600000000001" y1="179" y2="179" /><line stroke="#56a64b" stroke-width="4" x1="695.1600000000001" x2="700.9373333333334" y1="179" y2="177" /><line stroke="#56a64b" stroke-width="4" x1="700.9373333333334" x2="706.7053333333333" y1="177" y2="179" /><line stroke="#56a64b" stroke-width="4" x1="706.7053333333333" x2="712.4826666666668" y1="179" y2="179" /><line stroke="#56a64b" stroke-width="4" x1="712.4826666666668" x2="718.2506666666667" y1="179" y2="174" /><line stroke="#56a64b" stroke-width="4" x1="718.2506666666667" x2="724.0186666666667" y1="174" y2="179" /><line stroke="#56a64b" stroke-width="4" x1="724.0186666666667" x2="729.8520000000001" y1="179" y2="176" /><line stroke="#56a64b" stroke-width="4" x1="729.8520000000001" x2="735.5640000000001" y1="176" y2="179" /><line stroke="#56a64b" stroke-width="4" x1="735.5640000000001" x2="741.3413333333334" y1="179" y2="177" /><line stroke="#56a64b" stroke-width="4" x1="741.3413333333334" x2="747.1093333333334" y1="177" y2="177" /><line stroke="#56a64b" stroke-width="4" x1="747.1093333333334" x2="752.8773333333334" y1="177" y2="174" /><line stroke="#56a64b" stroke-width="4" x1="752.8773333333334" x2="758.6546666666667" y1="174" y2="177" /><line stroke="#56a64b" stroke-width="4" x1="758.6546666666667" x2="764.4226666666667" y1="177" y2="172" /><line stroke="#56a64b" stroke-width="4" x1="764.4226666666667" x2="770.2" y1="172" y2="171" /><line stroke="#56a64b" stroke-width="4" x1="770.2" x2="775.9680000000001" y1="171" y2="169" /><line stroke="#56a64b" stroke-width="4" x1="775.9680000000001" x2="781.7360000000001" y1="169" y2="171" /><line stroke="#56a64b" stroke-width="4" x1="781.7360000000001" x2="787.5133333333334" y1="171" y2="167" /><line stroke="#56a64b" stroke-width="4" x1="787.5133333333334" x2="793.2813333333334" y1="167" y2="167" /><line stroke="#56a64b" stroke-width="4" x1="793.2813333333334" x2="799.0493333333334" y1="167" y2="166" /><line stroke="#56a64b" stroke-width="4" x1="799.0493333333334" x2="804.8266666666667" y1="166" y2="166" /><line stroke="#56a64b" stroke-width="4" x1="804.8266666666667" x2="810.5946666666667" y1="166" y2="164" /><line stroke="#56a64b" stroke-width="4" x1="810.5946666666667" x2="816.3720000000001" y1="164" y2="162" /><line stroke="#56a64b" stroke-width="4" x1="816.3720000000001" x2="822.1400000000001" y1="162" y2="162" /><line stroke="#56a64b" stroke-width="4" x1="822.1400000000001" x2="827.908" y1="162" y2="161" /><line stroke="#56a64b" stroke-width="4" x1="827.908" x2="833.6853333333333" y1="161" y2="159" /><line stroke="#56a64b" stroke-width="4" x1="833.6853333333333" x2="839.4533333333334" y1="159" y2="159" /><line stroke="#56a64b" stroke-width="4" x1="839.4533333333334" x2="845.2306666666667" y1="159" y2="164" /><line stroke="#56a64b" stroke-width="4" x1="845.2306666666667" x2="850.9986666666667" y1="164" y2="162" /><line stroke="#56a64b" stroke-width="4" x1="850.9986666666667" x2="856.7666666666668" y1="162" y2="161" /><line stroke="#56a64b" stroke-width="4" x1="856.7666666666668" x2="862.5440000000001" y1="161" y2="159" /><line stroke="#56a64b" stroke-width="4" x1="862.5440000000001" x2="868.312" y1="159" y2="159" /><line stroke="#56a64b" stroke-width="4" x1="868.312" x2="874.0893333333333" y1="159" y2="157" /><line stroke="#56a64b" stroke-width="4" x1="874.0893333333333" x2="879.8573333333334" y1="157" y2="157" /><line stroke="#56a64b" stroke-width="4" x1="879.8573333333334" x2="885.6253333333334" y1="157" y2="156" /><line stroke="#56a64b" stroke-width="4" x1="885.6253333333334" x2="891.4026666666667" y1="156" y2="156" /><line stroke="#56a64b" stroke-width="4" x1="891.4026666666667" x2="897.1706666666668" y1="156" y2="157" /><line stroke="#56a64b" stroke-width="4" x1="897.1706666666668" x2="902.9480000000001" y1="157" y2="149" /><line stroke="#56a64b" stroke-width="4" x1="902.9480000000001" x2="908.7160000000001" y1="149" y2="149" /><line stroke="#56a64b" stroke-width="4" x1="908.7160000000001" x2="914.484" y1="149" y2="152" /><text fill="#A9A9A9" font-size="20px" style="font-family:Arial" text-anchor="end" x="920" y="30.0">2023-12-26 08:54:07</text><text fill="#A9A9A9" font-size="24px" style="font-family:Arial" text-anchor="middle" x="500.0" y="28.0">Windrichtung</text><text fill="#A9A9A9" font-size="24px" style="font-family:Arial" text-anchor="start" x="80" y="28.0">Südhang</text></svg>